<svg width="122" height="71" viewBox="0 0 122 71" fill="none" xmlns="http://www.w3.org/2000/svg">
<path d="M29.5641 44.8151C29.5641 48.0882 26.891 50.7412 23.593 50.7412H13.8726C13.8934 46.6825 14.553 42.6928 15.7681 38.896H23.593C26.891 38.896 29.5641 41.542 29.5641 44.8151Z" fill="#F47820"/>
<path d="M8.83866 38.896C7.84578 42.6721 7.34588 46.6136 7.34588 50.7412H5.97113C4.3256 50.7412 2.83282 50.0797 1.74968 49.0047C0.673491 47.9298 0 46.4551 0 44.8151C0 41.542 2.67313 38.8891 5.97113 38.8891H8.83866V38.896Z" fill="#F47820"/>
<path d="M41.4646 65.074C41.4646 68.3471 38.7915 71 35.4935 71H24.0373C23.947 70.9311 23.8706 70.8691 23.7943 70.7864V71H19.184C17.3649 67.8371 15.9901 64.5089 15.0945 60.9809C14.9348 60.3745 14.8028 59.7681 14.6848 59.1548H35.4866C38.7915 59.1479 41.4646 61.8009 41.4646 65.074Z" fill="#F47820"/>
<path d="M11.7548 70.9931H5.97113C2.67313 70.9931 0 68.3401 0 65.067C0 61.7939 2.67313 59.141 5.97113 59.141H7.9916C8.63037 63.2961 9.93569 67.2376 11.7548 70.9931Z" fill="#F47820"/>
<path d="M41.4646 24.9973C41.4646 28.2704 38.7915 30.9234 35.4935 30.9234H19.3159C21.9474 26.3961 25.4884 22.3582 29.8209 19.0782H35.4935C38.7915 19.0782 41.4646 21.7311 41.4646 24.9973Z" fill="#F47820"/>
<path d="M20.156 19.0782C16.6567 22.7578 13.8725 26.7131 11.8173 30.9234H5.97113C2.67313 30.9234 0 28.2704 0 24.9973C0 21.7242 2.67313 19.0713 5.97113 19.0713H20.156V19.0782Z" fill="#F47820"/>
<path d="M58.5796 30.7235H52.6085C52.0739 30.7235 51.6573 31.0612 51.5601 31.5917L48.887 46.7307C48.7898 47.2406 49.0814 47.599 49.5952 47.599H55.5941C56.1079 47.599 56.5175 47.2406 56.6147 46.7307L56.83 45.4559C56.9272 44.9254 56.6355 44.5877 56.1287 44.5877H52.4835L53.2612 40.2465H56.7119C57.2466 40.2465 57.6562 39.9089 57.7534 39.3783L57.9756 38.1449C58.0728 37.6418 57.7812 37.2835 57.2465 37.2835H53.7958L54.4276 33.7348H58.045C58.5588 33.7348 58.9962 33.3971 59.0657 32.8665L59.3087 31.5917C59.4059 31.0612 59.1143 30.7235 58.5796 30.7235Z" fill="#2B2C2B"/>
<path d="M69.64 34.9889C70.126 32.1706 69.1262 30.5306 65.8976 30.5306C62.5718 30.5306 60.9332 31.8881 60.225 34.9683H63.3981C63.7452 33.7004 64.3701 33.3972 65.3144 33.3972C66.4531 33.3972 66.5294 34.1689 66.2864 35.5195C66.0642 36.8701 65.5088 37.6901 64.4395 37.6901H64.1202L63.7869 40.4395H64.0715C65.4116 40.4395 65.7032 41.1837 65.4324 42.6583C65.1686 44.1054 64.7311 44.9461 63.4397 44.9461C62.4191 44.9461 61.8775 44.636 61.9122 43.499H58.7184C58.3782 46.5103 59.5793 47.8126 62.9329 47.8126C66.092 47.8126 67.9389 46.2002 68.5707 42.7548C68.9109 40.7978 68.6193 39.3508 67.2099 38.7513C68.6888 38.076 69.3484 36.6289 69.64 34.9889Z" fill="#2B2C2B"/>
<path d="M73.4033 30.7235H74.8822C75.4169 30.7235 75.7085 31.0612 75.6113 31.5917L73.327 44.3948H76.2431C76.7777 44.3948 77.0693 44.7324 76.9721 45.263L76.7083 46.7307C76.6111 47.2406 76.1945 47.599 75.6877 47.599H70.39C69.8832 47.599 69.5915 47.2406 69.6887 46.7307L72.3619 31.5917C72.4591 31.0612 72.8687 30.7235 73.4033 30.7235Z" fill="#2B2C2B"/>
<path d="M87.2756 33.7348H83.6582L83.0264 37.2766H86.4772C87.0118 37.2766 87.3034 37.6349 87.2062 38.1449L86.984 39.3783C86.8868 39.9089 86.4772 40.2465 85.9425 40.2465H82.4918L81.7142 44.5877H85.3593C85.8662 44.5877 86.1578 44.9254 86.0606 45.4559L85.8453 46.7307C85.7481 47.2406 85.3315 47.599 84.8247 47.599H78.8258C78.3189 47.599 78.0273 47.2406 78.1245 46.7307L80.7977 31.5917C80.8949 31.0612 81.3114 30.7235 81.8391 30.7235H87.8172C88.3518 30.7235 88.6434 31.0612 88.5462 31.5917L88.3032 32.8665C88.2269 33.3971 87.7894 33.7348 87.2756 33.7348Z" fill="#2B2C2B"/>
<path d="M98.5514 30.7235H99.9331C100.468 30.7235 100.759 31.0612 100.662 31.5917L97.989 46.7307C97.8918 47.2406 97.4752 47.599 96.9475 47.599H95.42C95.0312 47.599 94.7604 47.3578 94.691 47.0477L93.0663 39.6195L92.5594 36.367L91.9276 40.7289L90.8583 46.7307C90.7611 47.2406 90.3515 47.599 89.8169 47.599H88.4352C87.9283 47.599 87.6367 47.2406 87.7339 46.7307L90.407 31.5917C90.5042 31.0612 90.9208 30.7235 91.4485 30.7235H93.1982C93.587 30.7235 93.8508 30.944 93.9272 31.2748L95.4617 37.8554L95.9685 41.4731L96.4754 37.5936L97.5446 31.5917C97.6279 31.0612 98.0445 30.7235 98.5514 30.7235Z" fill="#2B2C2B"/>
<path d="M103.877 30.7235H105.356C105.869 30.7235 106.161 31.0612 106.057 31.5917L104.89 38.2689H108.168L109.355 31.5917C109.452 31.0612 109.862 30.7235 110.396 30.7235H111.854C112.389 30.7235 112.681 31.0612 112.583 31.5917L109.89 46.7307C109.792 47.2406 109.383 47.599 108.869 47.599H107.39C106.883 47.599 106.592 47.2406 106.661 46.7307L107.633 41.2595H104.356L103.384 46.7307C103.287 47.2406 102.877 47.599 102.342 47.599H100.863C100.357 47.599 100.065 47.2406 100.162 46.7307L102.835 31.5917C102.926 31.0612 103.342 30.7235 103.877 30.7235Z" fill="#2B2C2B"/>
<path d="M121.998 31.5642L121.533 46.6549C121.512 47.2062 121.124 47.5921 120.54 47.5921H118.916C118.478 47.5921 118.214 47.2751 118.235 46.8686L118.381 44.0709H115.59L114.743 46.8686C114.625 47.2751 114.236 47.5921 113.799 47.5921H112.174C111.618 47.5921 111.348 47.2062 111.514 46.6549L116.423 31.5642C116.59 31.0612 117.076 30.7235 117.541 30.7235H121.186C121.658 30.7235 122.026 31.0612 121.998 31.5642ZM118.596 33.7348L116.34 41.1837H118.624L119.013 33.7348C119.013 33.5901 118.985 33.5143 118.839 33.5143C118.694 33.5143 118.645 33.6176 118.596 33.7348Z" fill="#2B2C2B"/>
<path d="M48.7342 3.77379C47.9705 5.98572 47.2068 8.19765 46.4361 10.4027L46.2694 10.9057C46.0125 11.643 45.7695 12.3735 45.5057 13.1039C45.1724 14.0341 44.4225 14.6129 43.4436 14.6956C43.3325 14.7025 43.2144 14.7094 43.1103 14.7025C42.3049 14.6887 41.6175 14.2822 41.1592 13.5518C40.7704 12.9178 40.7149 12.1874 40.9926 11.3812C41.7147 9.2864 42.4368 7.19849 43.1589 5.11748C42.8048 5.1037 42.4576 5.08992 42.1035 5.06925C40.2011 4.97967 38.2987 4.89009 36.3962 4.79362C35.3478 4.74538 34.5771 4.2079 34.2022 3.27765C33.8411 2.35429 34.0286 1.44471 34.7368 0.71429C35.2298 0.204374 35.8824 -0.0368013 36.7226 0.00454324C39.7012 0.149249 42.6659 0.287068 45.6306 0.417993L46.4916 0.459336C47.3664 0.514462 48.0816 0.893455 48.5121 1.5274C48.9356 2.16135 49.0189 2.96068 48.7342 3.77379Z" fill="#F47820"/>
<path d="M54.9623 59.0307C55.0317 58.9618 55.0664 58.8309 55.0664 58.6517V56.1848C55.0664 56.1228 55.0942 56.0953 55.1567 56.0953H55.7538C55.8163 56.0953 55.8441 56.1228 55.8441 56.1848V58.5553C55.8441 58.7551 55.9204 58.8998 56.0732 58.9963C56.2259 59.0927 56.4273 59.141 56.6772 59.141H56.7814C56.9064 59.141 56.9966 59.1686 57.0591 59.2168C57.1216 59.2719 57.1494 59.3546 57.1494 59.4786C57.1494 59.6371 57.1216 59.7405 57.0591 59.7887C57.0036 59.837 56.9064 59.8576 56.7744 59.8576H56.58C56.3787 59.8576 56.212 59.8163 56.0593 59.7405C55.9135 59.6578 55.7955 59.5406 55.7191 59.3822C55.6358 59.5406 55.5177 59.6647 55.358 59.7405C55.1983 59.8232 54.99 59.8576 54.7331 59.8576H50.2687C49.8799 59.8576 49.6021 59.7611 49.4355 59.5751C49.2689 59.389 49.1855 59.0927 49.1855 58.6931V56.7706C49.1855 56.7086 49.2133 56.681 49.2758 56.681H49.8729C49.9354 56.681 49.9632 56.7086 49.9632 56.7706V58.6517C49.9632 58.8378 49.9979 58.9618 50.0673 59.0307C50.1368 59.0996 50.2479 59.1341 50.4076 59.1341H54.6082C54.7748 59.141 54.8928 59.1065 54.9623 59.0307ZM52.1711 61.5734C52.1086 61.5734 52.0809 61.5459 52.0809 61.4838V60.8086C52.0809 60.7465 52.1086 60.719 52.1711 60.719H52.8029C52.8654 60.719 52.8932 60.7465 52.8932 60.8086V61.4838C52.8932 61.5459 52.8654 61.5734 52.8029 61.5734H52.1711Z" fill="#2B2C2B"/>
<path d="M56.7329 59.8576C56.6079 59.8576 56.5246 59.8301 56.4829 59.7818C56.4412 59.7267 56.4204 59.6371 56.4204 59.5131C56.4204 59.3615 56.4412 59.2581 56.4829 59.2099C56.5246 59.1617 56.6079 59.141 56.7398 59.141H57.7604C57.8854 59.141 57.9757 59.1686 58.0382 59.2168C58.1006 59.265 58.1284 59.3546 58.1284 59.4855C58.1284 59.6371 58.1006 59.7405 58.0382 59.7887C57.9826 59.837 57.8854 59.8645 57.7535 59.8645H56.7329V59.8576Z" fill="#2B2C2B"/>
<path d="M57.7604 59.8576C57.6355 59.8576 57.5521 59.8301 57.5105 59.7818C57.4688 59.7267 57.448 59.6371 57.448 59.5131C57.448 59.3615 57.4688 59.2581 57.5105 59.2099C57.5521 59.1617 57.6355 59.141 57.7674 59.141H58.788C58.913 59.141 59.0033 59.1686 59.0658 59.2168C59.1282 59.265 59.156 59.3546 59.156 59.4855C59.156 59.6371 59.1282 59.7405 59.0658 59.7887C59.0102 59.837 58.913 59.8645 58.7811 59.8645H57.7604V59.8576Z" fill="#2B2C2B"/>
<path d="M58.7949 59.8576C58.6699 59.8576 58.5866 59.8301 58.5449 59.7818C58.5033 59.7267 58.4824 59.6371 58.4824 59.5131C58.4824 59.3615 58.5033 59.2581 58.5449 59.2099C58.5866 59.1617 58.6699 59.141 58.8018 59.141H59.8225C59.9474 59.141 60.0377 59.1686 60.1002 59.2168C60.1627 59.265 60.1904 59.3546 60.1904 59.4855C60.1904 59.6371 60.1627 59.7405 60.1002 59.7887C60.0446 59.837 59.9474 59.8645 59.8155 59.8645H58.7949V59.8576Z" fill="#2B2C2B"/>
<path d="M59.8225 59.8576C59.6975 59.8576 59.6142 59.8301 59.5725 59.7818C59.5308 59.7267 59.51 59.6371 59.51 59.5131C59.51 59.3615 59.5308 59.2581 59.5725 59.2099C59.6142 59.1617 59.6975 59.141 59.8294 59.141H60.85C60.975 59.141 61.0653 59.1686 61.1278 59.2168C61.1903 59.265 61.218 59.3546 61.218 59.4855C61.218 59.6371 61.1903 59.7405 61.1278 59.7887C61.0722 59.837 60.975 59.8645 60.8431 59.8645H59.8225V59.8576Z" fill="#2B2C2B"/>
<path d="M60.8571 59.8576C60.7322 59.8576 60.6488 59.8301 60.6072 59.7818C60.5655 59.7267 60.5447 59.6371 60.5447 59.5131C60.5447 59.3615 60.5655 59.2581 60.6072 59.2099C60.6488 59.1617 60.7321 59.141 60.8641 59.141H61.8847C62.0097 59.141 62.0999 59.1686 62.1624 59.2168C62.2249 59.265 62.2527 59.3546 62.2527 59.4855C62.2527 59.6371 62.2249 59.7405 62.1624 59.7887C62.1069 59.837 62.0097 59.8645 61.8778 59.8645H60.8571V59.8576Z" fill="#2B2C2B"/>
<path d="M61.8847 59.8576C61.7597 59.8576 61.6764 59.8301 61.6348 59.7818C61.5931 59.7267 61.5723 59.6371 61.5723 59.5131C61.5723 59.3615 61.5931 59.2581 61.6348 59.2099C61.6764 59.1617 61.7597 59.141 61.8916 59.141H62.9123C63.0373 59.141 63.1275 59.1686 63.19 59.2168C63.2525 59.265 63.2803 59.3546 63.2803 59.4855C63.2803 59.6371 63.2525 59.7405 63.19 59.7887C63.1345 59.837 63.0373 59.8645 62.9054 59.8645H61.8847V59.8576Z" fill="#2B2C2B"/>
<path d="M62.9191 59.8576C62.7942 59.8576 62.7108 59.8301 62.6692 59.7818C62.6275 59.7267 62.6067 59.6371 62.6067 59.5131C62.6067 59.3615 62.6275 59.2581 62.6692 59.2099C62.7108 59.1617 62.7942 59.141 62.9261 59.141H63.9467C64.0717 59.141 64.162 59.1686 64.2245 59.2168C64.2869 59.265 64.3147 59.3546 64.3147 59.4855C64.3147 59.6371 64.2869 59.7405 64.2245 59.7887C64.1689 59.837 64.0717 59.8645 63.9398 59.8645H62.9191V59.8576Z" fill="#2B2C2B"/>
<path d="M66.7727 59.8576C66.5714 59.8576 66.3978 59.8163 66.252 59.7405C66.1062 59.6647 65.9881 59.5406 65.9118 59.3822C65.759 59.6991 65.4327 59.8645 64.9467 59.8645H63.9468C63.8219 59.8645 63.7316 59.8438 63.6691 59.8025C63.6066 59.7611 63.5789 59.6716 63.5789 59.5475C63.5789 59.3959 63.6066 59.2857 63.6691 59.2306C63.7247 59.1754 63.8219 59.1479 63.9538 59.1479H64.8147C64.9675 59.1479 65.0855 59.1134 65.155 59.0445C65.2244 58.9756 65.2591 58.8447 65.2591 58.6655V56.9911C65.2591 56.929 65.2869 56.9015 65.3494 56.9015H65.9465C66.009 56.9015 66.0367 56.929 66.0367 56.9911V58.5277C66.0367 58.7344 66.1131 58.8929 66.2589 58.9963C66.4047 59.0996 66.6061 59.1548 66.856 59.1548H67.0852C67.2379 59.1548 67.3559 59.1203 67.4254 59.0514C67.4948 58.9825 67.5295 58.8516 67.5295 58.6724V56.998C67.5295 56.9359 67.5573 56.9084 67.6198 56.9084H68.2169C68.2794 56.9084 68.3072 56.9359 68.3072 56.998V58.5759C68.3072 58.7758 68.3835 58.9205 68.5363 59.0169C68.689 59.1134 68.8904 59.1617 69.1403 59.1617H69.3556C69.5083 59.1617 69.6264 59.1272 69.6958 59.0583C69.7652 58.9894 69.7999 58.8585 69.7999 58.6793V56.2124C69.7999 56.1504 69.8277 56.1228 69.8902 56.1228H70.4873C70.5498 56.1228 70.5776 56.1504 70.5776 56.2124V58.5415C70.5776 58.7482 70.6539 58.9067 70.8067 59.0101C70.9594 59.1134 71.1608 59.1685 71.4177 59.1685H71.5219C71.6468 59.1685 71.7371 59.1961 71.7996 59.2443C71.8621 59.2995 71.8898 59.3822 71.8898 59.5062C71.8898 59.6647 71.8621 59.768 71.7996 59.8163C71.744 59.8645 71.6468 59.8852 71.5149 59.8852H71.3205C71.1191 59.8852 70.9525 59.8438 70.7998 59.768C70.6539 59.6854 70.5359 59.5682 70.4595 59.4097C70.3068 59.7267 69.9805 59.8921 69.4944 59.8921H69.0501C68.8487 59.8921 68.6751 59.8507 68.5293 59.7749C68.3835 59.6991 68.2655 59.5751 68.1822 59.4166C68.0294 59.7336 67.7031 59.899 67.2171 59.899H66.7727V59.8576Z" fill="#2B2C2B"/>
<path d="M71.5217 59.8576C71.3967 59.8576 71.3134 59.8301 71.2717 59.7818C71.2301 59.7267 71.2092 59.6371 71.2092 59.5131C71.2092 59.3615 71.2301 59.2581 71.2717 59.2099C71.3134 59.1617 71.3967 59.141 71.5286 59.141H72.5493C72.6742 59.141 72.7645 59.1686 72.827 59.2168C72.8895 59.265 72.9173 59.3546 72.9173 59.4855C72.9173 59.6371 72.8895 59.7405 72.827 59.7887C72.7714 59.837 72.6742 59.8645 72.5423 59.8645H71.5217V59.8576Z" fill="#2B2C2B"/>
<path d="M72.5563 59.8576C72.4314 59.8576 72.348 59.8301 72.3064 59.7818C72.2647 59.7267 72.2439 59.6371 72.2439 59.5131C72.2439 59.3615 72.2647 59.2581 72.3064 59.2099C72.348 59.1617 72.4314 59.141 72.5633 59.141H73.5839C73.7089 59.141 73.7992 59.1686 73.8617 59.2168C73.9241 59.265 73.9519 59.3546 73.9519 59.4855C73.9519 59.6371 73.9241 59.7405 73.8617 59.7887C73.8061 59.837 73.7089 59.8645 73.577 59.8645H72.5563V59.8576Z" fill="#2B2C2B"/>
<path d="M73.5839 59.8576C73.4589 59.8576 73.3756 59.8301 73.334 59.7818C73.2923 59.7267 73.2715 59.6371 73.2715 59.5131C73.2715 59.3615 73.2923 59.2581 73.334 59.2099C73.3756 59.1617 73.459 59.141 73.5909 59.141H74.6115C74.7365 59.141 74.8268 59.1686 74.8892 59.2168C74.9517 59.265 74.9795 59.3546 74.9795 59.4855C74.9795 59.6371 74.9517 59.7405 74.8892 59.7887C74.8337 59.837 74.7365 59.8645 74.6046 59.8645H73.5839V59.8576Z" fill="#2B2C2B"/>
<path d="M76.2501 56.0884H77.0763C77.5485 56.0884 77.9303 56.2193 78.2358 56.488C78.5344 56.7499 78.6871 57.1702 78.6871 57.7353V58.2865C78.6871 58.5966 78.6594 58.8516 78.6038 59.0514C78.5483 59.2512 78.4719 59.4166 78.3608 59.5337C78.2497 59.6509 78.1109 59.7405 77.9442 59.7887C77.7776 59.8369 77.5762 59.8645 77.3402 59.8645H74.6115C74.3616 59.8645 74.2366 59.7405 74.2366 59.4924C74.2366 59.3408 74.2643 59.2443 74.3268 59.203C74.3824 59.1616 74.4796 59.141 74.6115 59.141H77.0555C77.2291 59.141 77.3679 59.1272 77.4721 59.0996C77.5762 59.0721 77.6596 59.0238 77.7151 58.9618C77.7707 58.8998 77.8054 58.8102 77.8262 58.7069C77.847 58.6035 77.854 58.4726 77.854 58.3072V57.7353C77.854 57.1151 77.4999 56.805 76.7986 56.805H75.3058C75.2433 56.805 75.2156 56.7774 75.2156 56.7154V56.1986C75.2156 56.1711 75.2225 56.1366 75.2503 56.109C75.2711 56.0815 75.2919 56.0608 75.2989 56.047L77.3332 53.6697C77.3679 53.6284 77.4096 53.6146 77.4513 53.6421L77.8956 54.0143C77.9442 54.0487 77.9581 54.0969 77.9303 54.1452L76.2501 56.0884Z" fill="#2B2C2B"/>
<path d="M79.6245 61.9869C79.5759 61.9111 79.5342 61.8284 79.5065 61.7319C79.4787 61.6354 79.4579 61.5321 79.4579 61.4149C79.4579 61.3185 79.4718 61.2151 79.5065 61.1049C79.5342 60.9946 79.5898 60.8981 79.6662 60.8086C79.7425 60.719 79.8397 60.6432 79.9578 60.588C80.0758 60.5329 80.2285 60.4985 80.4091 60.4985C80.5688 60.4985 80.7146 60.526 80.8396 60.5812C80.9645 60.6363 81.0687 60.719 81.1381 60.8223C81.1589 60.8637 81.1589 60.8981 81.1381 60.9119L80.9437 61.0704C80.902 61.1049 80.8673 61.1117 80.8396 61.0911C80.784 61.0291 80.7215 60.9808 80.6451 60.9395C80.5688 60.8981 80.4855 60.8775 80.3952 60.8775C80.2216 60.8775 80.0966 60.9326 80.0133 61.0359C79.93 61.1393 79.8883 61.2633 79.8883 61.408C79.8883 61.5459 79.9231 61.663 79.9925 61.7595C80.0619 61.8628 80.1314 61.9386 80.2008 61.9869H81.1589C81.1936 61.9869 81.2145 62.0075 81.2145 62.0489V62.3038C81.2145 62.3452 81.1936 62.3659 81.1589 62.3659H79.2704C79.2357 62.3659 79.2148 62.3452 79.2148 62.3038V62.0489C79.2148 62.0075 79.2357 61.9869 79.2704 61.9869H79.6245ZM80.6174 59.7681C80.6174 59.8301 80.5896 59.8576 80.5271 59.8576H79.93C79.8675 59.8576 79.8397 59.8301 79.8397 59.7681V53.6835C79.8397 53.6215 79.8675 53.5939 79.93 53.5939H80.5271C80.5896 53.5939 80.6174 53.6215 80.6174 53.6835V59.7681Z" fill="#2B2C2B"/>
<path d="M82.5683 61.6906C82.5058 61.6906 82.478 61.663 82.478 61.601V61.0635C82.478 61.0015 82.5058 60.9739 82.5683 60.9739H83.6861C83.8111 60.9739 83.9222 60.9601 84.0333 60.9326C84.1374 60.905 84.2277 60.8568 84.3041 60.7948C84.3804 60.7327 84.4429 60.6432 84.4846 60.526C84.5262 60.4089 84.5471 60.2711 84.5471 60.0988V59.8576H83.5542C83.2834 59.8576 83.0335 59.8232 82.8182 59.7611C82.603 59.6991 82.4086 59.5889 82.2558 59.4511C82.1031 59.3064 81.985 59.1134 81.9017 58.8722C81.8184 58.6311 81.7837 58.3348 81.7837 57.9902C81.7837 57.6388 81.8323 57.3356 81.9226 57.0738C82.0128 56.8119 82.1447 56.5983 82.3044 56.426C82.4641 56.2538 82.6585 56.1297 82.8738 56.047C83.089 55.9643 83.3251 55.923 83.5681 55.923C84.1166 55.923 84.5471 56.0815 84.8595 56.3985C85.172 56.7154 85.3247 57.2254 85.3247 57.9351V60.085C85.3247 60.3744 85.283 60.6225 85.2067 60.8223C85.1303 61.0222 85.0192 61.1944 84.8803 61.3185C84.7415 61.4494 84.5748 61.5459 84.3735 61.6079C84.1721 61.6699 83.9569 61.6974 83.7139 61.6974H82.5683V61.6906ZM83.5681 56.6396C83.2487 56.6396 83.0057 56.7637 82.8252 57.0117C82.6446 57.2598 82.5544 57.5837 82.5544 57.9902C82.5544 58.4243 82.6446 58.7275 82.8182 58.8929C82.9918 59.0583 83.2556 59.141 83.6028 59.141H84.5401V57.9351C84.5401 57.5285 84.4638 57.2116 84.311 56.9842C84.1583 56.7568 83.9152 56.6396 83.5681 56.6396Z" fill="#2B2C2B"/>
<path d="M88.8103 53.6835C88.8103 53.6215 88.8381 53.5939 88.9006 53.5939H89.4977C89.5602 53.5939 89.5879 53.6215 89.5879 53.6835V58.6517C89.5879 58.8378 89.6227 58.9618 89.6921 59.0307C89.7615 59.0996 89.8726 59.1341 90.0323 59.1341H90.442C90.6919 59.1341 90.8169 59.2581 90.8169 59.5062C90.8169 59.6578 90.7891 59.7543 90.7266 59.7956C90.6641 59.837 90.5739 59.8576 90.442 59.8576H89.8934C89.5046 59.8576 89.2269 59.7612 89.0603 59.5751C88.8936 59.3891 88.8103 59.0927 88.8103 58.6931V53.6835Z" fill="#2B2C2B"/>
<path d="M90.0669 59.4924C90.0669 59.3408 90.0947 59.2443 90.1572 59.203C90.2127 59.1617 90.3099 59.141 90.4418 59.141H91.4694V57.9351C91.4694 57.5837 91.5111 57.2805 91.6013 57.0255C91.6916 56.7706 91.8166 56.5638 91.9693 56.3985C92.1221 56.2331 92.3095 56.1159 92.5248 56.0401C92.74 55.9643 92.9622 55.923 93.2052 55.923C93.7745 55.923 94.212 56.0746 94.5244 56.3847C94.8369 56.6948 94.9896 57.1702 94.9896 57.8248C94.9896 58.0867 94.9549 58.3348 94.8785 58.5691C94.8021 58.8102 94.7188 58.9963 94.6147 59.141H95.6492C95.7811 59.141 95.8714 59.1617 95.9339 59.203C95.9894 59.2443 96.0241 59.3408 96.0241 59.4924C96.0241 59.7405 95.8991 59.8645 95.6561 59.8645H94.7188C94.8507 60.023 94.9132 60.2366 94.9132 60.4985C94.9132 60.6845 94.8785 60.8499 94.8091 61.0084C94.7396 61.1669 94.6355 61.2978 94.4966 61.4149C94.3578 61.5321 94.1842 61.6217 93.9829 61.6837C93.7815 61.7526 93.5385 61.787 93.2608 61.787C92.6845 61.787 92.2471 61.6699 91.9346 61.4425C91.6291 61.2151 91.4764 60.8568 91.4764 60.3813V59.8645H90.4488C90.1919 59.8576 90.0669 59.7336 90.0669 59.4924ZM93.2121 56.6396C92.9136 56.6396 92.6845 56.743 92.5109 56.9566C92.3373 57.1633 92.254 57.4596 92.254 57.8317V59.141H93.3024C93.469 59.141 93.6079 59.1065 93.7259 59.0307C93.837 58.9549 93.9342 58.8585 94.0106 58.7413C94.087 58.6242 94.1356 58.4864 94.1703 58.3348C94.1981 58.1832 94.2189 58.0385 94.2189 57.8869C94.2189 57.4872 94.1356 57.1771 93.969 56.9635C93.7954 56.7499 93.5454 56.6396 93.2121 56.6396ZM93.2191 61.0635C93.5524 61.0635 93.7884 61.0084 93.9273 60.905C94.0662 60.8017 94.1287 60.6501 94.1287 60.464C94.1287 60.3951 94.1217 60.3262 94.1009 60.2573C94.08 60.1884 94.0453 60.1195 93.9967 60.0575C93.9412 59.9954 93.8718 59.9472 93.7815 59.9127C93.6912 59.8783 93.5732 59.8576 93.4343 59.8576H92.254V60.3744C92.254 60.8361 92.5734 61.0635 93.2191 61.0635Z" fill="#2B2C2B"/>
<path d="M95.6494 59.8576C95.5244 59.8576 95.4411 59.8301 95.3994 59.7818C95.3577 59.7267 95.3369 59.6371 95.3369 59.5131C95.3369 59.3615 95.3577 59.2581 95.3994 59.2099C95.4411 59.1617 95.5244 59.141 95.6563 59.141H96.6769C96.8019 59.141 96.8922 59.1686 96.9547 59.2168C97.0172 59.265 97.0449 59.3546 97.0449 59.4855C97.0449 59.6371 97.0172 59.7405 96.9547 59.7887C96.8991 59.837 96.8019 59.8645 96.67 59.8645H95.6494V59.8576Z" fill="#2B2C2B"/>
<path d="M96.6838 59.8576C96.5588 59.8576 96.4755 59.8301 96.4338 59.7818C96.3922 59.7267 96.3713 59.6371 96.3713 59.5131C96.3713 59.3615 96.3922 59.2581 96.4338 59.2099C96.4755 59.1617 96.5588 59.141 96.6907 59.141H97.7114C97.8364 59.141 97.9266 59.1686 97.9891 59.2168C98.0516 59.265 98.0794 59.3546 98.0794 59.4855C98.0794 59.6371 98.0516 59.7405 97.9891 59.7887C97.9336 59.837 97.8364 59.8645 97.7044 59.8645H96.6838V59.8576Z" fill="#2B2C2B"/>
<path d="M97.7669 59.8576C97.6419 59.8576 97.5517 59.8369 97.4892 59.7956C97.4267 59.7543 97.3989 59.6647 97.3989 59.5406C97.3989 59.3891 97.4267 59.2788 97.4892 59.2237C97.5517 59.1685 97.6419 59.141 97.7739 59.141H98.3571C98.5098 59.141 98.6279 59.1065 98.6973 59.0376C98.7667 58.9687 98.8014 58.8378 98.8014 58.6586V56.1917C98.8014 56.1297 98.8292 56.1022 98.8917 56.1022H99.4888C99.5513 56.1022 99.5791 56.1297 99.5791 56.1917V58.5208C99.5791 58.7275 99.6555 58.886 99.8082 58.9894C99.961 59.0927 100.162 59.1479 100.419 59.1479H100.53C100.655 59.1479 100.746 59.1754 100.808 59.2237C100.871 59.2788 100.898 59.3615 100.898 59.4855C100.898 59.644 100.871 59.7474 100.808 59.7956C100.752 59.8438 100.655 59.8645 100.523 59.8645H100.322C100.121 59.8645 99.9471 59.8232 99.8013 59.7474C99.6555 59.6716 99.5374 59.5475 99.4611 59.3891C99.3083 59.706 98.982 59.8714 98.496 59.8714H97.7669V59.8576ZM98.8709 55.1788C98.8084 55.1788 98.7806 55.1512 98.7806 55.0892V54.4139C98.7806 54.3519 98.8084 54.3243 98.8709 54.3243H99.5027C99.5652 54.3243 99.593 54.3519 99.593 54.4139V55.0892C99.593 55.1512 99.5652 55.1788 99.5027 55.1788H98.8709Z" fill="#2B2C2B"/>
<path d="M100.461 59.8576C100.336 59.8576 100.253 59.8301 100.211 59.7818C100.169 59.7267 100.148 59.6371 100.148 59.5131C100.148 59.3615 100.169 59.2581 100.211 59.2099C100.253 59.1617 100.336 59.141 100.468 59.141H101.488C101.613 59.141 101.704 59.1686 101.766 59.2168C101.829 59.265 101.856 59.3546 101.856 59.4855C101.856 59.6371 101.829 59.7405 101.766 59.7887C101.711 59.837 101.613 59.8645 101.482 59.8645H100.461V59.8576Z" fill="#2B2C2B"/>
<path d="M101.495 59.8576C101.37 59.8576 101.287 59.8301 101.245 59.7818C101.204 59.7267 101.183 59.6371 101.183 59.5131C101.183 59.3615 101.204 59.2581 101.245 59.2099C101.287 59.1617 101.37 59.141 101.502 59.141H102.523C102.648 59.141 102.738 59.1686 102.801 59.2168C102.863 59.265 102.891 59.3546 102.891 59.4855C102.891 59.6371 102.863 59.7405 102.801 59.7887C102.745 59.837 102.648 59.8645 102.516 59.8645H101.495V59.8576Z" fill="#2B2C2B"/>
<path d="M102.523 59.8576C102.398 59.8576 102.315 59.8301 102.273 59.7818C102.231 59.7267 102.21 59.6371 102.21 59.5131C102.21 59.3615 102.231 59.2581 102.273 59.2099C102.315 59.1617 102.398 59.141 102.53 59.141H103.55C103.675 59.141 103.766 59.1686 103.828 59.2168C103.891 59.265 103.918 59.3546 103.918 59.4855C103.918 59.6371 103.891 59.7405 103.828 59.7887C103.773 59.837 103.675 59.8645 103.544 59.8645H102.523V59.8576Z" fill="#2B2C2B"/>
<path d="M103.558 59.8576C103.433 59.8576 103.349 59.8301 103.308 59.7818C103.266 59.7267 103.245 59.6371 103.245 59.5131C103.245 59.3615 103.266 59.2581 103.308 59.2099C103.349 59.1617 103.433 59.141 103.564 59.141H104.585C104.71 59.141 104.8 59.1686 104.863 59.2168C104.925 59.265 104.953 59.3546 104.953 59.4855C104.953 59.6371 104.925 59.7405 104.863 59.7887C104.807 59.837 104.71 59.8645 104.578 59.8645H103.558V59.8576Z" fill="#2B2C2B"/>
<path d="M104.585 59.8576C104.46 59.8576 104.377 59.8301 104.335 59.7818C104.294 59.7267 104.273 59.6371 104.273 59.5131C104.273 59.3615 104.294 59.2581 104.335 59.2099C104.377 59.1617 104.46 59.141 104.592 59.141H105.613C105.738 59.141 105.828 59.1686 105.89 59.2168C105.953 59.265 105.981 59.3546 105.981 59.4855C105.981 59.6371 105.953 59.7405 105.89 59.7887C105.835 59.837 105.738 59.8645 105.606 59.8645H104.585V59.8576Z" fill="#2B2C2B"/>
<path d="M105.613 59.8576C105.488 59.8576 105.404 59.8301 105.363 59.7818C105.321 59.7267 105.3 59.6371 105.3 59.5131C105.3 59.3615 105.321 59.2581 105.363 59.2099C105.404 59.1617 105.488 59.141 105.62 59.141H106.64C106.765 59.141 106.856 59.1686 106.918 59.2168C106.981 59.265 107.008 59.3546 107.008 59.4855C107.008 59.6371 106.981 59.7405 106.918 59.7887C106.862 59.837 106.765 59.8645 106.633 59.8645H105.613V59.8576Z" fill="#2B2C2B"/>
<path d="M106.64 59.8576C106.515 59.8576 106.425 59.837 106.362 59.7956C106.3 59.7543 106.272 59.6647 106.272 59.5407C106.272 59.3891 106.3 59.2788 106.362 59.2237C106.418 59.1686 106.515 59.141 106.647 59.141H107.23C107.383 59.141 107.501 59.1065 107.571 59.0376C107.64 58.9687 107.675 58.8378 107.675 58.6587V53.6904C107.675 53.6284 107.703 53.6008 107.765 53.6008H108.362C108.425 53.6008 108.452 53.6284 108.452 53.6904V58.5208C108.452 58.7276 108.529 58.886 108.681 58.9894C108.834 59.0928 109.036 59.1479 109.293 59.1479H109.404C109.529 59.1479 109.619 59.1755 109.681 59.2237C109.744 59.2788 109.772 59.3615 109.772 59.4855C109.772 59.644 109.744 59.7474 109.681 59.7956C109.626 59.8439 109.529 59.8645 109.397 59.8645H109.195C108.994 59.8645 108.827 59.8232 108.675 59.7474C108.529 59.6647 108.411 59.5476 108.334 59.3891C108.182 59.706 107.855 59.8714 107.369 59.8714H106.64V59.8576Z" fill="#2B2C2B"/>
<path d="M109.397 59.8576C109.272 59.8576 109.188 59.8301 109.147 59.7818C109.105 59.7267 109.084 59.6371 109.084 59.5131C109.084 59.3615 109.105 59.2581 109.147 59.2099C109.188 59.1617 109.272 59.141 109.404 59.141H110.424C110.549 59.141 110.639 59.1686 110.702 59.2168C110.764 59.265 110.792 59.3546 110.792 59.4855C110.792 59.6371 110.764 59.7405 110.702 59.7887C110.646 59.837 110.549 59.8645 110.417 59.8645H109.397V59.8576Z" fill="#2B2C2B"/>
<path d="M110.424 59.8576C110.299 59.8576 110.216 59.8301 110.174 59.7818C110.133 59.7267 110.112 59.6371 110.112 59.5131C110.112 59.3615 110.133 59.2581 110.174 59.2099C110.216 59.1617 110.299 59.141 110.431 59.141H111.452C111.577 59.141 111.667 59.1686 111.73 59.2168C111.792 59.265 111.82 59.3546 111.82 59.4855C111.82 59.6371 111.792 59.7405 111.73 59.7887C111.674 59.837 111.577 59.8645 111.445 59.8645H110.424V59.8576Z" fill="#2B2C2B"/>
<path d="M111.459 59.8576C111.334 59.8576 111.251 59.8301 111.209 59.7818C111.167 59.7267 111.146 59.6371 111.146 59.5131C111.146 59.3615 111.167 59.2581 111.209 59.2099C111.251 59.1617 111.334 59.141 111.466 59.141H112.487C112.611 59.141 112.702 59.1686 112.764 59.2168C112.827 59.265 112.854 59.3546 112.854 59.4855C112.854 59.6371 112.827 59.7405 112.764 59.7887C112.709 59.837 112.611 59.8645 112.48 59.8645H111.459V59.8576Z" fill="#2B2C2B"/>
<path d="M112.487 59.8576C112.362 59.8576 112.278 59.8301 112.237 59.7818C112.195 59.7267 112.174 59.6371 112.174 59.5131C112.174 59.3615 112.195 59.2581 112.237 59.2099C112.278 59.1617 112.362 59.141 112.493 59.141H113.514C113.639 59.141 113.729 59.1686 113.792 59.2168C113.854 59.265 113.882 59.3546 113.882 59.4855C113.882 59.6371 113.854 59.7405 113.792 59.7887C113.736 59.837 113.639 59.8645 113.507 59.8645H112.487V59.8576Z" fill="#2B2C2B"/>
<path d="M113.521 59.8576C113.396 59.8576 113.313 59.8301 113.271 59.7818C113.229 59.7267 113.208 59.6371 113.208 59.5131C113.208 59.3615 113.229 59.2581 113.271 59.2099C113.313 59.1617 113.396 59.141 113.528 59.141H114.549C114.674 59.141 114.764 59.1686 114.826 59.2168C114.889 59.265 114.917 59.3546 114.917 59.4855C114.917 59.6371 114.889 59.7405 114.826 59.7887C114.771 59.837 114.674 59.8645 114.542 59.8645H113.521V59.8576Z" fill="#2B2C2B"/>
<path d="M118.819 59.141C118.881 59.141 118.909 59.1685 118.909 59.2306V59.768C118.909 59.8301 118.881 59.8576 118.819 59.8576H114.535C114.285 59.8576 114.16 59.7336 114.16 59.4855C114.16 59.3339 114.187 59.2375 114.25 59.1961C114.305 59.1548 114.403 59.1341 114.535 59.1341H115.59C115.444 58.9894 115.319 58.8171 115.222 58.5966C115.125 58.383 115.069 58.1211 115.069 57.8248C115.069 57.6319 115.097 57.4252 115.153 57.2047C115.208 56.9773 115.312 56.7706 115.465 56.5845C115.618 56.3985 115.819 56.2331 116.076 56.109C116.333 55.985 116.666 55.923 117.069 55.923C117.437 55.923 117.749 55.9919 118.013 56.1228C118.277 56.2538 118.492 56.4398 118.652 56.6741C118.68 56.7223 118.673 56.7637 118.624 56.805L118.214 57.1358C118.166 57.1702 118.124 57.1702 118.083 57.1289C117.805 56.8119 117.451 56.6465 117.034 56.6465C116.652 56.6465 116.368 56.7568 116.18 56.9842C115.993 57.2116 115.902 57.4872 115.902 57.8248C115.902 58.0522 115.937 58.2452 116.013 58.4037C116.09 58.5622 116.173 58.6931 116.27 58.8033C116.368 58.9067 116.465 58.9894 116.562 59.0376C116.659 59.0927 116.736 59.1272 116.791 59.141H118.819Z" fill="#2B2C2B"/>
<path d="M119.77 61.9869C119.721 61.9111 119.68 61.8284 119.652 61.7319C119.624 61.6354 119.603 61.5321 119.603 61.4149C119.603 61.3185 119.617 61.2151 119.652 61.1049C119.68 60.9946 119.735 60.8981 119.811 60.8086C119.888 60.719 119.985 60.6432 120.103 60.588C120.221 60.5329 120.374 60.4985 120.554 60.4985C120.714 60.4985 120.86 60.526 120.985 60.5812C121.11 60.6363 121.214 60.719 121.283 60.8223C121.304 60.8637 121.304 60.8981 121.283 60.9119L121.089 61.0704C121.047 61.1049 121.013 61.1117 120.985 61.0911C120.929 61.0291 120.867 60.9808 120.79 60.9395C120.714 60.8981 120.631 60.8775 120.54 60.8775C120.367 60.8775 120.242 60.9326 120.159 61.0359C120.075 61.1393 120.034 61.2633 120.034 61.408C120.034 61.5459 120.068 61.663 120.138 61.7595C120.207 61.8628 120.277 61.9386 120.346 61.9869H121.304C121.339 61.9869 121.36 62.0075 121.36 62.0489V62.3038C121.36 62.3452 121.339 62.3659 121.304 62.3659H119.416C119.381 62.3659 119.36 62.3452 119.36 62.3038V62.0489C119.36 62.0075 119.381 61.9869 119.416 61.9869H119.77ZM120.763 59.7681C120.763 59.8301 120.735 59.8576 120.672 59.8576H120.075C120.013 59.8576 119.985 59.8301 119.985 59.7681V53.6835C119.985 53.6215 120.013 53.5939 120.075 53.5939H120.672C120.735 53.5939 120.763 53.6215 120.763 53.6835V59.7681Z" fill="#2B2C2B"/>
</svg>
