<svg width="180" height="106" viewBox="0 0 180 106" fill="none" xmlns="http://www.w3.org/2000/svg">
<path d="M43.619 66.6238C43.619 71.4897 39.6751 75.4337 34.8092 75.4337H20.4675C20.4983 69.4 21.4715 63.4687 23.2642 57.8242H34.8092C39.6751 57.8242 43.619 61.7579 43.619 66.6238Z" fill="white"/>
<path d="M13.0406 57.8242C11.5757 63.4379 10.8382 69.2975 10.8382 75.4337H8.80987C6.38203 75.4337 4.17957 74.4503 2.5815 72.8522C0.993675 71.2541 0 69.0619 0 66.6238C0 61.7579 3.94396 57.814 8.80987 57.814H13.0406V57.8242Z" fill="white"/>
<path d="M61.1775 96.7411C61.1775 101.607 57.2335 105.551 52.3676 105.551H35.4649C35.3318 105.448 35.2191 105.356 35.1064 105.233V105.551H28.3044C25.6204 100.849 23.5921 95.901 22.2707 90.6561C22.035 89.7546 21.8404 88.8531 21.6663 87.9414H52.3573C57.2335 87.9312 61.1775 91.8751 61.1775 96.7411Z" fill="white"/>
<path d="M17.3431 105.541H8.80987C3.94396 105.541 0 101.597 0 96.7308C0 91.8648 3.94396 87.9209 8.80987 87.9209H11.7909C12.7333 94.098 14.6592 99.9576 17.3431 105.541Z" fill="white"/>
<path d="M61.1775 37.1619C61.1775 42.0278 57.2335 45.9718 52.3676 45.9718H28.499C32.3815 39.2415 37.606 33.2385 43.9982 28.3623H52.3676C57.2335 28.3623 61.1775 32.3062 61.1775 37.1619Z" fill="white"/>
<path d="M29.7384 28.3623C24.5754 33.8326 20.4676 39.7127 17.4353 45.9718H8.80987C3.94396 45.9718 0 42.0278 0 37.1619C0 32.296 3.94396 28.3521 8.80987 28.3521H29.7384V28.3623Z" fill="white"/>
<path d="M86.4289 45.6748H77.619C76.8302 45.6748 76.2156 46.1768 76.0722 46.9655L72.1282 69.4717C71.9848 70.2297 72.4151 70.7624 73.1731 70.7624H82.024C82.782 70.7624 83.3864 70.2297 83.5298 69.4717L83.8474 67.5765C83.9908 66.7877 83.5605 66.2858 82.8127 66.2858H77.4346L78.582 59.8321H83.6732C84.462 59.8321 85.0664 59.3301 85.2098 58.5413L85.5376 56.7076C85.6811 55.9598 85.2508 55.4271 84.462 55.4271H79.3707L80.3029 50.1514H85.6401C86.3982 50.1514 87.0435 49.6495 87.146 48.8607L87.5045 46.9655C87.6479 46.1768 87.2177 45.6748 86.4289 45.6748Z" fill="white"/>
<path d="M102.748 52.0156C103.465 47.8258 101.989 45.3877 97.226 45.3877C92.3191 45.3877 89.9015 47.4058 88.8566 51.9848H93.5381C94.0503 50.0999 94.9723 49.6492 96.3655 49.6492C98.0455 49.6492 98.1582 50.7965 97.7997 52.8044C97.4719 54.8122 96.6523 56.0312 95.0747 56.0312H94.6035L94.1118 60.1186H94.5318C96.5089 60.1186 96.9392 61.225 96.5396 63.4172C96.1504 65.5684 95.505 66.8182 93.5996 66.8182C92.0937 66.8182 91.2947 66.3572 91.3459 64.667H86.6337C86.1317 69.1436 87.9039 71.0797 92.8518 71.0797C97.5128 71.0797 100.238 68.6826 101.17 63.5606C101.672 60.6513 101.242 58.5001 99.1621 57.6088C101.344 56.6049 102.317 54.4537 102.748 52.0156Z" fill="white"/>
<path d="M108.3 45.6748H110.482C111.271 45.6748 111.701 46.1768 111.558 46.9655L108.187 65.9989H112.49C113.279 65.9989 113.709 66.5009 113.565 67.2897L113.176 69.4717C113.033 70.2297 112.418 70.7624 111.67 70.7624H103.854C103.106 70.7624 102.676 70.2297 102.819 69.4717L106.763 46.9655C106.907 46.1768 107.511 45.6748 108.3 45.6748Z" fill="white"/>
<path d="M128.767 50.1514H123.43L122.498 55.4169H127.589C128.378 55.4169 128.808 55.9496 128.665 56.7076L128.337 58.5413C128.194 59.3301 127.589 59.8321 126.8 59.8321H121.709L120.562 66.2858H125.94C126.688 66.2858 127.118 66.7877 126.975 67.5765L126.657 69.4717C126.514 70.2297 125.899 70.7624 125.151 70.7624H116.3C115.553 70.7624 115.122 70.2297 115.266 69.4717L119.21 46.9655C119.353 46.1768 119.968 45.6748 120.746 45.6748H129.566C130.355 45.6748 130.785 46.1768 130.642 46.9655L130.283 48.8607C130.171 49.6495 129.525 50.1514 128.767 50.1514Z" fill="white"/>
<path d="M145.404 45.6748H147.442C148.231 45.6748 148.661 46.1768 148.518 46.9655L144.574 69.4717C144.43 70.2297 143.816 70.7624 143.037 70.7624H140.784C140.21 70.7624 139.81 70.4039 139.708 69.9429L137.311 58.8998L136.563 54.0647L135.631 60.5491L134.053 69.4717C133.91 70.2297 133.305 70.7624 132.517 70.7624H130.478C129.73 70.7624 129.3 70.2297 129.443 69.4717L133.387 46.9655C133.531 46.1768 134.145 45.6748 134.924 45.6748H137.505C138.079 45.6748 138.468 46.0026 138.581 46.4943L140.845 56.2774L141.593 61.6555L142.341 55.8881L143.918 46.9655C144.041 46.1768 144.656 45.6748 145.404 45.6748Z" fill="white"/>
<path d="M153.261 45.6748H155.443C156.201 45.6748 156.631 46.1768 156.478 46.9655L154.757 56.892H159.592L161.343 46.9655C161.487 46.1768 162.091 45.6748 162.88 45.6748H165.031C165.82 45.6748 166.25 46.1768 166.107 46.9655L162.132 69.4717C161.989 70.2297 161.384 70.7624 160.626 70.7624H158.444C157.697 70.7624 157.266 70.2297 157.369 69.4717L158.803 61.3379H153.968L152.534 69.4717C152.39 70.2297 151.786 70.7624 150.997 70.7624H148.815C148.067 70.7624 147.637 70.2297 147.78 69.4717L151.724 46.9655C151.857 46.1768 152.472 45.6748 153.261 45.6748Z" fill="white"/>
<path d="M179.998 46.9246L179.312 69.359C179.281 70.1785 178.707 70.7522 177.847 70.7522H175.45C174.804 70.7522 174.415 70.281 174.446 69.6766L174.661 65.5175H170.543L169.293 69.6766C169.119 70.281 168.545 70.7522 167.9 70.7522H165.503C164.683 70.7522 164.284 70.1785 164.529 69.359L171.772 46.9246C172.018 46.1768 172.735 45.6748 173.421 45.6748H178.799C179.496 45.6748 180.039 46.1768 179.998 46.9246ZM174.978 50.1514L171.649 61.2252H175.019L175.593 50.1514C175.593 49.9363 175.552 49.8236 175.337 49.8236C175.122 49.8236 175.05 49.9773 174.978 50.1514Z" fill="white"/>
<path d="M71.9029 5.61024C70.7761 8.89857 69.6493 12.1869 68.5122 15.465L68.2663 16.2128C67.8873 17.3089 67.5288 18.3948 67.1395 19.4807C66.6478 20.8636 65.5414 21.7241 64.097 21.847C63.9331 21.8573 63.7589 21.8675 63.6053 21.8573C62.417 21.8368 61.4028 21.2324 60.7267 20.1465C60.153 19.2041 60.0711 18.1182 60.4809 16.9196C61.5462 13.8055 62.6116 10.7015 63.677 7.60782C63.1545 7.58733 62.6423 7.56685 62.1199 7.53612C59.313 7.40295 56.5062 7.26976 53.6993 7.12635C52.1525 7.05464 51.0154 6.25561 50.4622 4.87267C49.9295 3.49997 50.2061 2.14775 51.251 1.06189C51.9783 0.30383 52.9413 -0.05471 54.1808 0.00675413C58.5755 0.221879 62.9497 0.426765 67.3239 0.621402L68.5941 0.682863C69.8849 0.764816 70.94 1.32824 71.5751 2.27069C72.2 3.21314 72.3229 4.40144 71.9029 5.61024Z" fill="white"/>
<path d="M81.0919 87.757C81.1943 87.6546 81.2455 87.4599 81.2455 87.1936V83.5262C81.2455 83.434 81.2865 83.3931 81.3787 83.3931H82.2597C82.3519 83.3931 82.3929 83.434 82.3929 83.5262V87.0502C82.3929 87.3473 82.5056 87.5624 82.7309 87.7058C82.9563 87.8492 83.2534 87.9209 83.6222 87.9209H83.7758C83.9602 87.9209 84.0934 87.9619 84.1856 88.0336C84.2778 88.1156 84.3187 88.2385 84.3187 88.4229C84.3187 88.6585 84.2778 88.8122 84.1856 88.8839C84.1036 88.9556 83.9602 88.9863 83.7656 88.9863H83.4787C83.1817 88.9863 82.9358 88.9248 82.7104 88.8121C82.4953 88.6892 82.3212 88.5151 82.2085 88.2795C82.0855 88.5151 81.9114 88.6995 81.6758 88.8121C81.4402 88.9351 81.1329 88.9863 80.7538 88.9863H74.1669C73.5933 88.9863 73.1835 88.8429 72.9376 88.5663C72.6918 88.2897 72.5688 87.8492 72.5688 87.2551V84.397C72.5688 84.3048 72.6098 84.2638 72.702 84.2638H73.583C73.6752 84.2638 73.7162 84.3048 73.7162 84.397V87.1936C73.7162 87.4702 73.7674 87.6546 73.8698 87.757C73.9723 87.8595 74.1362 87.9107 74.3718 87.9107H80.5694C80.8153 87.9209 80.9894 87.8697 81.0919 87.757ZM76.9738 91.5371C76.8816 91.5371 76.8406 91.4961 76.8406 91.4039V90.4C76.8406 90.3078 76.8816 90.2668 76.9738 90.2668H77.906C77.9982 90.2668 78.0392 90.3078 78.0392 90.4V91.4039C78.0392 91.4961 77.9982 91.5371 77.906 91.5371H76.9738Z" fill="white"/>
<path d="M83.7041 88.9863C83.5197 88.9863 83.3968 88.9453 83.3354 88.8736C83.2739 88.7916 83.2432 88.6585 83.2432 88.4741C83.2432 88.2487 83.2739 88.095 83.3354 88.0233C83.3968 87.9516 83.5197 87.9209 83.7144 87.9209H85.2203C85.4046 87.9209 85.5378 87.9619 85.63 88.0336C85.7222 88.1053 85.7632 88.2385 85.7632 88.4331C85.7632 88.6585 85.7222 88.8121 85.63 88.8838C85.5481 88.9556 85.4046 88.9965 85.21 88.9965H83.7041V88.9863Z" fill="white"/>
<path d="M85.2203 88.9863C85.0359 88.9863 84.9129 88.9453 84.8515 88.8736C84.79 88.7916 84.7593 88.6585 84.7593 88.4741C84.7593 88.2487 84.79 88.095 84.8515 88.0233C84.9129 87.9516 85.0359 87.9209 85.2305 87.9209H86.7364C86.9208 87.9209 87.0539 87.9619 87.1461 88.0336C87.2383 88.1053 87.2793 88.2385 87.2793 88.4331C87.2793 88.6585 87.2383 88.8121 87.1461 88.8838C87.0642 88.9556 86.9208 88.9965 86.7261 88.9965H85.2203V88.9863Z" fill="white"/>
<path d="M86.7466 88.9863C86.5622 88.9863 86.4393 88.9453 86.3779 88.8736C86.3164 88.7916 86.2856 88.6585 86.2856 88.4741C86.2856 88.2487 86.3164 88.095 86.3779 88.0233C86.4393 87.9516 86.5622 87.9209 86.7569 87.9209H88.2628C88.4471 87.9209 88.5803 87.9619 88.6725 88.0336C88.7647 88.1053 88.8057 88.2385 88.8057 88.4331C88.8057 88.6585 88.7647 88.8121 88.6725 88.8838C88.5906 88.9556 88.4472 88.9965 88.2525 88.9965H86.7466V88.9863Z" fill="white"/>
<path d="M88.2627 88.9863C88.0783 88.9863 87.9554 88.9453 87.894 88.8736C87.8325 88.7916 87.8018 88.6585 87.8018 88.4741C87.8018 88.2487 87.8325 88.095 87.894 88.0233C87.9554 87.9516 88.0783 87.9209 88.273 87.9209H89.7788C89.9632 87.9209 90.0964 87.9619 90.1886 88.0336C90.2808 88.1053 90.3218 88.2385 90.3218 88.4331C90.3218 88.6585 90.2808 88.8121 90.1886 88.8838C90.1067 88.9556 89.9632 88.9965 89.7686 88.9965H88.2627V88.9863Z" fill="white"/>
<path d="M89.7891 88.9863C89.6047 88.9863 89.4818 88.9453 89.4203 88.8736C89.3589 88.7916 89.3281 88.6585 89.3281 88.4741C89.3281 88.2487 89.3589 88.095 89.4203 88.0233C89.4818 87.9516 89.6047 87.9209 89.7994 87.9209H91.3052C91.4896 87.9209 91.6228 87.9619 91.715 88.0336C91.8072 88.1053 91.8482 88.2385 91.8482 88.4331C91.8482 88.6585 91.8072 88.8121 91.715 88.8838C91.633 88.9556 91.4896 88.9965 91.295 88.9965H89.7891V88.9863Z" fill="white"/>
<path d="M91.3052 88.9863C91.1208 88.9863 90.9979 88.9453 90.9364 88.8736C90.875 88.7916 90.8442 88.6585 90.8442 88.4741C90.8442 88.2487 90.875 88.095 90.9364 88.0233C90.9979 87.9516 91.1208 87.9209 91.3155 87.9209H92.8213C93.0057 87.9209 93.1389 87.9619 93.2311 88.0336C93.3233 88.1053 93.3643 88.2385 93.3643 88.4331C93.3643 88.6585 93.3233 88.8121 93.2311 88.8838C93.1491 88.9556 93.0057 88.9965 92.8111 88.9965H91.3052V88.9863Z" fill="white"/>
<path d="M92.8316 88.9863C92.6472 88.9863 92.5243 88.9453 92.4628 88.8736C92.4013 88.7916 92.3706 88.6585 92.3706 88.4741C92.3706 88.2487 92.4013 88.095 92.4628 88.0233C92.5243 87.9516 92.6472 87.9209 92.8418 87.9209H94.3477C94.5321 87.9209 94.6653 87.9619 94.7575 88.0336C94.8497 88.1053 94.8906 88.2385 94.8906 88.4331C94.8906 88.6585 94.8497 88.8121 94.7575 88.8838C94.6755 88.9556 94.5321 88.9965 94.3375 88.9965H92.8316V88.9863Z" fill="white"/>
<path d="M98.5169 88.9863C98.2199 88.9863 97.9638 88.9249 97.7486 88.8122C97.5335 88.6995 97.3594 88.5151 97.2467 88.2795C97.0213 88.7507 96.5398 88.9966 95.8228 88.9966H94.3476C94.1632 88.9966 94.03 88.9658 93.9378 88.9044C93.8457 88.8429 93.8047 88.7098 93.8047 88.5254C93.8047 88.3 93.8457 88.1361 93.9378 88.0541C94.0198 87.9722 94.1632 87.9312 94.3579 87.9312H95.6281C95.8535 87.9312 96.0276 87.88 96.1301 87.7776C96.2325 87.6751 96.2837 87.4805 96.2837 87.2141V84.7248C96.2837 84.6326 96.3247 84.5917 96.4169 84.5917H97.2979C97.3901 84.5917 97.4311 84.6326 97.4311 84.7248V87.0092C97.4311 87.3166 97.5438 87.5522 97.7589 87.7058C97.974 87.8595 98.2711 87.9414 98.6399 87.9414H98.9779C99.2033 87.9414 99.3774 87.8902 99.4799 87.7878C99.5823 87.6853 99.6335 87.4907 99.6335 87.2244V84.7351C99.6335 84.6429 99.6745 84.6019 99.7667 84.6019H100.648C100.74 84.6019 100.781 84.6429 100.781 84.7351V87.0809C100.781 87.378 100.894 87.5931 101.119 87.7366C101.344 87.88 101.641 87.9517 102.01 87.9517H102.328C102.553 87.9517 102.727 87.9005 102.83 87.798C102.932 87.6956 102.983 87.501 102.983 87.2346V83.5673C102.983 83.4751 103.024 83.4341 103.117 83.4341H103.997C104.09 83.4341 104.131 83.4751 104.131 83.5673V87.0297C104.131 87.337 104.243 87.5727 104.469 87.7263C104.694 87.88 104.991 87.9619 105.37 87.9619H105.524C105.708 87.9619 105.841 88.0029 105.934 88.0746C106.026 88.1566 106.067 88.2795 106.067 88.4639C106.067 88.6995 106.026 88.8532 105.934 88.9249C105.852 88.9966 105.708 89.0273 105.514 89.0273H105.227C104.93 89.0273 104.684 88.9659 104.458 88.8532C104.243 88.7302 104.069 88.5561 103.957 88.3205C103.731 88.7917 103.25 89.0376 102.533 89.0376H101.877C101.58 89.0376 101.324 88.9761 101.109 88.8634C100.894 88.7507 100.719 88.5663 100.596 88.3307C100.371 88.8019 99.8896 89.0478 99.1725 89.0478H98.5169V88.9863Z" fill="white"/>
<path d="M105.524 88.9863C105.34 88.9863 105.217 88.9453 105.155 88.8736C105.094 88.7916 105.063 88.6585 105.063 88.4741C105.063 88.2487 105.094 88.095 105.155 88.0233C105.217 87.9516 105.34 87.9209 105.534 87.9209H107.04C107.224 87.9209 107.358 87.9619 107.45 88.0336C107.542 88.1053 107.583 88.2385 107.583 88.4331C107.583 88.6585 107.542 88.8121 107.45 88.8838C107.368 88.9556 107.224 88.9965 107.03 88.9965H105.524V88.9863Z" fill="white"/>
<path d="M107.05 88.9863C106.866 88.9863 106.743 88.9453 106.682 88.8736C106.62 88.7916 106.589 88.6585 106.589 88.4741C106.589 88.2487 106.62 88.095 106.682 88.0233C106.743 87.9516 106.866 87.9209 107.061 87.9209H108.566C108.751 87.9209 108.884 87.9619 108.976 88.0336C109.068 88.1053 109.109 88.2385 109.109 88.4331C109.109 88.6585 109.068 88.8121 108.976 88.8838C108.894 88.9556 108.751 88.9965 108.556 88.9965H107.05V88.9863Z" fill="white"/>
<path d="M108.566 88.9863C108.382 88.9863 108.259 88.9453 108.198 88.8736C108.136 88.7916 108.105 88.6585 108.105 88.4741C108.105 88.2487 108.136 88.095 108.198 88.0233C108.259 87.9516 108.382 87.9209 108.577 87.9209H110.083C110.267 87.9209 110.4 87.9619 110.492 88.0336C110.585 88.1053 110.626 88.2385 110.626 88.4331C110.626 88.6585 110.585 88.8121 110.492 88.8838C110.41 88.9556 110.267 88.9965 110.072 88.9965H108.566V88.9863Z" fill="white"/>
<path d="M112.5 83.3826H113.719C114.416 83.3826 114.979 83.5772 115.43 83.9767C115.87 84.366 116.096 84.9909 116.096 85.8309V86.6504C116.096 87.1114 116.055 87.4904 115.973 87.7875C115.891 88.0846 115.778 88.3304 115.614 88.5046C115.45 88.6787 115.245 88.8119 115 88.8836C114.754 88.9553 114.457 88.9963 114.108 88.9963H110.082C109.714 88.9963 109.529 88.8119 109.529 88.4431C109.529 88.2177 109.57 88.0743 109.662 88.0129C109.744 87.9514 109.888 87.9207 110.082 87.9207H113.688C113.944 87.9207 114.149 87.9002 114.303 87.8592C114.457 87.8182 114.58 87.7465 114.662 87.6543C114.744 87.5621 114.795 87.4289 114.825 87.2753C114.856 87.1216 114.866 86.927 114.866 86.6811V85.8309C114.866 84.9089 114.344 84.4479 113.309 84.4479H111.107C111.015 84.4479 110.974 84.407 110.974 84.3148V83.5465C110.974 83.5055 110.984 83.4543 111.025 83.4133C111.056 83.3723 111.086 83.3416 111.097 83.3211L114.098 79.7869C114.149 79.7254 114.211 79.7049 114.272 79.7459L114.928 80.2991C115 80.3503 115.02 80.422 114.979 80.4937L112.5 83.3826Z" fill="white"/>
<path d="M117.479 92.1515C117.407 92.0388 117.346 91.9159 117.305 91.7725C117.264 91.6291 117.233 91.4754 117.233 91.3013C117.233 91.1579 117.253 91.0042 117.305 90.8403C117.346 90.6764 117.427 90.533 117.54 90.3998C117.653 90.2666 117.796 90.1539 117.97 90.072C118.145 89.99 118.37 89.9388 118.636 89.9388C118.872 89.9388 119.087 89.9798 119.271 90.0618C119.456 90.1437 119.609 90.2666 119.712 90.4203C119.743 90.4818 119.743 90.533 119.712 90.5535L119.425 90.7891C119.364 90.8403 119.312 90.8506 119.271 90.8198C119.189 90.7276 119.097 90.6559 118.985 90.5945C118.872 90.533 118.749 90.5022 118.616 90.5022C118.36 90.5022 118.175 90.5842 118.052 90.7379C117.929 90.8915 117.868 91.0759 117.868 91.291C117.868 91.4959 117.919 91.6701 118.022 91.8135C118.124 91.9672 118.226 92.0798 118.329 92.1515H119.743C119.794 92.1515 119.825 92.1823 119.825 92.2437V92.6228C119.825 92.6842 119.794 92.715 119.743 92.715H116.956C116.905 92.715 116.874 92.6842 116.874 92.6228V92.2437C116.874 92.1823 116.905 92.1515 116.956 92.1515H117.479ZM118.944 88.853C118.944 88.9452 118.903 88.9861 118.81 88.9861H117.929C117.837 88.9861 117.796 88.9452 117.796 88.853V79.8075C117.796 79.7153 117.837 79.6743 117.929 79.6743H118.81C118.903 79.6743 118.944 79.7153 118.944 79.8075V88.853Z" fill="white"/>
<path d="M121.822 91.711C121.73 91.711 121.689 91.67 121.689 91.5778V90.7788C121.689 90.6866 121.73 90.6456 121.822 90.6456H123.471C123.656 90.6456 123.82 90.6251 123.984 90.5841C124.137 90.5431 124.27 90.4714 124.383 90.3792C124.496 90.287 124.588 90.1539 124.649 89.9797C124.711 89.8056 124.742 89.6007 124.742 89.3446V88.986H123.277C122.877 88.986 122.508 88.9348 122.191 88.8426C121.873 88.7504 121.587 88.5865 121.361 88.3817C121.136 88.1665 120.962 87.8797 120.839 87.5212C120.716 87.1626 120.665 86.7221 120.665 86.2099C120.665 85.6875 120.736 85.2367 120.869 84.8475C121.003 84.4582 121.197 84.1406 121.433 83.8845C121.668 83.6284 121.955 83.444 122.273 83.3211C122.59 83.1982 122.939 83.1367 123.297 83.1367C124.107 83.1367 124.742 83.3723 125.203 83.8435C125.664 84.3148 125.889 85.0728 125.889 86.128V89.3241C125.889 89.7544 125.828 90.1231 125.715 90.4202C125.602 90.7173 125.438 90.9734 125.233 91.1578C125.029 91.3524 124.783 91.4958 124.486 91.588C124.188 91.6802 123.871 91.7212 123.512 91.7212H121.822V91.711ZM123.297 84.2021C122.826 84.2021 122.468 84.3865 122.201 84.7553C121.935 85.1241 121.802 85.6055 121.802 86.2099C121.802 86.8553 121.935 87.306 122.191 87.5519C122.447 87.7977 122.836 87.9207 123.348 87.9207H124.731V86.128C124.731 85.5236 124.619 85.0523 124.393 84.7143C124.168 84.3762 123.809 84.2021 123.297 84.2021Z" fill="white"/>
<path d="M131.031 79.8075C131.031 79.7153 131.072 79.6743 131.165 79.6743H132.046C132.138 79.6743 132.179 79.7153 132.179 79.8075V87.1934C132.179 87.47 132.23 87.6544 132.332 87.7569C132.435 87.8593 132.599 87.9105 132.834 87.9105H133.439C133.808 87.9105 133.992 88.0949 133.992 88.4637C133.992 88.6891 133.951 88.8325 133.859 88.8939C133.767 88.9554 133.633 88.9861 133.439 88.9861H132.63C132.056 88.9861 131.646 88.8427 131.4 88.5661C131.154 88.2895 131.031 87.849 131.031 87.2549V79.8075Z" fill="white"/>
<path d="M132.886 88.4431C132.886 88.2177 132.927 88.0743 133.019 88.0129C133.101 87.9514 133.244 87.9207 133.439 87.9207H134.955V86.128C134.955 85.6055 135.017 85.1548 135.15 84.7758C135.283 84.3967 135.467 84.0894 135.693 83.8435C135.918 83.5977 136.195 83.4235 136.512 83.3109C136.83 83.1982 137.157 83.1367 137.516 83.1367C138.356 83.1367 139.001 83.3621 139.462 83.8231C139.923 84.284 140.149 84.9909 140.149 85.9641C140.149 86.3533 140.098 86.7221 139.985 87.0704C139.872 87.429 139.749 87.7056 139.596 87.9207H141.122C141.317 87.9207 141.45 87.9514 141.542 88.0129C141.624 88.0743 141.675 88.2177 141.675 88.4431C141.675 88.8119 141.491 88.9963 141.132 88.9963H139.749C139.944 89.2319 140.036 89.5495 140.036 89.9387C140.036 90.2153 139.985 90.4612 139.882 90.6968C139.78 90.9324 139.626 91.1271 139.421 91.3012C139.217 91.4754 138.96 91.6085 138.663 91.7007C138.366 91.8032 138.008 91.8544 137.598 91.8544C136.748 91.8544 136.102 91.6802 135.641 91.3422C135.191 91.0041 134.965 90.4714 134.965 89.7646V88.9963H133.449C133.07 88.9861 132.886 88.8017 132.886 88.4431ZM137.526 84.2021C137.086 84.2021 136.748 84.3558 136.492 84.6733C136.236 84.9806 136.113 85.4211 136.113 85.9743V87.9207H137.659C137.905 87.9207 138.11 87.8695 138.284 87.7568C138.448 87.6441 138.592 87.5007 138.704 87.3265C138.817 87.1524 138.889 86.9475 138.94 86.7221C138.981 86.4968 139.012 86.2816 139.012 86.0563C139.012 85.4621 138.889 85.0011 138.643 84.6836C138.387 84.366 138.018 84.2021 137.526 84.2021ZM137.537 90.7788C138.028 90.7788 138.377 90.6968 138.581 90.5431C138.786 90.3895 138.878 90.1641 138.878 89.8875C138.878 89.7851 138.868 89.6826 138.838 89.5802C138.807 89.4778 138.756 89.3753 138.684 89.2831C138.602 89.1909 138.499 89.1192 138.366 89.068C138.233 89.0168 138.059 88.986 137.854 88.986H136.113V89.7543C136.113 90.4407 136.584 90.7788 137.537 90.7788Z" fill="white"/>
<path d="M141.122 88.9863C140.937 88.9863 140.815 88.9453 140.753 88.8736C140.692 88.7916 140.661 88.6585 140.661 88.4741C140.661 88.2487 140.692 88.095 140.753 88.0233C140.815 87.9516 140.937 87.9209 141.132 87.9209H142.638C142.822 87.9209 142.956 87.9619 143.048 88.0336C143.14 88.1053 143.181 88.2385 143.181 88.4331C143.181 88.6585 143.14 88.8121 143.048 88.8838C142.966 88.9556 142.822 88.9965 142.628 88.9965H141.122V88.9863Z" fill="white"/>
<path d="M142.648 88.9863C142.464 88.9863 142.341 88.9453 142.279 88.8736C142.218 88.7916 142.187 88.6585 142.187 88.4741C142.187 88.2487 142.218 88.095 142.279 88.0233C142.341 87.9516 142.464 87.9209 142.659 87.9209H144.164C144.349 87.9209 144.482 87.9619 144.574 88.0336C144.666 88.1053 144.707 88.2385 144.707 88.4331C144.707 88.6585 144.666 88.8121 144.574 88.8838C144.492 88.9556 144.349 88.9965 144.154 88.9965H142.648V88.9863Z" fill="white"/>
<path d="M144.246 88.9862C144.062 88.9862 143.929 88.9555 143.837 88.894C143.744 88.8326 143.703 88.6994 143.703 88.515C143.703 88.2896 143.744 88.1257 143.837 88.0438C143.929 87.9618 144.062 87.9208 144.257 87.9208H145.117C145.342 87.9208 145.517 87.8696 145.619 87.7672C145.721 87.6647 145.773 87.4701 145.773 87.2038V83.5364C145.773 83.4442 145.814 83.4032 145.906 83.4032H146.787C146.879 83.4032 146.92 83.4442 146.92 83.5364V86.9989C146.92 87.3062 147.033 87.5418 147.258 87.6955C147.483 87.8491 147.78 87.9311 148.16 87.9311H148.323C148.508 87.9311 148.641 87.972 148.733 88.0438C148.825 88.1257 148.866 88.2486 148.866 88.433C148.866 88.6686 148.825 88.8223 148.733 88.894C148.651 88.9657 148.508 88.9965 148.313 88.9965H148.016C147.719 88.9965 147.463 88.935 147.248 88.8223C147.033 88.7096 146.859 88.5252 146.746 88.2896C146.52 88.7608 146.039 89.0067 145.322 89.0067H144.246V88.9862ZM145.875 82.0305C145.783 82.0305 145.742 81.9895 145.742 81.8973V80.8934C145.742 80.8012 145.783 80.7603 145.875 80.7603H146.807C146.9 80.7603 146.94 80.8012 146.94 80.8934V81.8973C146.94 81.9895 146.9 82.0305 146.807 82.0305H145.875Z" fill="white"/>
<path d="M148.221 88.9863C148.037 88.9863 147.914 88.9453 147.852 88.8736C147.791 88.7916 147.76 88.6585 147.76 88.4741C147.76 88.2487 147.791 88.095 147.852 88.0233C147.914 87.9516 148.037 87.9209 148.231 87.9209H149.737C149.922 87.9209 150.055 87.9619 150.147 88.0336C150.239 88.1053 150.28 88.2385 150.28 88.4331C150.28 88.6585 150.239 88.8121 150.147 88.8838C150.065 88.9556 149.922 88.9965 149.727 88.9965H148.221V88.9863Z" fill="white"/>
<path d="M149.747 88.9863C149.563 88.9863 149.44 88.9453 149.379 88.8736C149.317 88.7916 149.286 88.6585 149.286 88.4741C149.286 88.2487 149.317 88.095 149.379 88.0233C149.44 87.9516 149.563 87.9209 149.758 87.9209H151.263C151.448 87.9209 151.581 87.9619 151.673 88.0336C151.765 88.1053 151.806 88.2385 151.806 88.4331C151.806 88.6585 151.765 88.8121 151.673 88.8838C151.591 88.9556 151.448 88.9965 151.253 88.9965H149.747V88.9863Z" fill="white"/>
<path d="M151.263 88.9863C151.079 88.9863 150.956 88.9453 150.895 88.8736C150.833 88.7916 150.802 88.6585 150.802 88.4741C150.802 88.2487 150.833 88.095 150.895 88.0233C150.956 87.9516 151.079 87.9209 151.274 87.9209H152.78C152.964 87.9209 153.097 87.9619 153.189 88.0336C153.282 88.1053 153.323 88.2385 153.323 88.4331C153.323 88.6585 153.282 88.8121 153.189 88.8838C153.107 88.9556 152.964 88.9965 152.769 88.9965H151.263V88.9863Z" fill="white"/>
<path d="M152.79 88.9863C152.605 88.9863 152.483 88.9453 152.421 88.8736C152.36 88.7916 152.329 88.6585 152.329 88.4741C152.329 88.2487 152.36 88.095 152.421 88.0233C152.483 87.9516 152.605 87.9209 152.8 87.9209H154.306C154.49 87.9209 154.624 87.9619 154.716 88.0336C154.808 88.1053 154.849 88.2385 154.849 88.4331C154.849 88.6585 154.808 88.8121 154.716 88.8838C154.634 88.9556 154.49 88.9965 154.296 88.9965H152.79V88.9863Z" fill="white"/>
<path d="M154.306 88.9863C154.122 88.9863 153.999 88.9453 153.937 88.8736C153.876 88.7916 153.845 88.6585 153.845 88.4741C153.845 88.2487 153.876 88.095 153.937 88.0233C153.999 87.9516 154.122 87.9209 154.316 87.9209H155.822C156.006 87.9209 156.14 87.9619 156.232 88.0336C156.324 88.1053 156.365 88.2385 156.365 88.4331C156.365 88.6585 156.324 88.8121 156.232 88.8838C156.15 88.9556 156.006 88.9965 155.812 88.9965H154.306V88.9863Z" fill="white"/>
<path d="M155.822 88.9863C155.638 88.9863 155.515 88.9453 155.453 88.8736C155.392 88.7916 155.361 88.6585 155.361 88.4741C155.361 88.2487 155.392 88.095 155.453 88.0233C155.515 87.9516 155.638 87.9209 155.832 87.9209H157.338C157.523 87.9209 157.656 87.9619 157.748 88.0336C157.84 88.1053 157.881 88.2385 157.881 88.4331C157.881 88.6585 157.84 88.8121 157.748 88.8838C157.666 88.9556 157.523 88.9965 157.328 88.9965H155.822V88.9863Z" fill="white"/>
<path d="M157.338 88.9862C157.154 88.9862 157.021 88.9554 156.928 88.894C156.836 88.8325 156.795 88.6993 156.795 88.5149C156.795 88.2896 156.836 88.1257 156.928 88.0437C157.01 87.9618 157.154 87.9208 157.348 87.9208H158.209C158.434 87.9208 158.608 87.8696 158.711 87.7671C158.813 87.6647 158.864 87.47 158.864 87.2037V79.8177C158.864 79.7256 158.905 79.6846 158.998 79.6846H159.879C159.971 79.6846 160.012 79.7256 160.012 79.8177V86.9988C160.012 87.3061 160.124 87.5417 160.35 87.6954C160.575 87.8491 160.872 87.931 161.251 87.931H161.415C161.6 87.931 161.733 87.972 161.825 88.0437C161.917 88.1257 161.958 88.2486 161.958 88.433C161.958 88.6686 161.917 88.8223 161.825 88.894C161.743 88.9657 161.6 88.9964 161.405 88.9964H161.108C160.811 88.9964 160.565 88.9349 160.34 88.8222C160.124 88.6993 159.95 88.5252 159.838 88.2896C159.612 88.7608 159.131 89.0066 158.414 89.0066H157.338V88.9862Z" fill="white"/>
<path d="M161.405 88.9863C161.221 88.9863 161.098 88.9453 161.036 88.8736C160.975 88.7916 160.944 88.6585 160.944 88.4741C160.944 88.2487 160.975 88.095 161.036 88.0233C161.098 87.9516 161.221 87.9209 161.415 87.9209H162.921C163.106 87.9209 163.239 87.9619 163.331 88.0336C163.423 88.1053 163.464 88.2385 163.464 88.4331C163.464 88.6585 163.423 88.8121 163.331 88.8838C163.249 88.9556 163.106 88.9965 162.911 88.9965H161.405V88.9863Z" fill="white"/>
<path d="M162.921 88.9863C162.737 88.9863 162.614 88.9453 162.552 88.8736C162.491 88.7916 162.46 88.6585 162.46 88.4741C162.46 88.2487 162.491 88.095 162.552 88.0233C162.614 87.9516 162.737 87.9209 162.931 87.9209H164.437C164.622 87.9209 164.755 87.9619 164.847 88.0336C164.939 88.1053 164.98 88.2385 164.98 88.4331C164.98 88.6585 164.939 88.8121 164.847 88.8838C164.765 88.9556 164.622 88.9965 164.427 88.9965H162.921V88.9863Z" fill="white"/>
<path d="M164.448 88.9863C164.263 88.9863 164.14 88.9453 164.079 88.8736C164.017 88.7916 163.987 88.6585 163.987 88.4741C163.987 88.2487 164.017 88.095 164.079 88.0233C164.14 87.9516 164.263 87.9209 164.458 87.9209H165.964C166.148 87.9209 166.281 87.9619 166.373 88.0336C166.466 88.1053 166.507 88.2385 166.507 88.4331C166.507 88.6585 166.466 88.8121 166.373 88.8838C166.291 88.9556 166.148 88.9965 165.953 88.9965H164.448V88.9863Z" fill="white"/>
<path d="M165.964 88.9863C165.779 88.9863 165.656 88.9453 165.595 88.8736C165.533 88.7916 165.503 88.6585 165.503 88.4741C165.503 88.2487 165.533 88.095 165.595 88.0233C165.656 87.9516 165.779 87.9209 165.974 87.9209H167.48C167.664 87.9209 167.797 87.9619 167.89 88.0336C167.982 88.1053 168.023 88.2385 168.023 88.4331C168.023 88.6585 167.982 88.8121 167.89 88.8838C167.808 88.9556 167.664 88.9965 167.47 88.9965H165.964V88.9863Z" fill="white"/>
<path d="M167.49 88.9863C167.306 88.9863 167.183 88.9453 167.121 88.8736C167.06 88.7916 167.029 88.6585 167.029 88.4741C167.029 88.2487 167.06 88.095 167.121 88.0233C167.183 87.9516 167.306 87.9209 167.5 87.9209H169.006C169.191 87.9209 169.324 87.9619 169.416 88.0336C169.508 88.1053 169.549 88.2385 169.549 88.4331C169.549 88.6585 169.508 88.8121 169.416 88.8838C169.334 88.9556 169.191 88.9965 168.996 88.9965H167.49V88.9863Z" fill="white"/>
<path d="M175.306 87.9207C175.398 87.9207 175.439 87.9616 175.439 88.0538V88.8529C175.439 88.9451 175.398 88.9861 175.306 88.9861H168.986C168.617 88.9861 168.432 88.8017 168.432 88.4329C168.432 88.2075 168.473 88.0641 168.566 88.0026C168.647 87.9412 168.791 87.9104 168.986 87.9104H170.543C170.328 87.6953 170.143 87.4392 170 87.1114C169.856 86.7938 169.774 86.4046 169.774 85.9641C169.774 85.6772 169.815 85.3699 169.897 85.0421C169.979 84.7041 170.133 84.3967 170.358 84.1201C170.584 83.8435 170.881 83.5977 171.26 83.4133C171.639 83.2289 172.13 83.1367 172.725 83.1367C173.268 83.1367 173.729 83.2392 174.118 83.4338C174.507 83.6284 174.825 83.905 175.06 84.2533C175.101 84.325 175.091 84.3865 175.019 84.448L174.415 84.9397C174.343 84.9909 174.282 84.9909 174.22 84.9294C173.81 84.4582 173.288 84.2123 172.673 84.2123C172.11 84.2123 171.69 84.3762 171.413 84.7143C171.137 85.0523 171.004 85.4621 171.004 85.9641C171.004 86.3021 171.055 86.5889 171.168 86.8246C171.28 87.0602 171.403 87.2548 171.547 87.4187C171.69 87.5724 171.833 87.6953 171.977 87.767C172.12 87.849 172.233 87.9002 172.315 87.9207H175.306Z" fill="white"/>
<path d="M176.71 92.1515C176.638 92.0388 176.576 91.9159 176.535 91.7725C176.495 91.6291 176.464 91.4754 176.464 91.3013C176.464 91.1579 176.484 91.0042 176.535 90.8403C176.576 90.6764 176.658 90.533 176.771 90.3998C176.884 90.2666 177.027 90.1539 177.201 90.072C177.375 89.99 177.601 89.9388 177.867 89.9388C178.103 89.9388 178.318 89.9798 178.502 90.0618C178.687 90.1437 178.84 90.2666 178.943 90.4203C178.974 90.4818 178.974 90.533 178.943 90.5535L178.656 90.7891C178.595 90.8403 178.543 90.8506 178.502 90.8198C178.42 90.7276 178.328 90.6559 178.215 90.5945C178.103 90.533 177.98 90.5022 177.847 90.5022C177.591 90.5022 177.406 90.5842 177.283 90.7379C177.16 90.8915 177.099 91.0759 177.099 91.291C177.099 91.4959 177.15 91.6701 177.253 91.8135C177.355 91.9672 177.457 92.0798 177.56 92.1515H178.974C179.025 92.1515 179.055 92.1823 179.055 92.2437V92.6228C179.055 92.6842 179.025 92.715 178.974 92.715H176.187C176.136 92.715 176.105 92.6842 176.105 92.6228V92.2437C176.105 92.1823 176.136 92.1515 176.187 92.1515H176.71ZM178.174 88.853C178.174 88.9452 178.134 88.9861 178.041 88.9861H177.16C177.068 88.9861 177.027 88.9452 177.027 88.853V79.8075C177.027 79.7153 177.068 79.6743 177.16 79.6743H178.041C178.134 79.6743 178.174 79.7153 178.174 79.8075V88.853Z" fill="white"/>
</svg>
