<svg width="1106" height="2224" viewBox="0 0 1106 2224" fill="none" xmlns="http://www.w3.org/2000/svg">
<path d="M20.6316 54.0217C17.1406 55.9974 12.7076 54.7646 10.7289 51.2667C8.76022 47.7728 9.99298 43.3397 13.4869 41.371C16.9778 39.3953 21.4109 40.6281 23.3866 44.119C25.3583 47.6199 24.1255 52.053 20.6316 54.0217Z" fill="#F47820" fill-opacity="0.05"/>
<path d="M49.4606 35.7977C46.7838 37.3107 43.3872 36.3674 41.8743 33.6905C40.3583 31.0067 41.3086 27.6072 43.9854 26.0942C46.6623 24.5813 50.0618 25.5315 51.5748 28.2084C53.0877 30.8852 52.1405 34.2917 49.4606 35.7977Z" fill="#F47820" fill-opacity="0.05"/>
<path d="M75.4896 19.2838C73.5741 20.3648 71.1446 19.683 70.0567 17.7706C68.9857 15.8591 69.6575 13.4256 71.5729 12.3447C73.4884 11.2637 75.9149 11.9385 76.9958 13.8539C78.0867 15.7733 77.405 18.2028 75.4896 19.2838Z" fill="#F47820" fill-opacity="0.05"/>
<path d="M99.1641 4.44111C97.863 5.16934 96.2129 4.71415 95.4876 3.41996C94.7524 2.12179 95.2175 0.475658 96.5088 -0.256554C97.8069 -0.991737 99.4501 -0.533574 100.185 0.764599C100.92 2.06277 100.465 3.71289 99.1641 4.44111Z" fill="#F47820" fill-opacity="0.05"/>
<path d="M26.8367 142.784C22.1599 145.43 16.2207 143.771 13.5742 139.095C10.9318 134.408 12.5867 128.479 17.2635 125.832C21.9503 123.19 27.8865 124.842 30.533 129.518C33.1754 134.205 31.5234 140.141 26.8367 142.784Z" fill="#F47820" fill-opacity="0.05"/>
<path d="M58.9146 121.841C55.4236 123.816 50.9905 122.584 49.0119 119.086C47.0432 115.592 48.2759 111.159 51.7768 109.187C55.2678 107.211 59.7008 108.444 61.6695 111.938C63.6482 115.436 62.4055 119.865 58.9146 121.841Z" fill="#F47820" fill-opacity="0.05"/>
<path d="M87.7478 103.618C85.068 105.125 81.6715 104.181 80.1585 101.504C78.6455 98.8275 79.5958 95.428 82.2726 93.915C84.9495 92.4021 88.346 93.3454 89.862 96.0292C91.3749 98.706 90.4247 102.106 87.7478 103.618Z" fill="#F47820" fill-opacity="0.05"/>
<path d="M113.776 87.1004C111.86 88.1813 109.431 87.4996 108.346 85.5941C107.272 83.6757 107.944 81.2422 109.859 80.1612C111.775 79.0802 114.201 79.755 115.282 81.6705C116.373 83.5899 115.691 86.0194 113.776 87.1004Z" fill="#F47820" fill-opacity="0.05"/>
<path d="M137.451 72.2582C136.153 72.9934 134.5 72.5312 133.774 71.237C133.039 69.9389 133.504 68.2927 134.795 67.5605C136.094 66.8253 137.737 67.2835 138.472 68.5817C139.207 69.8798 138.749 71.523 137.451 72.2582Z" fill="#F47820" fill-opacity="0.05"/>
<path d="M159.383 58.8182C158.527 59.2988 157.444 58.9963 156.956 58.1435C156.479 57.2946 156.778 56.2044 157.634 55.7239C158.49 55.2434 159.573 55.5458 160.061 56.3987C160.541 57.2545 160.239 58.3377 159.383 58.8182Z" fill="#F47820" fill-opacity="0.05"/>
<path d="M180.122 46.402C179.564 46.7141 178.857 46.5224 178.542 45.9578C178.223 45.4032 178.422 44.6933 178.979 44.3812C179.544 44.0661 180.244 44.2608 180.566 44.8224C180.878 45.38 180.679 46.0899 180.122 46.402Z" fill="#F47820" fill-opacity="0.05"/>
<path d="M24.1176 237.591C17.8275 241.14 9.85494 238.918 6.30886 232.635C2.74987 226.341 4.97181 218.368 11.2619 214.819C17.5519 211.27 25.5245 213.492 29.0706 219.775C32.6266 226.062 30.4076 234.042 24.1176 237.591Z" fill="#F47820" fill-opacity="0.05"/>
<path d="M65.1236 210.601C60.4468 213.247 54.5076 211.588 51.8611 206.911C49.2216 202.232 50.8736 196.295 55.5504 193.649C60.2371 191.006 66.1734 192.658 68.8129 197.338C71.4623 202.022 69.8103 207.958 65.1236 210.601Z" fill="#F47820" fill-opacity="0.05"/>
<path d="M97.2007 189.657C93.7097 191.633 89.2767 190.4 87.298 186.902C85.3293 183.408 86.5621 178.975 90.0629 177.004C93.5539 175.028 97.987 176.261 99.9557 179.755C101.934 183.253 100.695 187.689 97.2007 189.657Z" fill="#F47820" fill-opacity="0.05"/>
<path d="M126.035 171.435C123.355 172.941 119.959 171.997 118.446 169.321C116.933 166.644 117.883 163.244 120.56 161.731C123.237 160.218 126.633 161.162 128.149 163.845C129.662 166.522 128.712 169.922 126.035 171.435Z" fill="#F47820" fill-opacity="0.05"/>
<path d="M152.063 154.917C150.148 155.998 147.721 155.324 146.633 153.411C145.559 151.493 146.231 149.059 148.146 147.978C150.062 146.897 152.488 147.572 153.569 149.488C154.66 151.407 153.978 153.836 152.063 154.917Z" fill="#F47820" fill-opacity="0.05"/>
<path d="M175.738 140.075C174.44 140.81 172.787 140.348 172.061 139.054C171.326 137.756 171.784 136.112 173.082 135.377C174.381 134.642 176.024 135.1 176.759 136.398C177.494 137.697 177.039 139.347 175.738 140.075Z" fill="#F47820" fill-opacity="0.05"/>
<path d="M197.667 126.637C196.811 127.117 195.728 126.815 195.247 125.959C194.769 125.11 195.062 124.023 195.918 123.542C196.774 123.062 197.857 123.364 198.344 124.217C198.825 125.073 198.522 126.156 197.667 126.637Z" fill="#F47820" fill-opacity="0.05"/>
<path d="M218.408 114.219C217.851 114.531 217.144 114.339 216.829 113.774C216.509 113.22 216.711 112.517 217.266 112.198C217.83 111.883 218.533 112.084 218.852 112.639C219.164 113.197 218.966 113.907 218.408 114.219Z" fill="#F47820" fill-opacity="0.05"/>
<path d="M15.7284 335.137C8.02089 339.489 -1.74475 336.766 -6.09339 329.065C-10.445 321.358 -7.72496 311.585 -0.021437 307.244C7.68607 302.892 17.4587 305.612 21.8073 313.313C26.149 321.016 23.4359 330.786 15.7284 335.137Z" fill="#F47820" fill-opacity="0.05"/>
<path d="M62.4041 305.407C56.114 308.956 48.1414 306.734 44.5954 300.451C41.0364 294.157 43.2583 286.185 49.5484 282.636C55.8355 279.08 63.811 281.308 67.3571 287.592C70.9131 293.879 68.6941 301.858 62.4041 305.407Z" fill="#F47820" fill-opacity="0.05"/>
<path d="M103.412 278.421C98.7253 281.064 92.7961 279.409 90.1466 274.725C87.5071 270.045 89.1591 264.109 93.8359 261.463C98.5227 258.82 104.462 260.479 107.101 265.159C109.748 269.836 108.096 275.772 103.412 278.421Z" fill="#F47820" fill-opacity="0.05"/>
<path d="M135.492 257.473C132.001 259.448 127.568 258.216 125.589 254.718C123.62 251.224 124.853 246.791 128.347 244.822C131.838 242.846 136.271 244.079 138.247 247.57C140.218 251.071 138.986 255.504 135.492 257.473Z" fill="#F47820" fill-opacity="0.05"/>
<path d="M164.323 239.252C161.643 240.758 158.246 239.815 156.733 237.138C155.22 234.461 156.17 231.062 158.847 229.549C161.524 228.036 164.921 228.979 166.437 231.663C167.95 234.34 166.999 237.739 164.323 239.252Z" fill="#F47820" fill-opacity="0.05"/>
<path d="M190.35 222.734C188.434 223.815 186.008 223.141 184.92 221.228C183.846 219.31 184.517 216.876 186.433 215.795C188.348 214.714 190.775 215.389 191.856 217.305C192.947 219.224 192.265 221.653 190.35 222.734Z" fill="#F47820" fill-opacity="0.05"/>
<path d="M214.024 207.892C212.726 208.627 211.073 208.165 210.348 206.871C209.612 205.572 210.071 203.929 211.369 203.194C212.667 202.459 214.31 202.917 215.045 204.215C215.78 205.513 215.325 207.163 214.024 207.892Z" fill="#F47820" fill-opacity="0.05"/>
<path d="M235.956 194.452C235.1 194.933 234.017 194.63 233.529 193.777C233.052 192.928 233.351 191.838 234.207 191.358C235.063 190.877 236.146 191.18 236.634 192.032C237.114 192.888 236.812 193.972 235.956 194.452Z" fill="#F47820" fill-opacity="0.05"/>
<path d="M256.695 182.036C256.137 182.348 255.43 182.156 255.115 181.591C254.796 181.037 254.995 180.327 255.552 180.015C256.117 179.7 256.82 179.901 257.139 180.456C257.451 181.014 257.252 181.723 256.695 182.036Z" fill="#F47820" fill-opacity="0.05"/>
<path d="M2.28662 435.316C-6.73993 440.412 -18.1855 437.222 -23.2782 428.202C-28.3769 419.169 -25.1937 407.726 -16.1671 402.63C-7.14056 397.535 4.30896 400.715 9.40467 409.742C14.5033 418.775 11.3132 430.221 2.28662 435.316Z" fill="#F47820" fill-opacity="0.05"/>
<path d="M54.0155 402.955C46.308 407.306 36.5424 404.583 32.1907 396.876C27.8421 389.175 30.5622 379.402 38.2657 375.061C45.9732 370.709 55.7458 373.429 60.0944 381.13C64.4361 388.833 61.723 398.603 54.0155 402.955Z" fill="#F47820" fill-opacity="0.05"/>
<path d="M100.691 373.224C94.4007 376.773 86.4282 374.551 82.8821 368.268C79.3231 361.974 81.5451 354.002 87.8351 350.453C94.1252 346.904 102.098 349.126 105.644 355.409C109.203 361.703 106.981 369.675 100.691 373.224Z" fill="#F47820" fill-opacity="0.05"/>
<path d="M141.699 346.238C137.012 348.881 131.083 347.226 128.433 342.542C125.794 337.862 127.446 331.926 132.123 329.28C136.809 326.637 142.748 328.296 145.388 332.976C148.034 337.653 146.382 343.589 141.699 346.238Z" fill="#F47820" fill-opacity="0.05"/>
<path d="M173.775 325.291C170.284 327.266 165.851 326.034 163.872 322.536C161.904 319.042 163.137 314.609 166.637 312.637C170.128 310.661 174.561 311.894 176.53 315.388C178.509 318.886 177.269 323.322 173.775 325.291Z" fill="#F47820" fill-opacity="0.05"/>
<path d="M202.609 307.069C199.932 308.582 196.532 307.632 195.019 304.955C193.506 302.278 194.457 298.878 197.134 297.365C199.81 295.853 203.207 296.796 204.723 299.48C206.236 302.156 205.286 305.556 202.609 307.069Z" fill="#F47820" fill-opacity="0.05"/>
<path d="M228.636 290.551C226.721 291.632 224.294 290.957 223.206 289.045C222.132 287.126 222.804 284.693 224.719 283.612C226.635 282.531 229.061 283.206 230.142 285.121C231.233 287.041 230.552 289.47 228.636 290.551Z" fill="#F47820" fill-opacity="0.05"/>
<path d="M252.311 275.709C251.013 276.444 249.362 275.989 248.634 274.688C247.899 273.389 248.357 271.746 249.655 271.011C250.954 270.276 252.597 270.734 253.332 272.032C254.067 273.33 253.612 274.981 252.311 275.709Z" fill="#F47820" fill-opacity="0.05"/>
<path d="M274.24 262.271C273.384 262.751 272.301 262.449 271.82 261.593C271.343 260.744 271.635 259.657 272.491 259.176C273.347 258.696 274.43 258.998 274.918 259.851C275.398 260.707 275.096 261.79 274.24 262.271Z" fill="#F47820" fill-opacity="0.05"/>
<path d="M294.982 249.853C294.424 250.165 293.717 249.973 293.402 249.409C293.083 248.854 293.285 248.151 293.84 247.832C294.404 247.517 295.107 247.718 295.426 248.273C295.738 248.831 295.54 249.541 294.982 249.853Z" fill="#F47820" fill-opacity="0.05"/>
<path d="M-16.5381 540.335C-27.6381 546.604 -41.7207 542.689 -47.9925 531.582C-54.2643 520.475 -50.3395 506.397 -39.2325 500.125C-28.1324 493.856 -14.0469 497.778 -7.78502 508.881C-1.51322 519.988 -5.43109 534.064 -16.5381 540.335Z" fill="#F47820" fill-opacity="0.05"/>
<path d="M40.574 503.133C31.5474 508.229 20.1019 505.039 15.0092 496.019C9.91047 486.986 13.0937 475.543 22.1202 470.447C31.1468 465.352 42.5963 468.532 47.695 477.566C52.7907 486.592 49.6005 498.038 40.574 503.133Z" fill="#F47820" fill-opacity="0.05"/>
<path d="M92.302 470.771C84.5945 475.123 74.8289 472.4 70.4802 464.699C66.1286 456.992 68.8486 447.219 76.5522 442.878C84.2597 438.526 94.0323 441.246 98.3809 448.947C102.723 456.65 100.01 466.42 92.302 470.771Z" fill="#F47820" fill-opacity="0.05"/>
<path d="M138.977 441.042C132.687 444.591 124.714 442.369 121.168 436.086C117.612 429.798 119.831 421.819 126.121 418.27C132.411 414.721 140.384 416.943 143.93 423.226C147.489 429.52 145.267 437.492 138.977 441.042Z" fill="#F47820" fill-opacity="0.05"/>
<path d="M179.985 414.056C175.298 416.698 169.369 415.043 166.723 410.366C164.08 405.68 165.732 399.743 170.409 397.097C175.096 394.454 181.035 396.113 183.674 400.793C186.321 405.47 184.669 411.406 179.985 414.056Z" fill="#F47820" fill-opacity="0.05"/>
<path d="M212.061 393.108C208.57 395.084 204.137 393.851 202.158 390.353C200.19 386.859 201.422 382.426 204.923 380.454C208.414 378.479 212.847 379.712 214.816 383.205C216.795 386.703 215.555 391.139 212.061 393.108Z" fill="#F47820" fill-opacity="0.05"/>
<path d="M240.896 374.887C238.219 376.4 234.819 375.449 233.306 372.773C231.793 370.096 232.744 366.696 235.42 365.183C238.097 363.67 241.494 364.614 243.01 367.297C244.523 369.974 243.572 373.374 240.896 374.887Z" fill="#F47820" fill-opacity="0.05"/>
<path d="M266.923 358.368C265.008 359.449 262.581 358.774 261.493 356.862C260.419 354.943 261.091 352.51 263.007 351.429C264.922 350.348 267.349 351.023 268.43 352.938C269.513 354.861 268.839 357.287 266.923 358.368Z" fill="#F47820" fill-opacity="0.05"/>
<path d="M290.598 343.526C289.3 344.261 287.65 343.806 286.921 342.505C286.186 341.206 286.644 339.563 287.942 338.828C289.241 338.093 290.884 338.551 291.619 339.849C292.354 341.147 291.899 342.797 290.598 343.526Z" fill="#F47820" fill-opacity="0.05"/>
<path d="M312.526 330.087C311.671 330.568 310.587 330.266 310.107 329.41C309.629 328.561 309.922 327.474 310.778 326.993C311.633 326.513 312.717 326.815 313.204 327.668C313.685 328.524 313.382 329.607 312.526 330.087Z" fill="#F47820" fill-opacity="0.05"/>
<path d="M333.269 317.669C332.711 317.982 332.004 317.79 331.692 317.232C331.37 316.671 331.571 315.968 332.126 315.649C332.691 315.334 333.394 315.535 333.713 316.09C334.025 316.648 333.826 317.357 333.269 317.669Z" fill="#F47820" fill-opacity="0.05"/>
<path d="M21.7484 608.152C10.6484 614.421 -3.4342 610.506 -9.70599 599.399C-15.9778 588.292 -12.053 574.214 -0.945957 567.942C10.1541 561.673 24.2396 565.595 30.5015 576.698C36.7733 587.805 32.8554 601.88 21.7484 608.152Z" fill="#F47820" fill-opacity="0.05"/>
<path d="M78.8604 570.95C69.8338 576.046 58.3883 572.856 53.2955 563.836C48.1998 554.809 51.3801 543.36 60.4066 538.264C69.4332 533.168 80.8827 536.349 85.9814 545.382C91.0771 554.409 87.8869 565.854 78.8604 570.95Z" fill="#F47820" fill-opacity="0.05"/>
<path d="M130.589 538.588C122.881 542.94 113.115 540.217 108.767 532.516C104.415 524.809 107.135 515.036 114.839 510.695C122.546 506.343 132.319 509.063 136.667 516.764C141.012 524.474 138.299 534.244 130.589 538.588Z" fill="#F47820" fill-opacity="0.05"/>
<path d="M177.264 508.858C170.974 512.407 163.002 510.185 159.449 503.905C155.899 497.615 158.118 489.636 164.408 486.086C170.699 482.537 178.671 484.759 182.217 491.042C185.776 497.337 183.554 505.309 177.264 508.858Z" fill="#F47820" fill-opacity="0.05"/>
<path d="M218.272 481.872C213.585 484.514 207.656 482.859 205.01 478.182C202.367 473.496 204.019 467.559 208.696 464.913C213.383 462.27 219.322 463.929 221.961 468.609C224.608 473.286 222.956 479.222 218.272 481.872Z" fill="#F47820" fill-opacity="0.05"/>
<path d="M250.35 460.929C246.856 462.897 242.423 461.664 240.447 458.174C238.478 454.68 239.711 450.247 243.209 448.268C246.703 446.299 251.136 447.532 253.105 451.026C255.08 454.517 253.841 458.953 250.35 460.929Z" fill="#F47820" fill-opacity="0.05"/>
<path d="M279.183 442.703C276.506 444.216 273.106 443.266 271.593 440.589C270.08 437.912 271.031 434.513 273.707 433C276.384 431.487 279.781 432.43 281.297 435.114C282.81 437.791 281.859 441.19 279.183 442.703Z" fill="#F47820" fill-opacity="0.05"/>
<path d="M305.209 426.185C303.294 427.266 300.868 426.591 299.78 424.679C298.706 422.761 299.377 420.327 301.293 419.246C303.208 418.165 305.635 418.84 306.716 420.755C307.807 422.675 307.125 425.104 305.209 426.185Z" fill="#F47820" fill-opacity="0.05"/>
<path d="M328.885 411.343C327.587 412.079 325.937 411.623 325.208 410.322C324.473 409.024 324.931 407.381 326.23 406.646C327.528 405.911 329.171 406.369 329.906 407.667C330.641 408.965 330.186 410.615 328.885 411.343Z" fill="#F47820" fill-opacity="0.05"/>
<path d="M350.813 397.904C349.957 398.385 348.874 398.083 348.393 397.227C347.916 396.378 348.208 395.291 349.064 394.81C349.92 394.33 351.003 394.632 351.491 395.485C351.971 396.341 351.669 397.424 350.813 397.904Z" fill="#F47820" fill-opacity="0.05"/>
<path d="M371.555 385.487C370.998 385.799 370.291 385.607 369.976 385.043C369.657 384.488 369.858 383.785 370.413 383.466C370.97 383.154 371.68 383.352 371.999 383.907C372.312 384.465 372.113 385.175 371.555 385.487Z" fill="#F47820" fill-opacity="0.05"/>
<path d="M-4.43749 716.84C-17.4112 724.172 -33.8697 719.586 -41.1947 706.609C-48.5266 693.635 -43.943 677.17 -30.9633 669.852C-17.9895 662.52 -1.53113 667.106 5.79388 680.083C13.1259 693.057 8.53923 709.515 -4.43749 716.84Z" fill="#F47820" fill-opacity="0.05"/>
<path d="M60.0366 675.973C48.9366 682.242 34.8511 678.32 28.5823 667.22C22.3105 656.113 26.2323 642.027 37.3423 635.763C48.4423 629.494 62.5249 633.409 68.7897 644.519C75.0586 655.619 71.1407 669.694 60.0366 675.973Z" fill="#F47820" fill-opacity="0.05"/>
<path d="M117.148 638.77C108.118 643.859 96.6758 640.676 91.5801 631.649C86.4844 622.623 89.6676 611.18 98.6912 606.078C107.721 600.989 119.17 604.169 124.266 613.196C129.362 622.222 126.174 633.675 117.148 638.77Z" fill="#F47820" fill-opacity="0.05"/>
<path d="M168.876 606.406C161.168 610.757 151.406 608.041 147.054 600.334C142.702 592.626 145.422 582.854 153.126 578.512C160.833 574.16 170.606 576.88 174.955 584.581C179.299 592.291 176.583 602.054 168.876 606.406Z" fill="#F47820" fill-opacity="0.05"/>
<path d="M215.551 576.675C209.261 580.224 201.288 578.002 197.742 571.719C194.186 565.432 196.405 557.453 202.695 553.903C208.985 550.354 216.958 552.576 220.504 558.859C224.063 565.153 221.841 573.126 215.551 576.675Z" fill="#F47820" fill-opacity="0.05"/>
<path d="M256.559 549.69C251.872 552.332 245.943 550.677 243.296 546C240.654 541.314 242.306 535.377 246.986 532.738C251.67 530.088 257.609 531.747 260.248 536.427C262.895 541.104 261.243 547.04 256.559 549.69Z" fill="#F47820" fill-opacity="0.05"/>
<path d="M288.637 528.745C285.143 530.714 280.71 529.481 278.734 525.99C276.765 522.496 277.998 518.063 281.496 516.085C284.99 514.116 289.423 515.349 291.392 518.843C293.367 522.333 292.128 526.77 288.637 528.745Z" fill="#F47820" fill-opacity="0.05"/>
<path d="M317.469 510.52C314.792 512.033 311.393 511.083 309.88 508.406C308.367 505.729 309.317 502.33 311.994 500.817C314.671 499.304 318.067 500.247 319.583 502.931C321.096 505.608 320.146 509.007 317.469 510.52Z" fill="#F47820" fill-opacity="0.05"/>
<path d="M343.497 494.002C341.581 495.083 339.155 494.408 338.067 492.496C336.986 490.58 337.665 488.144 339.58 487.063C341.495 485.982 343.922 486.657 345.003 488.572C346.087 490.495 345.412 492.921 343.497 494.002Z" fill="#F47820" fill-opacity="0.05"/>
<path d="M367.168 479.162C365.869 479.897 364.226 479.439 363.491 478.141C362.756 476.842 363.221 475.196 364.512 474.464C365.817 473.726 367.463 474.191 368.189 475.485C368.924 476.783 368.469 478.433 367.168 479.162Z" fill="#F47820" fill-opacity="0.05"/>
<path d="M389.1 465.722C388.245 466.202 387.161 465.9 386.681 465.044C386.203 464.195 386.496 463.108 387.352 462.627C388.207 462.147 389.291 462.449 389.778 463.302C390.259 464.158 389.956 465.241 389.1 465.722Z" fill="#F47820" fill-opacity="0.05"/>
<path d="M409.843 453.304C409.285 453.616 408.578 453.425 408.266 452.867C407.944 452.305 408.146 451.602 408.7 451.283C409.265 450.968 409.968 451.17 410.287 451.725C410.599 452.282 410.4 452.992 409.843 453.304Z" fill="#F47820" fill-opacity="0.05"/>
<path d="M33.8514 784.661C20.8746 791.986 4.4192 787.406 -2.90582 774.43C-10.2378 761.456 -5.65414 744.99 7.32259 737.665C20.2963 730.333 36.7577 734.927 44.0827 747.904C51.4147 760.878 46.8281 777.336 33.8514 784.661Z" fill="#F47820" fill-opacity="0.05"/>
<path d="M98.3221 743.786C87.2221 750.055 73.1395 746.14 66.8677 735.033C60.5989 723.933 64.5208 709.847 75.6208 703.579C86.7278 697.307 100.813 701.229 107.075 712.332C113.347 723.439 109.429 737.514 98.3221 743.786Z" fill="#F47820" fill-opacity="0.05"/>
<path d="M155.434 706.584C146.407 711.68 134.962 708.489 129.869 699.47C124.77 690.436 127.953 678.994 136.98 673.898C146.007 668.802 157.456 671.983 162.555 681.016C167.647 690.036 164.46 701.488 155.434 706.584Z" fill="#F47820" fill-opacity="0.05"/>
<path d="M207.163 674.226C199.456 678.577 189.69 675.854 185.338 668.147C180.99 660.446 183.71 650.674 191.41 646.325C199.118 641.974 208.89 644.694 213.239 652.394C217.584 660.105 214.871 669.874 207.163 674.226Z" fill="#F47820" fill-opacity="0.05"/>
<path d="M253.837 644.492C247.547 648.041 239.577 645.826 236.021 639.539C232.469 633.242 234.691 625.269 240.981 621.72C247.272 618.171 255.244 620.393 258.793 626.683C262.346 632.963 260.127 640.943 253.837 644.492Z" fill="#F47820" fill-opacity="0.05"/>
<path d="M294.846 617.507C290.159 620.149 284.23 618.494 281.58 613.811C278.941 609.131 280.596 603.202 285.269 600.548C289.956 597.906 295.892 599.558 298.535 604.244C301.181 608.921 299.532 614.864 294.846 617.507Z" fill="#F47820" fill-opacity="0.05"/>
<path d="M326.921 596.559C323.43 598.534 318.997 597.302 317.019 593.804C315.05 590.31 316.283 585.877 319.784 583.905C323.275 581.929 327.708 583.162 329.676 586.656C331.655 590.154 330.412 594.583 326.921 596.559Z" fill="#F47820" fill-opacity="0.05"/>
<path d="M355.756 578.337C353.079 579.85 349.675 578.91 348.169 576.23C346.651 573.539 347.604 570.147 350.281 568.634C352.957 567.121 356.354 568.064 357.87 570.748C359.383 573.425 358.433 576.824 355.756 578.337Z" fill="#F47820" fill-opacity="0.05"/>
<path d="M381.784 561.82C379.868 562.901 377.439 562.219 376.354 560.313C375.28 558.395 375.952 555.962 377.867 554.881C379.783 553.8 382.212 554.481 383.293 556.397C384.374 558.312 383.699 560.739 381.784 561.82Z" fill="#F47820" fill-opacity="0.05"/>
<path d="M405.46 546.981C404.159 547.709 402.509 547.254 401.783 545.959C401.045 544.654 401.506 543.018 402.805 542.283C404.103 541.548 405.746 542.006 406.478 543.297C407.216 544.602 406.754 546.255 405.46 546.981Z" fill="#F47820" fill-opacity="0.05"/>
<path d="M427.387 533.539C426.534 534.026 425.451 533.724 424.971 532.868C424.49 532.012 424.786 530.932 425.638 530.445C426.494 529.964 427.577 530.266 428.065 531.119C428.545 531.975 428.243 533.058 427.387 533.539Z" fill="#F47820" fill-opacity="0.05"/>
<path d="M448.131 521.124C447.573 521.437 446.863 521.238 446.551 520.68C446.232 520.126 446.431 519.416 446.985 519.097C447.546 518.792 448.253 518.983 448.572 519.538C448.884 520.096 448.685 520.805 448.131 521.124Z" fill="#F47820" fill-opacity="0.05"/>
<path d="M72.1364 852.474C59.1626 859.806 42.7042 855.22 35.3792 842.243C28.0472 829.269 32.6338 812.811 45.6076 805.479C58.5843 798.154 75.0427 802.74 82.3677 815.717C89.6997 828.691 85.1131 845.149 72.1364 852.474Z" fill="#F47820" fill-opacity="0.05"/>
<path d="M136.61 811.607C125.51 817.875 111.425 813.953 105.156 802.853C98.8841 791.746 102.806 777.661 113.916 771.396C125.016 765.127 139.099 769.042 145.363 780.152C151.632 791.252 147.717 805.335 136.61 811.607Z" fill="#F47820" fill-opacity="0.05"/>
<path d="M193.722 774.405C184.692 779.493 173.25 776.31 168.154 767.284C163.051 758.26 166.241 746.814 175.265 741.712C184.295 736.623 195.744 739.803 200.84 748.83C205.935 757.856 202.748 769.309 193.722 774.405Z" fill="#F47820" fill-opacity="0.05"/>
<path d="M245.449 742.039C237.741 746.391 227.976 743.668 223.627 735.967C219.278 728.267 221.998 718.494 229.699 714.146C237.407 709.794 247.179 712.514 251.528 720.215C255.869 727.918 253.156 737.688 245.449 742.039Z" fill="#F47820" fill-opacity="0.05"/>
<path d="M292.126 712.312C285.833 715.854 277.863 713.639 274.31 707.359C270.758 701.062 272.98 693.089 279.267 689.533C285.557 685.984 293.532 688.213 297.079 694.496C300.635 700.783 298.416 708.763 292.126 712.312Z" fill="#F47820" fill-opacity="0.05"/>
<path d="M333.131 685.32C328.447 687.969 322.515 686.307 319.869 681.631C317.226 676.944 318.881 671.015 323.558 668.368C328.245 665.726 334.181 667.378 336.82 672.057C339.47 676.741 337.818 682.677 333.131 685.32Z" fill="#F47820" fill-opacity="0.05"/>
<path d="M365.21 664.379C361.719 666.355 357.286 665.122 355.307 661.624C353.339 658.13 354.571 653.697 358.072 651.726C361.563 649.75 365.996 650.983 367.965 654.477C369.944 657.975 368.701 662.404 365.21 664.379Z" fill="#F47820" fill-opacity="0.05"/>
<path d="M394.044 646.158C391.364 647.664 387.967 646.72 386.455 644.044C384.939 641.36 385.889 637.96 388.566 636.447C391.243 634.934 394.642 635.885 396.158 638.568C397.671 641.245 396.721 644.645 394.044 646.158Z" fill="#F47820" fill-opacity="0.05"/>
<path d="M420.072 629.64C418.153 630.714 415.727 630.04 414.639 628.127C413.565 626.209 414.24 623.782 416.155 622.701C418.071 621.62 420.497 622.295 421.578 624.21C422.659 626.126 421.987 628.559 420.072 629.64Z" fill="#F47820" fill-opacity="0.05"/>
<path d="M443.741 614.795C442.44 615.523 440.8 615.072 440.065 613.774C439.33 612.476 439.795 610.83 441.086 610.097C442.394 609.366 444.034 609.817 444.762 611.119C445.498 612.417 445.042 614.067 443.741 614.795Z" fill="#F47820" fill-opacity="0.05"/>
<path d="M465.675 601.359C464.819 601.84 463.736 601.537 463.256 600.682C462.775 599.826 463.071 598.745 463.926 598.265C464.782 597.784 465.862 598.08 466.35 598.933C466.83 599.789 466.528 600.872 465.675 601.359Z" fill="#F47820" fill-opacity="0.05"/>
<path d="M486.416 588.938C485.861 589.257 485.151 589.058 484.836 588.494C484.517 587.939 484.716 587.229 485.273 586.917C485.831 586.605 486.538 586.797 486.86 587.358C487.172 587.916 486.973 588.626 486.416 588.938Z" fill="#F47820" fill-opacity="0.05"/>
<path d="M110.424 920.295C97.4478 927.62 80.9923 923.04 73.6673 910.063C66.3353 897.09 70.919 880.624 83.8957 873.299C96.8724 865.974 113.331 870.561 120.656 883.537C127.988 896.511 123.401 912.97 110.424 920.295Z" fill="#F47820" fill-opacity="0.05"/>
<path d="M174.895 879.42C163.798 885.696 149.713 881.774 143.441 870.667C137.172 859.567 141.094 845.481 152.194 839.212C163.301 832.941 177.386 836.863 183.648 847.966C189.92 859.073 186.002 873.148 174.895 879.42Z" fill="#F47820" fill-opacity="0.05"/>
<path d="M232.007 842.218C222.98 847.314 211.538 844.13 206.442 835.104C201.343 826.07 204.527 814.628 213.553 809.532C222.58 804.436 234.029 807.617 239.128 816.65C244.224 825.677 241.033 837.122 232.007 842.218Z" fill="#F47820" fill-opacity="0.05"/>
<path d="M283.737 809.86C276.03 814.211 266.264 811.488 261.913 803.781C257.564 796.08 260.284 786.307 267.985 781.959C275.692 777.607 285.465 780.327 289.813 788.028C294.158 795.738 291.445 805.508 283.737 809.86Z" fill="#F47820" fill-opacity="0.05"/>
<path d="M330.411 780.126C324.121 783.675 316.151 781.46 312.595 775.173C309.043 768.876 311.265 760.903 317.555 757.354C323.845 753.805 331.818 756.027 335.367 762.317C338.92 768.597 336.701 776.577 330.411 780.126Z" fill="#F47820" fill-opacity="0.05"/>
<path d="M371.42 753.141C366.733 755.783 360.797 754.131 358.154 749.444C355.515 744.765 357.17 738.835 361.844 736.182C366.53 733.54 372.47 735.198 375.109 739.878C377.756 744.555 376.106 750.498 371.42 753.141Z" fill="#F47820" fill-opacity="0.05"/>
<path d="M403.496 732.193C400.005 734.169 395.572 732.936 393.593 729.438C391.624 725.944 392.857 721.511 396.358 719.54C399.842 717.567 404.282 718.797 406.251 722.291C408.229 725.789 406.99 730.225 403.496 732.193Z" fill="#F47820" fill-opacity="0.05"/>
<path d="M432.33 713.971C429.653 715.484 426.249 714.544 424.743 711.864C423.227 709.18 424.177 705.781 426.854 704.268C429.531 702.755 432.928 703.698 434.444 706.382C435.957 709.059 435.006 712.458 432.33 713.971Z" fill="#F47820" fill-opacity="0.05"/>
<path d="M458.357 697.454C456.441 698.535 454.015 697.86 452.927 695.948C451.853 694.029 452.525 691.596 454.44 690.515C456.356 689.434 458.785 690.115 459.866 692.031C460.947 693.946 460.272 696.373 458.357 697.454Z" fill="#F47820" fill-opacity="0.05"/>
<path d="M482.03 682.616C480.728 683.344 479.085 682.886 478.353 681.595C477.615 680.29 478.083 678.651 479.374 677.919C480.672 677.183 482.323 677.639 483.048 678.933C483.786 680.238 483.331 681.888 482.03 682.616Z" fill="#F47820" fill-opacity="0.05"/>
<path d="M503.961 669.173C503.108 669.66 502.025 669.358 501.544 668.502C501.064 667.646 501.359 666.566 502.212 666.078C503.068 665.598 504.151 665.9 504.639 666.753C505.119 667.609 504.817 668.692 503.961 669.173Z" fill="#F47820" fill-opacity="0.05"/>
<path d="M524.704 656.758C524.146 657.071 523.437 656.872 523.124 656.314C522.805 655.76 523.004 655.05 523.559 654.731C524.119 654.426 524.826 654.617 525.145 655.172C525.46 655.736 525.259 656.439 524.704 656.758Z" fill="#F47820" fill-opacity="0.05"/>
<path d="M148.709 988.109C135.736 995.441 119.273 990.864 111.952 977.877C104.62 964.903 109.207 948.445 122.181 941.113C135.157 933.788 151.616 938.375 158.941 951.351C166.273 964.325 161.686 980.784 148.709 988.109Z" fill="#F47820" fill-opacity="0.05"/>
<path d="M213.184 947.241C202.084 953.509 187.999 949.587 181.73 938.487C175.458 927.38 179.38 913.295 190.483 907.033C201.59 900.761 215.672 904.676 221.937 915.786C228.209 926.893 224.291 940.969 213.184 947.241Z" fill="#F47820" fill-opacity="0.05"/>
<path d="M270.295 910.039C261.266 915.127 249.823 911.944 244.727 902.918C239.625 893.894 242.815 882.448 251.838 877.346C260.868 872.257 272.317 875.437 277.406 884.467C282.509 893.49 279.322 904.943 270.295 910.039Z" fill="#F47820" fill-opacity="0.05"/>
<path d="M322.022 877.673C314.315 882.025 304.549 879.302 300.2 871.602C295.852 863.901 298.572 854.128 306.272 849.78C313.98 845.428 323.752 848.148 328.101 855.849C332.443 863.552 329.73 873.322 322.022 877.673Z" fill="#F47820" fill-opacity="0.05"/>
<path d="M368.699 847.946C362.406 851.488 354.436 849.273 350.883 842.993C347.331 836.696 349.553 828.723 355.84 825.167C362.133 821.625 370.106 823.847 373.652 830.13C377.208 836.417 374.989 844.397 368.699 847.946Z" fill="#F47820" fill-opacity="0.05"/>
<path d="M409.707 820.961C405.021 823.603 399.081 821.944 396.442 817.265C393.802 812.585 395.454 806.649 400.131 804.002C404.818 801.36 410.754 803.012 413.397 807.698C416.043 812.375 414.391 818.311 409.707 820.961Z" fill="#F47820" fill-opacity="0.05"/>
<path d="M441.783 800.014C438.292 801.99 433.859 800.757 431.881 797.259C429.912 793.765 431.145 789.332 434.646 787.361C438.13 785.388 442.57 786.618 444.538 790.112C446.517 793.609 445.274 798.039 441.783 800.014Z" fill="#F47820" fill-opacity="0.05"/>
<path d="M470.617 781.792C467.941 783.305 464.541 782.354 463.028 779.678C461.512 776.994 462.462 773.594 465.139 772.081C467.819 770.575 471.216 771.519 472.732 774.202C474.245 776.879 473.294 780.279 470.617 781.792Z" fill="#F47820" fill-opacity="0.05"/>
<path d="M496.645 765.274C494.727 766.348 492.3 765.673 491.212 763.761C490.132 761.846 490.813 759.416 492.729 758.335C494.644 757.254 497.071 757.929 498.152 759.844C499.233 761.76 498.561 764.193 496.645 765.274Z" fill="#F47820" fill-opacity="0.05"/>
<path d="M520.315 750.429C519.017 751.164 517.374 750.706 516.638 749.408C515.903 748.11 516.368 746.464 517.66 745.732C518.961 745.003 520.608 745.452 521.336 746.753C522.074 748.058 521.616 749.701 520.315 750.429Z" fill="#F47820" fill-opacity="0.05"/>
<path d="M542.248 736.993C541.393 737.474 540.309 737.171 539.829 736.316C539.348 735.46 539.644 734.38 540.5 733.899C541.355 733.418 542.436 733.714 542.923 734.567C543.404 735.423 543.101 736.506 542.248 736.993Z" fill="#F47820" fill-opacity="0.05"/>
<path d="M562.99 724.572C562.435 724.891 561.725 724.692 561.41 724.128C561.091 723.573 561.293 722.87 561.847 722.551C562.405 722.239 563.115 722.438 563.434 722.992C563.746 723.55 563.547 724.26 562.99 724.572Z" fill="#F47820" fill-opacity="0.05"/>
<path d="M186.997 1055.93C174.021 1063.25 157.565 1058.67 150.24 1045.7C142.908 1032.72 147.492 1016.26 160.469 1008.93C173.445 1001.61 189.904 1006.19 197.229 1019.17C204.561 1032.15 199.974 1048.6 186.997 1055.93Z" fill="#F47820" fill-opacity="0.05"/>
<path d="M251.469 1015.05C240.372 1021.33 226.287 1017.41 220.015 1006.3C213.746 995.201 217.668 981.116 228.771 974.854C239.875 968.575 253.96 972.497 260.225 983.607C266.494 994.707 262.576 1008.78 251.469 1015.05Z" fill="#F47820" fill-opacity="0.05"/>
<path d="M308.581 977.852C299.554 982.948 288.112 979.765 283.016 970.738C277.91 961.708 281.101 950.262 290.127 945.166C299.154 940.071 310.603 943.251 315.695 952.287C320.798 961.311 317.61 972.763 308.581 977.852Z" fill="#F47820" fill-opacity="0.05"/>
<path d="M360.31 945.493C352.603 949.845 342.837 947.122 338.489 939.421C334.137 931.714 336.857 921.941 344.558 917.593C352.265 913.241 362.038 915.961 366.389 923.669C370.731 931.372 368.018 941.142 360.31 945.493Z" fill="#F47820" fill-opacity="0.05"/>
<path d="M406.985 915.76C400.695 919.309 392.725 917.094 389.169 910.807C385.617 904.51 387.839 896.538 394.129 892.988C400.419 889.439 408.392 891.661 411.941 897.951C415.497 904.238 413.275 912.211 406.985 915.76Z" fill="#F47820" fill-opacity="0.05"/>
<path d="M447.993 888.774C443.306 891.417 437.37 889.765 434.73 885.085C432.081 880.401 433.743 874.469 438.416 871.815C443.103 869.173 449.042 870.832 451.682 875.512C454.328 880.189 452.679 886.132 447.993 888.774Z" fill="#F47820" fill-opacity="0.05"/>
<path d="M480.072 867.834C476.578 869.803 472.145 868.57 470.166 865.072C468.198 861.578 469.43 857.145 472.931 855.173C476.415 853.201 480.855 854.43 482.824 857.924C484.796 861.425 483.563 865.858 480.072 867.834Z" fill="#F47820" fill-opacity="0.05"/>
<path d="M508.903 849.605C506.226 851.118 502.829 850.175 501.316 847.498C499.8 844.814 500.751 841.414 503.427 839.901C506.104 838.388 509.501 839.332 511.017 842.016C512.53 844.692 511.579 848.092 508.903 849.605Z" fill="#F47820" fill-opacity="0.05"/>
<path d="M534.931 833.088C533.015 834.169 530.589 833.494 529.501 831.581C528.42 829.666 529.098 827.23 531.014 826.149C532.932 825.075 535.359 825.749 536.44 827.665C537.521 829.58 536.846 832.007 534.931 833.088Z" fill="#F47820" fill-opacity="0.05"/>
<path d="M558.603 818.25C557.302 818.978 555.662 818.527 554.927 817.229C554.189 815.924 554.657 814.285 555.948 813.552C557.246 812.817 558.896 813.272 559.621 814.567C560.36 815.872 559.904 817.522 558.603 818.25Z" fill="#F47820" fill-opacity="0.05"/>
<path d="M580.534 804.807C579.681 805.294 578.598 804.992 578.117 804.136C577.637 803.28 577.932 802.2 578.785 801.712C579.644 801.239 580.724 801.534 581.212 802.387C581.692 803.243 581.39 804.326 580.534 804.807Z" fill="#F47820" fill-opacity="0.05"/>
<path d="M601.278 792.392C600.72 792.705 600.01 792.506 599.698 791.948C599.379 791.394 599.578 790.684 600.132 790.365C600.693 790.06 601.4 790.251 601.719 790.806C602.034 791.37 601.832 792.073 601.278 792.392Z" fill="#F47820" fill-opacity="0.05"/>
<path d="M225.286 1123.75C212.309 1131.07 195.847 1126.5 188.529 1113.52C181.197 1100.54 185.781 1084.08 198.754 1076.75C211.731 1069.42 228.189 1074.01 235.514 1086.98C242.846 1099.96 238.26 1116.42 225.286 1123.75Z" fill="#F47820" fill-opacity="0.05"/>
<path d="M289.757 1082.87C278.657 1089.14 264.574 1085.23 258.303 1074.12C252.031 1063.01 255.953 1048.93 267.056 1042.67C278.156 1036.4 292.245 1040.31 298.51 1051.42C304.782 1062.53 300.857 1076.61 289.757 1082.87Z" fill="#F47820" fill-opacity="0.05"/>
<path d="M346.869 1045.67C337.839 1050.76 326.397 1047.58 321.304 1038.56C316.198 1029.53 319.389 1018.08 328.412 1012.98C337.442 1007.89 348.891 1011.07 353.98 1020.1C359.083 1029.12 355.895 1040.58 346.869 1045.67Z" fill="#F47820" fill-opacity="0.05"/>
<path d="M398.596 1013.31C390.889 1017.66 381.123 1014.94 376.775 1007.24C372.426 999.535 375.146 989.762 382.847 985.414C390.554 981.062 400.327 983.782 404.675 991.483C409.017 999.186 406.304 1008.96 398.596 1013.31Z" fill="#F47820" fill-opacity="0.05"/>
<path d="M445.273 983.581C438.98 987.123 431.01 984.908 427.457 978.628C423.905 972.331 426.127 964.358 432.414 960.802C438.707 957.26 446.68 959.482 450.226 965.765C453.782 972.052 451.563 980.032 445.273 983.581Z" fill="#F47820" fill-opacity="0.05"/>
<path d="M486.28 956.594C481.594 959.237 475.654 957.578 473.015 952.898C470.368 948.221 472.027 942.282 476.704 939.636C481.391 936.993 487.327 938.645 489.97 943.332C492.616 948.009 490.964 953.945 486.28 956.594Z" fill="#F47820" fill-opacity="0.05"/>
<path d="M518.357 935.647C514.866 937.623 510.433 936.39 508.454 932.892C506.486 929.399 507.718 924.965 511.219 922.994C514.703 921.021 519.143 922.251 521.112 925.745C523.091 929.243 521.848 933.672 518.357 935.647Z" fill="#F47820" fill-opacity="0.05"/>
<path d="M547.191 917.426C544.514 918.938 541.107 917.991 539.601 915.311C538.085 912.628 539.036 909.228 541.712 907.715C544.392 906.209 547.789 907.152 549.305 909.836C550.818 912.513 549.867 915.913 547.191 917.426Z" fill="#F47820" fill-opacity="0.05"/>
<path d="M573.218 900.908C571.3 901.982 568.873 901.307 567.785 899.395C566.705 897.479 567.386 895.05 569.302 893.969C571.217 892.888 573.644 893.563 574.725 895.478C575.806 897.394 575.134 899.827 573.218 900.908Z" fill="#F47820" fill-opacity="0.05"/>
<path d="M596.888 886.063C595.59 886.798 593.947 886.34 593.215 885.049C592.477 883.744 592.942 882.098 594.233 881.365C595.534 880.637 597.181 881.085 597.909 882.386C598.648 883.692 598.189 885.335 596.888 886.063Z" fill="#F47820" fill-opacity="0.05"/>
<path d="M618.822 872.627C617.967 873.107 616.883 872.805 616.403 871.949C615.922 871.093 616.218 870.013 617.074 869.533C617.93 869.052 619.01 869.347 619.497 870.2C619.978 871.056 619.675 872.139 618.822 872.627Z" fill="#F47820" fill-opacity="0.05"/>
<path d="M639.563 860.206C639.008 860.525 638.298 860.326 637.983 859.761C637.664 859.207 637.866 858.504 638.42 858.185C638.978 857.873 639.688 858.071 640.007 858.626C640.319 859.184 640.12 859.894 639.563 860.206Z" fill="#F47820" fill-opacity="0.05"/>
<path d="M263.571 1191.56C250.594 1198.89 234.132 1194.31 226.814 1181.33C219.482 1168.36 224.065 1151.89 237.042 1144.57C250.019 1137.24 266.477 1141.83 273.802 1154.8C281.134 1167.78 276.548 1184.24 263.571 1191.56Z" fill="#F47820" fill-opacity="0.05"/>
<path d="M328.043 1150.69C316.946 1156.96 302.86 1153.04 296.588 1141.93C290.32 1130.83 294.241 1116.75 305.344 1110.49C316.448 1104.21 330.534 1108.13 336.799 1119.24C343.068 1130.34 339.15 1144.42 328.043 1150.69Z" fill="#F47820" fill-opacity="0.05"/>
<path d="M385.154 1113.49C376.127 1118.58 364.685 1115.4 359.589 1106.37C354.483 1097.34 357.676 1085.9 366.7 1080.8C375.727 1075.7 387.176 1078.88 392.275 1087.92C397.371 1096.94 394.183 1108.4 385.154 1113.49Z" fill="#F47820" fill-opacity="0.05"/>
<path d="M436.884 1081.13C429.177 1085.48 419.411 1082.76 415.062 1075.06C410.711 1067.35 413.431 1057.58 421.131 1053.23C428.839 1048.88 438.612 1051.6 442.963 1059.3C447.305 1067.01 444.592 1076.78 436.884 1081.13Z" fill="#F47820" fill-opacity="0.05"/>
<path d="M483.558 1051.39C477.268 1054.94 469.298 1052.73 465.742 1046.44C462.193 1040.15 464.415 1032.18 470.702 1028.62C476.992 1025.07 484.965 1027.3 488.514 1033.59C492.07 1039.87 489.851 1047.85 483.558 1051.39Z" fill="#F47820" fill-opacity="0.05"/>
<path d="M524.565 1024.41C519.879 1027.05 513.942 1025.4 511.303 1020.72C508.654 1016.04 510.315 1010.1 514.992 1007.46C519.676 1004.81 525.615 1006.47 528.255 1011.15C530.901 1015.82 529.252 1021.77 524.565 1024.41Z" fill="#F47820" fill-opacity="0.05"/>
<path d="M556.642 1003.46C553.151 1005.44 548.718 1004.2 546.739 1000.71C544.77 997.212 546.003 992.779 549.504 990.807C552.988 988.834 557.431 990.071 559.397 993.558C561.369 997.059 560.136 1001.49 556.642 1003.46Z" fill="#F47820" fill-opacity="0.05"/>
<path d="M585.476 985.239C582.799 986.752 579.403 985.808 577.89 983.131C576.374 980.448 577.324 977.048 580.001 975.535C582.678 974.022 586.074 974.966 587.593 977.656C589.103 980.326 588.153 983.726 585.476 985.239Z" fill="#F47820" fill-opacity="0.05"/>
<path d="M611.504 968.721C609.588 969.802 607.162 969.127 606.074 967.215C604.993 965.299 605.672 962.863 607.587 961.782C609.506 960.708 611.932 961.383 613.013 963.298C614.094 965.213 613.419 967.64 611.504 968.721Z" fill="#F47820" fill-opacity="0.05"/>
<path d="M635.176 953.884C633.875 954.612 632.235 954.161 631.5 952.863C630.765 951.564 631.23 949.918 632.521 949.186C633.822 948.458 635.462 948.909 636.198 950.207C636.933 951.505 636.478 953.156 635.176 953.884Z" fill="#F47820" fill-opacity="0.05"/>
<path d="M657.107 940.44C656.254 940.928 655.171 940.625 654.69 939.769C654.21 938.914 654.505 937.833 655.358 937.346C656.217 936.872 657.297 937.168 657.784 938.021C658.265 938.877 657.963 939.96 657.107 940.44Z" fill="#F47820" fill-opacity="0.05"/>
<path d="M677.85 928.026C677.293 928.338 676.583 928.139 676.271 927.582C675.952 927.027 676.15 926.317 676.708 926.005C677.265 925.693 677.972 925.885 678.291 926.439C678.606 927.004 678.405 927.707 677.85 928.026Z" fill="#F47820" fill-opacity="0.05"/>
<path d="M301.859 1259.38C288.882 1266.71 272.427 1262.13 265.102 1249.15C257.77 1236.18 262.354 1219.71 275.33 1212.39C288.304 1205.06 304.762 1209.64 312.09 1222.63C319.422 1235.6 314.833 1252.05 301.859 1259.38Z" fill="#F47820" fill-opacity="0.05"/>
<path d="M366.331 1218.51C355.231 1224.78 341.149 1220.86 334.877 1209.76C328.605 1198.65 332.527 1184.56 343.63 1178.3C354.737 1172.03 368.813 1175.95 375.084 1187.05C381.356 1198.16 377.431 1212.24 366.331 1218.51Z" fill="#F47820" fill-opacity="0.05"/>
<path d="M423.442 1181.31C414.413 1186.4 402.97 1183.21 397.877 1174.19C392.779 1165.16 395.962 1153.72 404.986 1148.61C414.015 1143.52 425.465 1146.71 430.556 1155.74C435.656 1164.76 432.469 1176.21 423.442 1181.31Z" fill="#F47820" fill-opacity="0.05"/>
<path d="M475.172 1148.95C467.465 1153.3 457.696 1150.57 453.347 1142.87C448.999 1135.17 451.719 1125.4 459.419 1121.05C467.127 1116.7 476.899 1119.42 481.248 1127.12C485.59 1134.82 482.877 1144.59 475.172 1148.95Z" fill="#F47820" fill-opacity="0.05"/>
<path d="M521.847 1119.21C515.557 1122.76 507.584 1120.54 504.031 1114.26C500.479 1107.96 502.701 1099.99 508.988 1096.44C515.281 1092.89 523.253 1095.12 526.803 1101.41C530.356 1107.69 528.137 1115.67 521.847 1119.21Z" fill="#F47820" fill-opacity="0.05"/>
<path d="M562.854 1092.23C558.167 1094.87 552.228 1093.21 549.588 1088.53C546.942 1083.86 548.601 1077.92 553.278 1075.27C557.964 1072.63 563.901 1074.28 566.543 1078.97C569.19 1083.64 567.538 1089.58 562.854 1092.23Z" fill="#F47820" fill-opacity="0.05"/>
<path d="M594.931 1071.28C591.44 1073.26 587.007 1072.02 585.028 1068.53C583.059 1065.03 584.292 1060.6 587.793 1058.63C591.277 1056.65 595.717 1057.88 597.686 1061.38C599.657 1064.88 598.422 1069.31 594.931 1071.28Z" fill="#F47820" fill-opacity="0.05"/>
<path d="M623.764 1053.06C621.087 1054.57 617.681 1053.63 616.175 1050.95C614.659 1048.26 615.609 1044.86 618.282 1043.36C620.966 1041.84 624.362 1042.79 625.878 1045.47C627.391 1048.15 626.441 1051.55 623.764 1053.06Z" fill="#F47820" fill-opacity="0.05"/>
<path d="M649.792 1036.54C647.876 1037.62 645.447 1036.94 644.359 1035.03C643.278 1033.11 643.96 1030.68 645.875 1029.6C647.791 1028.52 650.217 1029.2 651.298 1031.11C652.379 1033.03 651.707 1035.46 649.792 1036.54Z" fill="#F47820" fill-opacity="0.05"/>
<path d="M673.462 1021.7C672.164 1022.43 670.52 1021.97 669.788 1020.68C669.05 1019.38 669.515 1017.73 670.806 1017C672.108 1016.27 673.758 1016.73 674.483 1018.02C675.221 1019.33 674.763 1020.97 673.462 1021.7Z" fill="#F47820" fill-opacity="0.05"/>
<path d="M695.395 1008.26C694.539 1008.74 693.456 1008.44 692.976 1007.58C692.495 1006.73 692.791 1005.65 693.647 1005.17C694.502 1004.69 695.583 1004.98 696.07 1005.83C696.551 1006.69 696.248 1007.77 695.395 1008.26Z" fill="#F47820" fill-opacity="0.05"/>
<path d="M716.136 995.839C715.581 996.158 714.871 995.96 714.559 995.402C714.237 994.84 714.439 994.138 714.993 993.818C715.551 993.506 716.261 993.705 716.58 994.26C716.892 994.817 716.693 995.527 716.136 995.839Z" fill="#F47820" fill-opacity="0.05"/>
<path d="M340.145 1327.2C327.168 1334.52 310.705 1329.94 303.387 1316.96C296.055 1303.99 300.632 1287.53 313.616 1280.2C326.592 1272.88 343.051 1277.46 350.376 1290.44C357.708 1303.41 353.121 1319.87 340.145 1327.2Z" fill="#F47820" fill-opacity="0.05"/>
<path d="M404.616 1286.32C393.519 1292.6 379.433 1288.68 373.165 1277.58C366.893 1266.47 370.815 1252.38 381.918 1246.12C393.022 1239.84 407.107 1243.76 413.372 1254.87C419.641 1265.97 415.716 1280.05 404.616 1286.32Z" fill="#F47820" fill-opacity="0.05"/>
<path d="M461.728 1249.12C452.701 1254.22 441.259 1251.03 436.163 1242.01C431.06 1232.98 434.25 1221.54 443.274 1216.43C452.3 1211.34 463.753 1214.53 468.842 1223.56C473.944 1232.58 470.757 1244.03 461.728 1249.12Z" fill="#F47820" fill-opacity="0.05"/>
<path d="M513.458 1216.76C505.751 1221.11 495.985 1218.39 491.636 1210.69C487.285 1202.98 490.005 1193.21 497.705 1188.86C505.413 1184.51 515.178 1187.23 519.537 1194.94C523.879 1202.64 521.166 1212.41 513.458 1216.76Z" fill="#F47820" fill-opacity="0.05"/>
<path d="M560.131 1187.03C553.841 1190.58 545.871 1188.36 542.315 1182.08C538.766 1175.79 540.988 1167.81 547.275 1164.26C553.565 1160.71 561.538 1162.93 565.087 1169.22C568.643 1175.51 566.424 1183.49 560.131 1187.03Z" fill="#F47820" fill-opacity="0.05"/>
<path d="M601.14 1160.04C596.453 1162.69 590.517 1161.03 587.877 1156.35C585.228 1151.67 586.89 1145.74 591.566 1143.09C596.25 1140.44 602.189 1142.1 604.829 1146.78C607.468 1151.46 605.826 1157.4 601.14 1160.04Z" fill="#F47820" fill-opacity="0.05"/>
<path d="M633.218 1139.1C629.724 1141.07 625.291 1139.84 623.313 1136.34C621.344 1132.85 622.577 1128.41 626.078 1126.44C629.562 1124.47 634.004 1125.71 635.973 1129.2C637.942 1132.69 636.709 1137.13 633.218 1139.1Z" fill="#F47820" fill-opacity="0.05"/>
<path d="M662.05 1120.87C659.373 1122.39 655.969 1121.45 654.463 1118.77C652.947 1116.08 653.898 1112.68 656.567 1111.17C659.251 1109.66 662.651 1110.61 664.167 1113.29C665.68 1115.97 664.726 1119.36 662.05 1120.87Z" fill="#F47820" fill-opacity="0.05"/>
<path d="M688.077 1104.36C686.162 1105.44 683.735 1104.76 682.647 1102.85C681.566 1100.93 682.245 1098.5 684.161 1097.42C686.079 1096.34 688.506 1097.02 689.587 1098.93C690.668 1100.85 689.993 1103.27 688.077 1104.36Z" fill="#F47820" fill-opacity="0.05"/>
<path d="M711.75 1089.52C710.449 1090.25 708.809 1089.79 708.074 1088.5C707.338 1087.2 707.804 1085.55 709.095 1084.82C710.396 1084.09 712.036 1084.54 712.771 1085.84C713.506 1087.14 713.051 1088.79 711.75 1089.52Z" fill="#F47820" fill-opacity="0.05"/>
<path d="M733.68 1076.07C732.827 1076.56 731.744 1076.26 731.264 1075.4C730.783 1074.55 731.079 1073.47 731.931 1072.98C732.79 1072.51 733.87 1072.8 734.358 1073.65C734.838 1074.51 734.536 1075.59 733.68 1076.07Z" fill="#F47820" fill-opacity="0.05"/>
<path d="M754.424 1063.66C753.867 1063.97 753.157 1063.77 752.845 1063.22C752.526 1062.66 752.724 1061.95 753.282 1061.64C753.839 1061.33 754.546 1061.52 754.865 1062.07C755.18 1062.64 754.979 1063.34 754.424 1063.66Z" fill="#F47820" fill-opacity="0.05"/>
<path d="M378.432 1395.02C365.455 1402.34 348.993 1397.77 341.675 1384.79C334.343 1371.81 338.92 1355.35 351.903 1348.02C364.877 1340.69 381.335 1345.28 388.66 1358.25C395.995 1371.23 391.406 1387.68 378.432 1395.02Z" fill="#F47820" fill-opacity="0.05"/>
<path d="M442.905 1354.14C431.804 1360.41 417.722 1356.5 411.45 1345.39C405.178 1334.28 409.1 1320.2 420.203 1313.94C431.31 1307.66 445.389 1311.59 451.658 1322.69C457.929 1333.8 454.005 1347.87 442.905 1354.14Z" fill="#F47820" fill-opacity="0.05"/>
<path d="M500.016 1316.94C490.99 1322.04 479.544 1318.85 474.452 1309.83C469.346 1300.8 472.536 1289.35 481.56 1284.25C490.589 1279.16 502.039 1282.34 507.13 1291.38C512.23 1300.39 509.043 1311.84 500.016 1316.94Z" fill="#F47820" fill-opacity="0.05"/>
<path d="M551.746 1284.58C544.039 1288.93 534.273 1286.21 529.922 1278.5C525.573 1270.8 528.293 1261.03 535.994 1256.68C543.701 1252.33 553.467 1255.05 557.822 1262.75C562.167 1270.46 559.454 1280.23 551.746 1284.58Z" fill="#F47820" fill-opacity="0.05"/>
<path d="M598.419 1254.85C592.129 1258.4 584.157 1256.18 580.604 1249.9C577.052 1243.6 579.274 1235.63 585.561 1232.07C591.854 1228.53 599.826 1230.75 603.375 1237.04C606.928 1243.32 604.709 1251.3 598.419 1254.85Z" fill="#F47820" fill-opacity="0.05"/>
<path d="M639.427 1227.86C634.74 1230.5 628.804 1228.85 626.162 1224.17C623.515 1219.49 625.174 1213.55 629.851 1210.9C634.538 1208.26 640.474 1209.91 643.117 1214.6C645.763 1219.28 644.111 1225.21 639.427 1227.86Z" fill="#F47820" fill-opacity="0.05"/>
<path d="M671.503 1206.91C668.012 1208.89 663.579 1207.66 661.601 1204.16C659.632 1200.67 660.865 1196.23 664.366 1194.26C667.85 1192.29 672.29 1193.52 674.258 1197.01C676.23 1200.51 674.994 1204.94 671.503 1206.91Z" fill="#F47820" fill-opacity="0.05"/>
<path d="M700.338 1188.69C697.661 1190.21 694.255 1189.26 692.749 1186.58C691.233 1183.9 692.183 1180.5 694.856 1178.99C697.54 1177.48 700.936 1178.42 702.452 1181.1C703.965 1183.78 703.015 1187.18 700.338 1188.69Z" fill="#F47820" fill-opacity="0.05"/>
<path d="M726.362 1172.18C724.447 1173.26 722.018 1172.58 720.937 1170.66C719.856 1168.75 720.53 1166.32 722.446 1165.24C724.361 1164.16 726.795 1164.83 727.876 1166.74C728.957 1168.66 728.278 1171.1 726.362 1172.18Z" fill="#F47820" fill-opacity="0.05"/>
<path d="M750.038 1157.34C748.737 1158.07 747.093 1157.61 746.361 1156.32C745.623 1155.01 746.091 1153.37 747.379 1152.63C748.681 1151.9 750.324 1152.36 751.056 1153.65C751.794 1154.96 751.336 1156.6 750.038 1157.34Z" fill="#F47820" fill-opacity="0.05"/>
<path d="M771.968 1143.89C771.115 1144.38 770.029 1144.07 769.549 1143.22C769.068 1142.36 769.364 1141.28 770.22 1140.8C771.075 1140.32 772.156 1140.62 772.643 1141.47C773.124 1142.32 772.821 1143.41 771.968 1143.89Z" fill="#F47820" fill-opacity="0.05"/>
<path d="M792.71 1131.47C792.155 1131.79 791.445 1131.59 791.133 1131.04C790.811 1130.48 791.012 1129.77 791.567 1129.45C792.128 1129.15 792.835 1129.34 793.154 1129.89C793.466 1130.45 793.267 1131.16 792.71 1131.47Z" fill="#F47820" fill-opacity="0.05"/>
<path d="M416.718 1462.83C403.744 1470.16 387.279 1465.58 379.961 1452.6C372.629 1439.63 377.206 1423.16 390.189 1415.84C403.166 1408.51 419.624 1413.1 426.949 1426.07C434.281 1439.05 429.695 1455.51 416.718 1462.83Z" fill="#F47820" fill-opacity="0.05"/>
<path d="M481.19 1421.96C470.093 1428.23 456.008 1424.31 449.739 1413.21C443.467 1402.1 447.389 1388.02 458.492 1381.76C469.592 1375.49 483.681 1379.4 489.946 1390.51C496.215 1401.61 492.29 1415.69 481.19 1421.96Z" fill="#F47820" fill-opacity="0.05"/>
<path d="M538.302 1384.75C529.275 1389.85 517.832 1386.67 512.737 1377.64C507.634 1368.62 510.824 1357.17 519.848 1352.07C528.874 1346.97 540.327 1350.16 545.416 1359.19C550.518 1368.21 547.331 1379.67 538.302 1384.75Z" fill="#F47820" fill-opacity="0.05"/>
<path d="M590.031 1352.4C582.324 1356.75 572.558 1354.02 568.209 1346.32C563.858 1338.62 566.578 1328.84 574.278 1324.5C581.986 1320.14 591.751 1322.87 596.11 1330.57C600.452 1338.27 597.732 1348.05 590.031 1352.4Z" fill="#F47820" fill-opacity="0.05"/>
<path d="M636.705 1322.66C630.415 1326.21 622.446 1324 618.89 1317.71C615.341 1311.42 617.563 1303.45 623.85 1299.89C630.14 1296.34 638.115 1298.57 641.661 1304.85C645.21 1311.14 642.998 1319.12 636.705 1322.66Z" fill="#F47820" fill-opacity="0.05"/>
<path d="M677.713 1295.68C673.029 1298.33 667.09 1296.67 664.451 1291.99C661.801 1287.3 663.463 1281.37 668.14 1278.72C672.824 1276.08 678.763 1277.73 681.402 1282.41C684.045 1287.1 682.4 1293.03 677.713 1295.68Z" fill="#F47820" fill-opacity="0.05"/>
<path d="M709.792 1274.74C706.301 1276.71 701.865 1275.47 699.887 1271.97C697.918 1268.48 699.151 1264.05 702.645 1262.08C706.139 1260.11 710.579 1261.34 712.547 1264.83C714.519 1268.33 713.283 1272.76 709.792 1274.74Z" fill="#F47820" fill-opacity="0.05"/>
<path d="M738.623 1256.51C735.947 1258.02 732.543 1257.08 731.037 1254.4C729.521 1251.72 730.471 1248.32 733.141 1246.81C735.825 1245.29 739.225 1246.24 740.741 1248.92C742.254 1251.6 741.3 1254.99 738.623 1256.51Z" fill="#F47820" fill-opacity="0.05"/>
<path d="M764.651 1239.99C762.735 1241.07 760.302 1240.4 759.221 1238.48C758.14 1236.57 758.818 1234.13 760.737 1233.06C762.652 1231.98 765.079 1232.65 766.16 1234.57C767.241 1236.48 766.569 1238.92 764.651 1239.99Z" fill="#F47820" fill-opacity="0.05"/>
<path d="M788.324 1225.15C787.023 1225.88 785.383 1225.43 784.647 1224.13C783.912 1222.83 784.377 1221.19 785.669 1220.45C786.97 1219.73 788.61 1220.18 789.345 1221.48C790.08 1222.77 789.625 1224.42 788.324 1225.15Z" fill="#F47820" fill-opacity="0.05"/>
<path d="M810.254 1211.71C809.402 1212.2 808.318 1211.89 807.838 1211.04C807.357 1210.18 807.653 1209.1 808.506 1208.61C809.364 1208.14 810.445 1208.44 810.932 1209.29C811.413 1210.14 811.11 1211.23 810.254 1211.71Z" fill="#F47820" fill-opacity="0.05"/>
<path d="M830.998 1199.29C830.443 1199.61 829.73 1199.41 829.418 1198.85C829.099 1198.3 829.298 1197.59 829.855 1197.27C830.413 1196.96 831.12 1197.15 831.439 1197.71C831.754 1198.27 831.553 1198.98 830.998 1199.29Z" fill="#F47820" fill-opacity="0.05"/>
<path d="M455.007 1530.65C442.03 1537.98 425.567 1533.4 418.249 1520.42C410.917 1507.45 415.494 1490.98 428.478 1483.66C441.452 1476.32 457.91 1480.91 465.238 1493.89C472.57 1506.87 467.98 1523.32 455.007 1530.65Z" fill="#F47820" fill-opacity="0.05"/>
<path d="M519.477 1489.78C508.377 1496.05 494.295 1492.13 488.023 1481.02C481.754 1469.92 485.676 1455.84 496.776 1449.57C507.883 1443.3 521.968 1447.22 528.23 1458.32C534.502 1469.43 530.577 1483.51 519.477 1489.78Z" fill="#F47820" fill-opacity="0.05"/>
<path d="M576.589 1452.57C567.563 1457.67 556.117 1454.48 551.025 1445.46C545.919 1436.43 549.109 1424.98 558.136 1419.89C567.162 1414.79 578.612 1417.97 583.704 1427.01C588.803 1436.03 585.616 1447.48 576.589 1452.57Z" fill="#F47820" fill-opacity="0.05"/>
<path d="M628.32 1420.22C620.612 1424.57 610.846 1421.84 606.495 1414.14C602.146 1406.44 604.866 1396.66 612.567 1392.31C620.267 1387.97 630.04 1390.69 634.389 1398.39C638.74 1406.09 636.027 1415.86 628.32 1420.22Z" fill="#F47820" fill-opacity="0.05"/>
<path d="M674.993 1390.48C668.703 1394.03 660.73 1391.81 657.177 1385.53C653.625 1379.23 655.847 1371.26 662.137 1367.71C668.427 1364.16 676.4 1366.38 679.949 1372.67C683.495 1378.96 681.283 1386.93 674.993 1390.48Z" fill="#F47820" fill-opacity="0.05"/>
<path d="M716.001 1363.5C711.314 1366.14 705.378 1364.49 702.736 1359.8C700.089 1355.12 701.748 1349.18 706.425 1346.54C711.112 1343.9 717.048 1345.55 719.69 1350.23C722.337 1354.91 720.688 1360.85 716.001 1363.5Z" fill="#F47820" fill-opacity="0.05"/>
<path d="M748.077 1342.55C744.586 1344.53 740.153 1343.29 738.174 1339.79C736.206 1336.3 737.438 1331.87 740.932 1329.9C744.423 1327.92 748.863 1329.15 750.832 1332.65C752.804 1336.15 751.568 1340.57 748.077 1342.55Z" fill="#F47820" fill-opacity="0.05"/>
<path d="M776.911 1324.33C774.234 1325.84 770.828 1324.89 769.322 1322.21C767.806 1319.53 768.759 1316.14 771.436 1314.62C774.113 1313.11 777.51 1314.05 779.025 1316.74C780.538 1319.42 779.588 1322.81 776.911 1324.33Z" fill="#F47820" fill-opacity="0.05"/>
<path d="M802.936 1307.81C801.02 1308.89 798.591 1308.21 797.51 1306.3C796.429 1304.38 797.104 1301.95 799.019 1300.87C800.934 1299.79 803.371 1300.47 804.449 1302.38C805.533 1304.3 804.851 1306.73 802.936 1307.81Z" fill="#F47820" fill-opacity="0.05"/>
<path d="M826.612 1292.97C825.311 1293.7 823.668 1293.24 822.935 1291.95C822.197 1290.65 822.665 1289.01 823.954 1288.27C825.255 1287.54 826.898 1288 827.63 1289.29C828.368 1290.59 827.91 1292.24 826.612 1292.97Z" fill="#F47820" fill-opacity="0.05"/>
<path d="M848.543 1279.53C847.69 1280.02 846.604 1279.71 846.123 1278.85C845.646 1278 845.941 1276.92 846.794 1276.43C847.65 1275.95 848.73 1276.25 849.218 1277.1C849.698 1277.96 849.396 1279.04 848.543 1279.53Z" fill="#F47820" fill-opacity="0.05"/>
<path d="M869.286 1267.11C868.728 1267.43 868.018 1267.23 867.699 1266.67C867.384 1266.11 867.586 1265.41 868.14 1265.09C868.708 1264.78 869.408 1264.97 869.727 1265.53C870.039 1266.09 869.84 1266.8 869.286 1267.11Z" fill="#F47820" fill-opacity="0.05"/>
<path d="M493.291 1598.47C480.317 1605.8 463.852 1601.21 456.534 1588.23C449.202 1575.26 453.782 1558.8 466.762 1551.47C479.739 1544.14 496.198 1548.73 503.523 1561.71C510.848 1574.68 506.268 1591.14 493.291 1598.47Z" fill="#F47820" fill-opacity="0.05"/>
<path d="M557.766 1557.6C546.666 1563.87 532.581 1559.94 526.312 1548.84C520.04 1537.74 523.962 1523.65 535.065 1517.39C546.165 1511.12 560.248 1515.04 566.519 1526.14C572.788 1537.24 568.863 1551.32 557.766 1557.6Z" fill="#F47820" fill-opacity="0.05"/>
<path d="M614.878 1520.39C605.848 1525.48 594.406 1522.3 589.303 1513.28C584.207 1504.25 587.397 1492.8 596.421 1487.7C605.448 1482.61 616.9 1485.79 621.989 1494.82C627.092 1503.85 623.904 1515.3 614.878 1520.39Z" fill="#F47820" fill-opacity="0.05"/>
<path d="M666.604 1488.03C658.897 1492.38 649.131 1489.66 644.783 1481.96C640.431 1474.25 643.151 1464.48 650.852 1460.13C658.552 1455.78 668.325 1458.5 672.683 1466.2C677.025 1473.91 674.312 1483.68 666.604 1488.03Z" fill="#F47820" fill-opacity="0.05"/>
<path d="M713.281 1458.3C706.988 1461.84 699.019 1459.63 695.463 1453.34C691.914 1447.05 694.136 1439.08 700.423 1435.52C706.713 1431.97 714.688 1434.2 718.234 1440.49C721.79 1446.77 719.571 1454.75 713.281 1458.3Z" fill="#F47820" fill-opacity="0.05"/>
<path d="M754.287 1431.31C749.603 1433.96 743.664 1432.3 741.024 1427.62C738.375 1422.94 740.037 1417 744.714 1414.36C749.4 1411.72 755.337 1413.37 757.976 1418.05C760.626 1422.73 758.974 1428.67 754.287 1431.31Z" fill="#F47820" fill-opacity="0.05"/>
<path d="M786.365 1410.37C782.874 1412.34 778.438 1411.11 776.463 1407.61C774.494 1404.12 775.724 1399.68 779.218 1397.71C782.712 1395.74 787.152 1396.97 789.12 1400.47C791.092 1403.97 789.856 1408.39 786.365 1410.37Z" fill="#F47820" fill-opacity="0.05"/>
<path d="M815.197 1392.14C812.52 1393.65 809.116 1392.71 807.61 1390.03C806.094 1387.35 807.038 1383.95 809.714 1382.44C812.398 1380.92 815.798 1381.87 817.314 1384.56C818.827 1387.24 817.873 1390.63 815.197 1392.14Z" fill="#F47820" fill-opacity="0.05"/>
<path d="M841.225 1375.62C839.309 1376.7 836.876 1376.03 835.795 1374.12C834.714 1372.2 835.392 1369.77 837.311 1368.69C839.226 1367.61 841.653 1368.28 842.734 1370.2C843.815 1372.12 843.143 1374.55 841.225 1375.62Z" fill="#F47820" fill-opacity="0.05"/>
<path d="M864.897 1360.79C863.596 1361.51 861.956 1361.06 861.22 1359.76C860.485 1358.47 860.95 1356.82 862.242 1356.09C863.543 1355.36 865.183 1355.81 865.918 1357.11C866.653 1358.41 866.198 1360.06 864.897 1360.79Z" fill="#F47820" fill-opacity="0.05"/>
<path d="M886.83 1347.35C885.974 1347.83 884.891 1347.53 884.411 1346.67C883.93 1345.82 884.226 1344.74 885.078 1344.25C885.937 1343.77 887.017 1344.07 887.505 1344.92C887.985 1345.78 887.683 1346.86 886.83 1347.35Z" fill="#F47820" fill-opacity="0.05"/>
<path d="M907.571 1334.93C907.016 1335.25 906.304 1335.04 905.992 1334.48C905.672 1333.93 905.871 1333.22 906.429 1332.91C906.993 1332.59 907.693 1332.79 908.015 1333.35C908.327 1333.91 908.126 1334.61 907.571 1334.93Z" fill="#F47820" fill-opacity="0.05"/>
<path d="M531.58 1666.29C518.603 1673.61 502.141 1669.03 494.823 1656.05C487.491 1643.08 492.067 1626.62 505.044 1619.29C518.025 1611.96 534.486 1616.55 541.811 1629.53C549.143 1642.5 544.554 1658.95 531.58 1666.29Z" fill="#F47820" fill-opacity="0.05"/>
<path d="M596.052 1625.41C584.951 1631.68 570.869 1627.76 564.597 1616.66C558.328 1605.56 562.25 1591.47 573.35 1585.2C584.45 1578.93 598.536 1582.86 604.805 1593.96C611.076 1605.06 607.152 1619.14 596.052 1625.41Z" fill="#F47820" fill-opacity="0.05"/>
<path d="M653.163 1588.21C644.136 1593.3 632.691 1590.11 627.598 1581.09C622.492 1572.06 625.683 1560.62 634.709 1555.52C643.736 1550.43 655.185 1553.61 660.277 1562.64C665.377 1571.66 662.189 1583.11 653.163 1588.21Z" fill="#F47820" fill-opacity="0.05"/>
<path d="M704.893 1555.85C697.185 1560.2 687.42 1557.48 683.068 1549.77C678.719 1542.07 681.439 1532.3 689.14 1527.95C696.84 1523.6 706.613 1526.32 710.969 1534.02C715.313 1541.73 712.593 1551.5 704.893 1555.85Z" fill="#F47820" fill-opacity="0.05"/>
<path d="M751.567 1526.12C745.277 1529.66 737.307 1527.45 733.751 1521.16C730.199 1514.87 732.421 1506.89 738.711 1503.34C745.001 1499.8 752.974 1502.02 756.523 1508.31C760.069 1514.59 757.857 1522.57 751.567 1526.12Z" fill="#F47820" fill-opacity="0.05"/>
<path d="M792.575 1499.13C787.888 1501.77 781.952 1500.12 779.309 1495.43C776.663 1490.76 778.322 1484.82 782.999 1482.17C787.686 1479.53 793.622 1481.18 796.264 1485.87C798.904 1490.55 797.262 1496.49 792.575 1499.13Z" fill="#F47820" fill-opacity="0.05"/>
<path d="M824.651 1478.18C821.16 1480.16 816.727 1478.93 814.749 1475.43C812.78 1471.93 814.013 1467.5 817.507 1465.53C820.998 1463.56 825.438 1464.79 827.406 1468.28C829.378 1471.78 828.142 1476.21 824.651 1478.18Z" fill="#F47820" fill-opacity="0.05"/>
<path d="M853.484 1459.96C850.807 1461.47 847.401 1460.53 845.895 1457.85C844.379 1455.16 845.325 1451.77 848.002 1450.26C850.686 1448.74 854.082 1449.69 855.598 1452.37C857.111 1455.05 856.161 1458.45 853.484 1459.96Z" fill="#F47820" fill-opacity="0.05"/>
<path d="M879.509 1443.45C877.593 1444.53 875.164 1443.84 874.083 1441.93C873.005 1440.02 873.677 1437.59 875.592 1436.51C877.507 1435.43 879.944 1436.1 881.018 1438.02C882.106 1439.94 881.424 1442.36 879.509 1443.45Z" fill="#F47820" fill-opacity="0.05"/>
<path d="M903.185 1428.61C901.884 1429.33 900.241 1428.88 899.508 1427.59C898.77 1426.28 899.238 1424.64 900.527 1423.9C901.828 1423.17 903.471 1423.63 904.203 1424.92C904.941 1426.23 904.483 1427.87 903.185 1428.61Z" fill="#F47820" fill-opacity="0.05"/>
<path d="M925.112 1415.16C924.266 1415.65 923.173 1415.34 922.696 1414.49C922.215 1413.64 922.518 1412.55 923.363 1412.07C924.226 1411.59 925.3 1411.89 925.79 1412.74C926.277 1413.6 925.972 1414.67 925.112 1415.16Z" fill="#F47820" fill-opacity="0.05"/>
<path d="M945.86 1402.75C945.302 1403.06 944.592 1402.86 944.273 1402.31C943.961 1401.75 944.16 1401.04 944.714 1400.72C945.282 1400.41 945.982 1400.61 946.301 1401.16C946.613 1401.72 946.414 1402.43 945.86 1402.75Z" fill="#F47820" fill-opacity="0.05"/>
<path d="M569.865 1734.1C556.892 1741.43 540.426 1736.85 533.108 1723.87C525.776 1710.89 530.356 1694.44 543.33 1687.11C556.313 1679.78 572.772 1684.36 580.097 1697.34C587.422 1710.32 582.842 1726.77 569.865 1734.1Z" fill="#F47820" fill-opacity="0.05"/>
<path d="M634.339 1693.23C623.239 1699.5 609.154 1695.58 602.885 1684.48C596.613 1673.37 600.535 1659.28 611.638 1653.02C622.738 1646.75 636.821 1650.67 643.092 1661.78C649.361 1672.88 645.436 1686.95 634.339 1693.23Z" fill="#F47820" fill-opacity="0.05"/>
<path d="M691.451 1656.03C682.421 1661.12 670.979 1657.93 665.883 1648.91C660.781 1639.88 663.971 1628.44 672.994 1623.34C682.021 1618.24 693.473 1621.43 698.562 1630.46C703.658 1639.48 700.478 1650.93 691.451 1656.03Z" fill="#F47820" fill-opacity="0.05"/>
<path d="M743.178 1623.66C735.471 1628.01 725.705 1625.29 721.356 1617.59C717.008 1609.89 719.728 1600.12 727.425 1595.76C735.133 1591.41 744.898 1594.13 749.25 1601.84C753.599 1609.54 750.879 1619.31 743.178 1623.66Z" fill="#F47820" fill-opacity="0.05"/>
<path d="M789.855 1593.94C783.562 1597.48 775.592 1595.26 772.036 1588.98C768.487 1582.69 770.709 1574.71 776.996 1571.16C783.286 1567.61 791.262 1569.84 794.808 1576.12C798.364 1582.41 796.145 1590.39 789.855 1593.94Z" fill="#F47820" fill-opacity="0.05"/>
<path d="M830.86 1566.94C826.176 1569.59 820.237 1567.93 817.597 1563.26C814.948 1558.57 816.61 1552.64 821.286 1549.99C825.973 1547.35 831.909 1549 834.549 1553.68C837.191 1558.37 835.546 1564.3 830.86 1566.94Z" fill="#F47820" fill-opacity="0.05"/>
<path d="M862.939 1546C859.448 1547.98 855.012 1546.74 853.036 1543.25C851.068 1539.76 852.297 1535.32 855.794 1533.35C859.285 1531.38 863.725 1532.61 865.694 1536.1C867.666 1539.6 866.43 1544.03 862.939 1546Z" fill="#F47820" fill-opacity="0.05"/>
<path d="M891.77 1527.77C889.093 1529.29 885.69 1528.35 884.184 1525.67C882.668 1522.98 883.611 1519.59 886.288 1518.07C888.972 1516.56 892.371 1517.51 893.887 1520.19C895.4 1522.87 894.45 1526.27 891.77 1527.77Z" fill="#F47820" fill-opacity="0.05"/>
<path d="M917.795 1511.26C915.879 1512.34 913.453 1511.66 912.372 1509.75C911.291 1507.83 911.963 1505.4 913.881 1504.33C915.797 1503.25 918.23 1503.92 919.304 1505.84C920.392 1507.75 919.713 1510.18 917.795 1511.26Z" fill="#F47820" fill-opacity="0.05"/>
<path d="M941.47 1496.42C940.169 1497.15 938.529 1496.7 937.794 1495.4C937.059 1494.1 937.524 1492.45 938.815 1491.72C940.116 1490.99 941.756 1491.44 942.492 1492.74C943.227 1494.04 942.772 1495.69 941.47 1496.42Z" fill="#F47820" fill-opacity="0.05"/>
<path d="M963.401 1482.99C962.545 1483.47 961.469 1483.16 960.981 1482.31C960.501 1481.45 960.796 1480.37 961.652 1479.89C962.508 1479.41 963.588 1479.71 964.075 1480.56C964.563 1481.41 964.254 1482.5 963.401 1482.99Z" fill="#F47820" fill-opacity="0.05"/>
<path d="M984.145 1470.56C983.59 1470.88 982.877 1470.68 982.558 1470.12C982.246 1469.56 982.445 1468.85 983.002 1468.54C983.567 1468.23 984.267 1468.42 984.589 1468.98C984.901 1469.54 984.702 1470.25 984.145 1470.56Z" fill="#F47820" fill-opacity="0.05"/>
<path d="M608.153 1801.92C595.176 1809.24 578.714 1804.67 571.396 1791.69C564.064 1778.71 568.641 1762.25 581.624 1754.92C594.598 1747.59 611.059 1752.18 618.384 1765.16C625.709 1778.14 621.127 1794.59 608.153 1801.92Z" fill="#F47820" fill-opacity="0.05"/>
<path d="M672.625 1761.04C661.525 1767.31 647.443 1763.4 641.171 1752.29C634.902 1741.19 638.824 1727.11 649.924 1720.84C661.024 1714.57 675.109 1718.49 681.378 1729.59C687.65 1740.7 683.725 1754.78 672.625 1761.04Z" fill="#F47820" fill-opacity="0.05"/>
<path d="M729.737 1723.84C720.71 1728.94 709.268 1725.75 704.165 1716.73C699.066 1707.7 702.256 1696.25 711.283 1691.16C720.31 1686.06 731.759 1689.24 736.851 1698.28C741.953 1707.3 738.763 1718.75 729.737 1723.84Z" fill="#F47820" fill-opacity="0.05"/>
<path d="M781.466 1691.48C773.758 1695.84 763.993 1693.11 759.641 1685.4C755.292 1677.7 758.012 1667.93 765.713 1663.58C773.413 1659.23 783.186 1661.95 787.535 1669.65C791.886 1677.36 789.166 1687.13 781.466 1691.48Z" fill="#F47820" fill-opacity="0.05"/>
<path d="M828.14 1661.75C821.85 1665.3 813.874 1663.09 810.325 1656.8C806.773 1650.5 808.995 1642.53 815.285 1638.98C821.568 1635.43 829.547 1637.65 833.096 1643.94C836.642 1650.23 834.43 1658.2 828.14 1661.75Z" fill="#F47820" fill-opacity="0.05"/>
<path d="M869.148 1634.76C864.462 1637.41 858.525 1635.76 855.883 1631.07C853.237 1626.39 854.895 1620.45 859.572 1617.81C864.259 1615.16 870.195 1616.82 872.838 1621.5C875.477 1626.18 873.835 1632.12 869.148 1634.76Z" fill="#F47820" fill-opacity="0.05"/>
<path d="M901.224 1613.82C897.733 1615.79 893.3 1614.56 891.322 1611.06C889.353 1607.57 890.586 1603.14 894.08 1601.17C897.571 1599.19 902.011 1600.42 903.979 1603.91C905.951 1607.42 904.715 1611.84 901.224 1613.82Z" fill="#F47820" fill-opacity="0.05"/>
<path d="M930.058 1595.6C927.382 1597.11 923.978 1596.17 922.472 1593.49C920.953 1590.8 921.899 1587.41 924.576 1585.89C927.26 1584.38 930.657 1585.32 932.173 1588.01C933.685 1590.68 932.735 1594.08 930.058 1595.6Z" fill="#F47820" fill-opacity="0.05"/>
<path d="M956.083 1579.08C954.168 1580.16 951.741 1579.48 950.657 1577.56C949.579 1575.65 950.251 1573.22 952.166 1572.14C954.082 1571.06 956.518 1571.74 957.592 1573.66C958.68 1575.57 957.999 1578 956.083 1579.08Z" fill="#F47820" fill-opacity="0.05"/>
<path d="M979.759 1564.24C978.458 1564.97 976.814 1564.51 976.082 1563.22C975.344 1561.91 975.812 1560.27 977.1 1559.54C978.402 1558.81 980.045 1559.27 980.777 1560.56C981.515 1561.86 981.057 1563.51 979.759 1564.24Z" fill="#F47820" fill-opacity="0.05"/>
<path d="M1001.69 1550.8C1000.83 1551.29 999.756 1550.98 999.269 1550.13C998.788 1549.27 999.084 1548.19 999.943 1547.7C1000.79 1547.22 1001.88 1547.53 1002.36 1548.38C1002.85 1549.23 1002.55 1550.31 1001.69 1550.8Z" fill="#F47820" fill-opacity="0.05"/>
<path d="M1022.43 1538.38C1021.88 1538.69 1021.17 1538.5 1020.85 1537.94C1020.53 1537.38 1020.73 1536.67 1021.29 1536.35C1021.86 1536.05 1022.56 1536.24 1022.87 1536.8C1023.19 1537.35 1022.99 1538.06 1022.43 1538.38Z" fill="#F47820" fill-opacity="0.05"/>
<path d="M646.438 1869.73C633.465 1877.06 617.002 1872.49 609.681 1859.5C602.349 1846.53 606.929 1830.07 619.903 1822.74C632.886 1815.41 649.345 1820 656.67 1832.98C663.995 1845.95 659.415 1862.41 646.438 1869.73Z" fill="#F47820" fill-opacity="0.05"/>
<path d="M710.913 1828.87C699.813 1835.13 685.728 1831.21 679.459 1820.11C673.187 1809.01 677.109 1794.92 688.212 1788.66C699.312 1782.39 713.395 1786.3 719.666 1797.41C725.935 1808.51 722.01 1822.59 710.913 1828.87Z" fill="#F47820" fill-opacity="0.05"/>
<path d="M768.025 1791.66C758.996 1796.75 747.553 1793.57 742.457 1784.54C737.355 1775.52 740.545 1764.07 749.568 1758.97C758.598 1753.88 770.047 1757.06 775.136 1766.09C780.239 1775.11 777.052 1786.57 768.025 1791.66Z" fill="#F47820" fill-opacity="0.05"/>
<path d="M819.752 1759.3C812.044 1763.65 802.279 1760.93 797.93 1753.23C793.581 1745.53 796.301 1735.75 804.002 1731.4C811.7 1727.05 821.475 1729.78 825.824 1737.48C830.172 1745.18 827.452 1754.95 819.752 1759.3Z" fill="#F47820" fill-opacity="0.05"/>
<path d="M866.429 1729.57C860.136 1733.11 852.166 1730.9 848.61 1724.61C845.061 1718.32 847.283 1710.35 853.57 1706.79C859.86 1703.24 867.836 1705.47 871.382 1711.76C874.938 1718.04 872.719 1726.02 866.429 1729.57Z" fill="#F47820" fill-opacity="0.05"/>
<path d="M907.434 1702.58C902.75 1705.23 896.811 1703.57 894.171 1698.89C891.522 1694.21 893.184 1688.27 897.86 1685.63C902.547 1682.98 908.483 1684.64 911.123 1689.32C913.765 1694 912.12 1699.94 907.434 1702.58Z" fill="#F47820" fill-opacity="0.05"/>
<path d="M939.512 1681.64C936.021 1683.61 931.588 1682.38 929.61 1678.88C927.641 1675.39 928.871 1670.95 932.368 1668.99C935.858 1667.01 940.298 1668.24 942.267 1671.74C944.239 1675.24 943.003 1679.66 939.512 1681.64Z" fill="#F47820" fill-opacity="0.05"/>
<path d="M968.343 1663.41C965.666 1664.92 962.263 1663.98 960.757 1661.3C959.241 1658.62 960.184 1655.22 962.861 1653.71C965.545 1652.19 968.944 1653.14 970.46 1655.83C971.973 1658.5 971.023 1661.9 968.343 1663.41Z" fill="#F47820" fill-opacity="0.05"/>
<path d="M994.368 1646.89C992.452 1647.97 990.026 1647.3 988.945 1645.38C987.864 1643.47 988.538 1641.04 990.454 1639.96C992.369 1638.88 994.803 1639.55 995.877 1641.47C996.965 1643.38 996.286 1645.82 994.368 1646.89Z" fill="#F47820" fill-opacity="0.05"/>
<path d="M1018.05 1632.05C1016.75 1632.78 1015.1 1632.33 1014.36 1631.03C1013.64 1629.73 1014.09 1628.09 1015.39 1627.35C1016.69 1626.63 1018.33 1627.08 1019.06 1628.38C1019.8 1629.67 1019.34 1631.33 1018.05 1632.05Z" fill="#F47820" fill-opacity="0.05"/>
<path d="M1039.97 1618.62C1039.12 1619.1 1038.04 1618.8 1037.55 1617.94C1037.07 1617.09 1037.37 1616 1038.23 1615.52C1039.08 1615.04 1040.16 1615.34 1040.65 1616.19C1041.14 1617.04 1040.83 1618.13 1039.97 1618.62Z" fill="#F47820" fill-opacity="0.05"/>
<path d="M1060.72 1606.2C1060.16 1606.52 1059.45 1606.32 1059.13 1605.75C1058.82 1605.2 1059.02 1604.49 1059.58 1604.18C1060.14 1603.86 1060.84 1604.06 1061.16 1604.62C1061.47 1605.17 1061.28 1605.88 1060.72 1606.2Z" fill="#F47820" fill-opacity="0.05"/>
<path d="M544.723 1865.18C557.7 1857.86 574.162 1862.44 581.487 1875.41C588.815 1888.4 584.235 1904.85 571.262 1912.18C558.285 1919.51 541.82 1914.92 534.495 1901.95C527.17 1888.97 531.749 1872.52 544.723 1865.18Z" fill="#F47820" fill-opacity="0.05"/>
<path d="M480.252 1906.06C491.352 1899.79 505.435 1903.7 511.707 1914.81C517.978 1925.92 514.056 1940 502.953 1946.27C491.853 1952.53 477.771 1948.62 471.499 1937.51C465.227 1926.41 469.152 1912.33 480.252 1906.06Z" fill="#F47820" fill-opacity="0.05"/>
<path d="M423.141 1943.26C432.17 1938.17 443.613 1941.35 448.713 1950.37C453.811 1959.4 450.621 1970.85 441.597 1975.95C432.568 1981.04 421.118 1977.86 416.027 1968.82C410.934 1959.81 414.114 1948.36 423.141 1943.26Z" fill="#F47820" fill-opacity="0.05"/>
<path d="M371.414 1975.63C379.121 1971.27 388.884 1973.99 393.235 1981.7C397.584 1989.4 394.864 1999.17 387.163 2003.52C379.463 2007.87 369.69 2005.15 365.342 1997.45C360.993 1989.75 363.71 1979.97 371.414 1975.63Z" fill="#F47820" fill-opacity="0.05"/>
<path d="M324.737 2005.35C331.027 2001.8 339.006 2004.02 342.552 2010.31C346.104 2016.6 343.882 2024.57 337.595 2028.13C331.309 2031.67 323.33 2029.45 319.784 2023.17C316.235 2016.88 318.447 2008.9 324.737 2005.35Z" fill="#F47820" fill-opacity="0.05"/>
<path d="M283.728 2032.34C288.415 2029.7 294.354 2031.35 296.994 2036.03C299.64 2040.71 297.981 2046.65 293.305 2049.3C288.625 2051.94 282.682 2050.29 280.039 2045.6C277.4 2040.92 279.052 2034.98 283.728 2032.34Z" fill="#F47820" fill-opacity="0.05"/>
<path d="M251.653 2053.28C255.144 2051.31 259.577 2052.54 261.556 2056.04C263.525 2059.53 262.292 2063.97 258.798 2065.94C255.307 2067.91 250.867 2066.68 248.898 2063.19C246.926 2059.69 248.162 2055.26 251.653 2053.28Z" fill="#F47820" fill-opacity="0.05"/>
<path d="M222.818 2071.51C225.495 2069.99 228.901 2070.94 230.407 2073.62C231.923 2076.31 230.98 2079.7 228.303 2081.21C225.616 2082.72 222.22 2081.78 220.704 2079.1C219.198 2076.42 220.141 2073.02 222.818 2071.51Z" fill="#F47820" fill-opacity="0.05"/>
<path d="M196.794 2088.02C198.71 2086.94 201.139 2087.62 202.22 2089.54C203.301 2091.45 202.626 2093.88 200.711 2094.96C198.795 2096.04 196.362 2095.37 195.288 2093.45C194.2 2091.54 194.879 2089.1 196.794 2088.02Z" fill="#F47820" fill-opacity="0.05"/>
<path d="M506.438 1797.37C519.415 1790.04 535.878 1794.62 543.203 1807.6C550.528 1820.57 545.951 1837.04 532.974 1844.36C519.997 1851.69 503.532 1847.1 496.207 1834.13C488.882 1821.15 493.462 1804.69 506.438 1797.37Z" fill="#F47820" fill-opacity="0.05"/>
<path d="M441.966 1838.24C453.063 1831.97 467.149 1835.89 473.421 1847C479.689 1858.1 475.768 1872.18 464.665 1878.44C453.568 1884.72 439.482 1880.8 433.21 1869.69C426.941 1858.59 430.866 1844.51 441.966 1838.24Z" fill="#F47820" fill-opacity="0.05"/>
<path d="M384.855 1875.45C393.881 1870.35 405.324 1873.53 410.427 1882.56C415.525 1891.59 412.332 1903.03 403.309 1908.13C394.282 1913.23 382.832 1910.05 377.741 1901.01C372.645 1891.98 375.825 1880.54 384.855 1875.45Z" fill="#F47820" fill-opacity="0.05"/>
<path d="M333.129 1907.8C340.83 1903.46 350.602 1906.18 354.951 1913.88C359.302 1921.58 356.582 1931.36 348.882 1935.7C341.174 1940.06 331.402 1937.34 327.05 1929.63C322.708 1921.92 325.422 1912.16 333.129 1907.8Z" fill="#F47820" fill-opacity="0.05"/>
<path d="M286.454 1937.54C292.744 1933.99 300.714 1936.2 304.263 1942.49C307.819 1948.78 305.597 1956.75 299.31 1960.31C293.02 1963.86 285.047 1961.64 281.491 1955.35C277.942 1949.06 280.161 1941.08 286.454 1937.54Z" fill="#F47820" fill-opacity="0.05"/>
<path d="M245.443 1964.52C250.129 1961.88 256.066 1963.53 258.705 1968.21C261.355 1972.9 259.693 1978.83 255.016 1981.48C250.339 1984.12 244.393 1982.47 241.753 1977.79C239.114 1973.11 240.763 1967.16 245.443 1964.52Z" fill="#F47820" fill-opacity="0.05"/>
<path d="M213.364 1985.46C216.858 1983.5 221.291 1984.73 223.27 1988.23C225.239 1991.72 224.006 1996.15 220.512 1998.12C217.021 2000.1 212.585 1998.86 210.612 1995.37C208.641 1991.87 209.874 1987.44 213.364 1985.46Z" fill="#F47820" fill-opacity="0.05"/>
<path d="M184.533 2003.69C187.21 2002.18 190.614 2003.12 192.12 2005.8C193.636 2008.48 192.692 2011.88 190.015 2013.39C187.332 2014.91 183.935 2013.97 182.419 2011.28C180.913 2008.6 181.856 2005.21 184.533 2003.69Z" fill="#F47820" fill-opacity="0.05"/>
<path d="M158.509 2020.21C160.425 2019.13 162.851 2019.8 163.932 2021.72C165.013 2023.63 164.341 2026.07 162.426 2027.15C160.51 2028.23 158.074 2027.55 157 2025.63C155.912 2023.72 156.594 2021.29 158.509 2020.21Z" fill="#F47820" fill-opacity="0.05"/>
<path d="M134.832 2035.05C136.133 2034.32 137.774 2034.77 138.509 2036.07C139.244 2037.37 138.779 2039.01 137.488 2039.75C136.189 2040.48 134.546 2040.02 133.811 2038.73C133.076 2037.43 133.531 2035.78 134.832 2035.05Z" fill="#F47820" fill-opacity="0.05"/>
<path d="M112.902 2048.49C113.755 2048 114.838 2048.31 115.326 2049.16C115.806 2050.02 115.504 2051.1 114.651 2051.59C113.792 2052.06 112.712 2051.76 112.224 2050.91C111.744 2050.06 112.046 2048.97 112.902 2048.49Z" fill="#F47820" fill-opacity="0.05"/>
<path d="M92.1588 2060.91C92.7165 2060.59 93.4263 2060.79 93.7384 2061.35C94.0575 2061.9 93.8589 2062.61 93.3012 2062.93C92.7436 2063.24 92.0367 2063.05 91.7246 2062.49C91.4026 2061.93 91.6042 2061.23 92.1588 2060.91Z" fill="#F47820" fill-opacity="0.05"/>
<path d="M468.15 1729.55C481.126 1722.22 497.589 1726.8 504.914 1739.78C512.239 1752.75 507.662 1769.22 494.685 1776.54C481.705 1783.88 465.246 1779.29 457.921 1766.31C450.593 1753.33 455.176 1736.88 468.15 1729.55Z" fill="#F47820" fill-opacity="0.05"/>
<path d="M403.679 1770.42C414.779 1764.15 428.861 1768.07 435.133 1779.18C441.405 1790.28 437.483 1804.37 426.38 1810.63C415.28 1816.9 401.194 1812.98 394.926 1801.88C388.654 1790.77 392.579 1776.69 403.679 1770.42Z" fill="#F47820" fill-opacity="0.05"/>
<path d="M346.567 1807.63C355.597 1802.54 367.039 1805.72 372.139 1814.74C377.238 1823.77 374.048 1835.22 365.024 1840.32C355.994 1845.41 344.545 1842.23 339.453 1833.19C334.36 1824.17 337.541 1812.72 346.567 1807.63Z" fill="#F47820" fill-opacity="0.05"/>
<path d="M294.841 1839.98C302.541 1835.63 312.314 1838.35 316.665 1846.06C321.014 1853.76 318.294 1863.54 310.593 1867.88C302.886 1872.24 293.113 1869.52 288.765 1861.82C284.42 1854.1 287.133 1844.33 294.841 1839.98Z" fill="#F47820" fill-opacity="0.05"/>
<path d="M248.166 1869.72C254.456 1866.17 262.429 1868.39 265.975 1874.67C269.534 1880.97 267.312 1888.94 261.025 1892.49C254.732 1896.04 246.759 1893.82 243.203 1887.53C239.657 1881.24 241.876 1873.27 248.166 1869.72Z" fill="#F47820" fill-opacity="0.05"/>
<path d="M207.155 1896.7C211.842 1894.06 217.781 1895.72 220.42 1900.4C223.067 1905.08 221.408 1911.02 216.731 1913.66C212.051 1916.3 206.108 1914.65 203.465 1909.97C200.826 1905.29 202.478 1899.35 207.155 1896.7Z" fill="#F47820" fill-opacity="0.05"/>
<path d="M175.079 1917.65C178.57 1915.68 183.003 1916.91 184.981 1920.41C186.95 1923.9 185.717 1928.33 182.224 1930.3C178.733 1932.28 174.299 1931.04 172.324 1927.55C170.352 1924.05 171.588 1919.63 175.079 1917.65Z" fill="#F47820" fill-opacity="0.05"/>
<path d="M146.245 1935.87C148.922 1934.36 152.329 1935.31 153.835 1937.99C155.35 1940.67 154.407 1944.07 151.727 1945.57C149.044 1947.09 145.647 1946.15 144.138 1943.46C142.625 1940.78 143.568 1937.39 146.245 1935.87Z" fill="#F47820" fill-opacity="0.05"/>
<path d="M120.221 1952.39C122.136 1951.31 124.566 1951.99 125.654 1953.9C126.728 1955.82 126.053 1958.25 124.137 1959.33C122.222 1960.41 119.789 1959.74 118.715 1957.82C117.627 1955.91 118.305 1953.47 120.221 1952.39Z" fill="#F47820" fill-opacity="0.05"/>
<path d="M96.5447 1967.23C97.8458 1966.5 99.489 1966.96 100.221 1968.25C100.959 1969.55 100.491 1971.19 99.203 1971.93C97.9019 1972.66 96.2587 1972.2 95.5265 1970.91C94.7884 1969.61 95.2465 1967.96 96.5447 1967.23Z" fill="#F47820" fill-opacity="0.05"/>
<path d="M74.6138 1980.67C75.4697 1980.19 76.5529 1980.49 77.0334 1981.35C77.5209 1982.2 77.2184 1983.29 76.3626 1983.77C75.5068 1984.25 74.4265 1983.95 73.9391 1983.1C73.4585 1982.24 73.761 1981.16 74.6138 1980.67Z" fill="#F47820" fill-opacity="0.05"/>
<path d="M53.8733 1993.09C54.428 1992.77 55.1379 1992.97 55.45 1993.53C55.772 1994.09 55.5704 1994.79 55.0157 1995.11C54.4581 1995.43 53.7482 1995.23 53.4361 1994.67C53.1171 1994.11 53.3157 1993.4 53.8733 1993.09Z" fill="#F47820" fill-opacity="0.05"/>
<path d="M429.864 1661.74C442.841 1654.41 459.303 1658.99 466.628 1671.96C473.953 1684.94 469.377 1701.4 456.4 1708.73C443.423 1716.05 426.958 1711.47 419.633 1698.49C412.308 1685.52 416.888 1669.06 429.864 1661.74Z" fill="#F47820" fill-opacity="0.05"/>
<path d="M365.393 1702.61C376.497 1696.33 390.576 1700.26 396.844 1711.36C403.116 1722.46 399.194 1736.55 388.091 1742.81C376.994 1749.09 362.909 1745.16 356.637 1734.06C350.368 1722.96 354.293 1708.88 365.393 1702.61Z" fill="#F47820" fill-opacity="0.05"/>
<path d="M308.281 1739.81C317.308 1734.72 328.751 1737.9 333.853 1746.92C338.949 1755.95 335.759 1767.4 326.735 1772.5C317.709 1777.59 306.256 1774.41 301.167 1765.38C296.072 1756.35 299.252 1744.9 308.281 1739.81Z" fill="#F47820" fill-opacity="0.05"/>
<path d="M256.554 1772.17C264.255 1767.82 274.027 1770.54 278.376 1778.24C282.727 1785.95 280.007 1795.72 272.3 1800.07C264.599 1804.42 254.827 1801.7 250.475 1793.99C246.133 1786.29 248.847 1776.52 256.554 1772.17Z" fill="#F47820" fill-opacity="0.05"/>
<path d="M209.881 1801.9C216.171 1798.35 224.141 1800.57 227.69 1806.86C231.246 1813.15 229.024 1821.12 222.737 1824.67C216.447 1828.22 208.471 1825.99 204.918 1819.71C201.369 1813.42 203.588 1805.44 209.881 1801.9Z" fill="#F47820" fill-opacity="0.05"/>
<path d="M168.87 1828.89C173.556 1826.25 179.493 1827.9 182.132 1832.58C184.782 1837.26 183.12 1843.2 178.443 1845.84C173.766 1848.49 167.82 1846.83 165.18 1842.15C162.538 1837.47 164.19 1831.53 168.87 1828.89Z" fill="#F47820" fill-opacity="0.05"/>
<path d="M136.791 1849.83C140.282 1847.85 144.718 1849.09 146.697 1852.59C148.666 1856.09 147.433 1860.52 143.939 1862.49C140.448 1864.46 136.005 1863.23 134.036 1859.73C132.068 1856.24 133.3 1851.81 136.791 1849.83Z" fill="#F47820" fill-opacity="0.05"/>
<path d="M107.959 1868.06C110.643 1866.54 114.04 1867.49 115.546 1870.17C117.062 1872.85 116.118 1876.25 113.442 1877.76C110.758 1879.28 107.358 1878.33 105.842 1875.64C104.336 1872.96 105.283 1869.57 107.959 1868.06Z" fill="#F47820" fill-opacity="0.05"/>
<path d="M81.935 1884.58C83.8504 1883.49 86.277 1884.17 87.3649 1886.08C88.4389 1888 87.7671 1890.43 85.8517 1891.51C83.9332 1892.59 81.4998 1891.92 80.4257 1890C79.3378 1888.09 80.0196 1885.66 81.935 1884.58Z" fill="#F47820" fill-opacity="0.05"/>
<path d="M58.2593 1899.41C59.5604 1898.69 61.2006 1899.14 61.9358 1900.44C62.671 1901.73 62.2059 1903.38 60.9147 1904.11C59.6135 1904.84 57.9733 1904.39 57.2382 1903.09C56.503 1901.79 56.9582 1900.14 58.2593 1899.41Z" fill="#F47820" fill-opacity="0.05"/>
<path d="M36.3284 1912.86C37.1812 1912.37 38.2644 1912.67 38.7519 1913.53C39.2324 1914.38 38.93 1915.46 38.0771 1915.95C37.2183 1916.43 36.1381 1916.13 35.6506 1915.28C35.1701 1914.42 35.4725 1913.34 36.3284 1912.86Z" fill="#F47820" fill-opacity="0.05"/>
<path d="M15.5851 1925.27C16.1427 1924.96 16.8526 1925.16 17.1647 1925.72C17.4838 1926.27 17.2851 1926.98 16.7275 1927.29C16.1699 1927.61 15.4629 1927.41 15.1509 1926.86C14.8288 1926.29 15.0304 1925.59 15.5851 1925.27Z" fill="#F47820" fill-opacity="0.05"/>
<path d="M391.577 1593.92C404.554 1586.59 421.016 1591.17 428.341 1604.14C435.666 1617.12 431.089 1633.58 418.113 1640.91C405.139 1648.24 388.673 1643.66 381.345 1630.67C374.02 1617.7 378.603 1601.25 391.577 1593.92Z" fill="#F47820" fill-opacity="0.05"/>
<path d="M327.105 1634.79C338.205 1628.52 352.287 1632.44 358.559 1643.54C364.831 1654.65 360.909 1668.73 349.806 1675C338.706 1681.27 324.62 1677.34 318.351 1666.24C312.08 1655.14 316.004 1641.06 327.105 1634.79Z" fill="#F47820" fill-opacity="0.05"/>
<path d="M269.993 1671.99C279.022 1666.9 290.465 1670.09 295.564 1679.1C300.663 1688.14 297.473 1699.58 288.449 1704.68C279.42 1709.77 267.97 1706.59 262.878 1697.56C257.786 1688.54 260.966 1677.09 269.993 1671.99Z" fill="#F47820" fill-opacity="0.05"/>
<path d="M218.267 1704.35C225.968 1700 235.74 1702.72 240.092 1710.43C244.44 1718.13 241.72 1727.9 234.02 1732.25C226.312 1736.6 216.54 1733.88 212.191 1726.18C207.846 1718.47 210.559 1708.7 218.267 1704.35Z" fill="#F47820" fill-opacity="0.05"/>
<path d="M171.593 1734.08C177.883 1730.53 185.855 1732.76 189.401 1739.04C192.96 1745.33 190.738 1753.3 184.451 1756.86C178.158 1760.4 170.186 1758.18 166.63 1751.89C163.084 1745.61 165.303 1737.63 171.593 1734.08Z" fill="#F47820" fill-opacity="0.05"/>
<path d="M130.585 1761.07C135.265 1758.43 141.204 1760.09 143.851 1764.76C146.49 1769.44 144.838 1775.38 140.154 1778.03C135.475 1780.67 129.538 1779.02 126.889 1774.33C124.249 1769.65 125.898 1763.71 130.585 1761.07Z" fill="#F47820" fill-opacity="0.05"/>
<path d="M98.5055 1782.02C101.996 1780.04 106.429 1781.27 108.408 1784.77C110.377 1788.27 109.144 1792.7 105.65 1794.67C102.159 1796.64 97.7261 1795.41 95.7505 1791.92C93.7788 1788.42 95.0145 1783.99 98.5055 1782.02Z" fill="#F47820" fill-opacity="0.05"/>
<path d="M69.6706 1800.24C72.3475 1798.73 75.7539 1799.67 77.2599 1802.35C78.7759 1805.04 77.8326 1808.43 75.1528 1809.94C72.4689 1811.45 69.0724 1810.51 67.5565 1807.83C66.0505 1805.15 66.9938 1801.75 69.6706 1800.24Z" fill="#F47820" fill-opacity="0.05"/>
<path d="M43.6473 1816.76C45.5627 1815.67 47.9922 1816.36 49.0801 1818.27C50.1541 1820.19 49.4793 1822.61 47.5639 1823.69C45.6485 1824.78 43.219 1824.09 42.138 1822.18C41.053 1820.27 41.7318 1817.84 43.6473 1816.76Z" fill="#F47820" fill-opacity="0.05"/>
<path d="M19.971 1831.59C21.2721 1830.87 22.9222 1831.32 23.6475 1832.62C24.3856 1833.92 23.9175 1835.56 22.6293 1836.3C21.3282 1837.03 19.685 1836.57 18.9528 1835.28C18.2146 1833.97 18.6728 1832.33 19.971 1831.59Z" fill="#F47820" fill-opacity="0.05"/>
<path d="M-1.95941 1845.04C-1.10655 1844.55 -0.0203837 1844.86 0.467107 1845.71C0.94764 1846.57 0.645196 1847.65 -0.210638 1848.13C-1.06647 1848.61 -2.1467 1848.32 -2.63419 1847.46C-3.11472 1846.61 -2.81228 1845.53 -1.95941 1845.04Z" fill="#F47820" fill-opacity="0.05"/>
<path d="M353.291 1526.1C366.265 1518.77 382.73 1523.35 390.056 1536.33C397.381 1549.31 392.804 1565.77 379.827 1573.09C366.85 1580.42 350.385 1575.84 343.06 1562.86C335.735 1549.88 340.315 1533.43 353.291 1526.1Z" fill="#F47820" fill-opacity="0.05"/>
<path d="M288.817 1566.97C299.917 1560.7 314.003 1564.62 320.271 1575.72C326.543 1586.83 322.621 1600.91 311.518 1607.18C300.418 1613.45 286.336 1609.53 280.064 1598.42C273.795 1587.32 277.72 1573.24 288.817 1566.97Z" fill="#F47820" fill-opacity="0.05"/>
<path d="M231.709 1604.18C240.735 1599.08 252.185 1602.26 257.28 1611.29C262.376 1620.32 259.186 1631.76 250.162 1636.86C241.136 1641.96 229.683 1638.77 224.595 1629.74C219.499 1620.72 222.679 1609.27 231.709 1604.18Z" fill="#F47820" fill-opacity="0.05"/>
<path d="M179.982 1636.54C187.682 1632.19 197.455 1634.91 201.803 1642.61C206.155 1650.31 203.435 1660.09 195.734 1664.44C188.027 1668.79 178.254 1666.07 173.903 1658.36C169.561 1650.66 172.274 1640.89 179.982 1636.54Z" fill="#F47820" fill-opacity="0.05"/>
<path d="M133.308 1666.27C139.598 1662.72 147.568 1664.93 151.117 1671.22C154.673 1677.51 152.451 1685.48 146.164 1689.04C139.874 1692.59 131.898 1690.36 128.345 1684.08C124.796 1677.79 127.015 1669.81 133.308 1666.27Z" fill="#F47820" fill-opacity="0.05"/>
<path d="M92.2959 1693.26C96.9826 1690.61 102.919 1692.27 105.558 1696.95C108.208 1701.63 106.546 1707.56 101.869 1710.21C97.1923 1712.85 91.2461 1711.2 88.6066 1706.52C85.9641 1701.83 87.6161 1695.9 92.2959 1693.26Z" fill="#F47820" fill-opacity="0.05"/>
<path d="M60.2169 1714.2C63.7079 1712.22 68.1439 1713.46 70.1225 1716.96C72.0883 1720.45 70.8585 1724.89 67.3646 1726.85C63.8707 1728.82 59.4376 1727.59 57.4619 1724.1C55.4902 1720.6 56.726 1716.17 60.2169 1714.2Z" fill="#F47820" fill-opacity="0.05"/>
<path d="M31.3895 1732.42C34.0664 1730.91 37.4629 1731.85 38.9759 1734.53C40.4918 1737.21 39.5415 1740.61 36.8647 1742.13C34.1878 1743.64 30.7883 1742.69 29.2724 1740.01C27.7594 1737.33 28.7057 1733.94 31.3895 1732.42Z" fill="#F47820" fill-opacity="0.05"/>
<path d="M5.36225 1748.94C7.27769 1747.86 9.70421 1748.54 10.7921 1750.45C11.8661 1752.37 11.1943 1754.8 9.2789 1755.88C7.36048 1756.96 4.93396 1756.28 3.85299 1754.36C2.76507 1752.45 3.44383 1750.02 5.36225 1748.94Z" fill="#F47820" fill-opacity="0.05"/>
<path d="M315.003 1458.28C327.979 1450.96 344.442 1455.53 351.767 1468.51C359.092 1481.49 354.515 1497.95 341.538 1505.27C328.565 1512.61 312.099 1508.02 304.771 1495.04C297.446 1482.06 302.029 1465.61 315.003 1458.28Z" fill="#F47820" fill-opacity="0.05"/>
<path d="M250.531 1499.16C261.638 1492.88 275.714 1496.8 281.986 1507.91C288.254 1519.01 284.332 1533.09 273.232 1539.36C262.132 1545.63 248.047 1541.71 241.778 1530.61C235.506 1519.5 239.431 1505.42 250.531 1499.16Z" fill="#F47820" fill-opacity="0.05"/>
<path d="M193.42 1536.36C202.447 1531.26 213.899 1534.45 218.992 1543.47C224.09 1552.5 220.9 1563.95 211.874 1569.04C202.847 1574.14 191.398 1570.96 186.306 1561.92C181.213 1552.9 184.393 1541.45 193.42 1536.36Z" fill="#F47820" fill-opacity="0.05"/>
<path d="M141.693 1568.71C149.393 1564.37 159.166 1567.09 163.518 1574.79C167.866 1582.49 165.146 1592.27 157.446 1596.62C149.738 1600.97 139.965 1598.25 135.617 1590.55C131.272 1582.84 133.985 1573.07 141.693 1568.71Z" fill="#F47820" fill-opacity="0.05"/>
<path d="M95.0196 1598.45C101.31 1594.9 109.282 1597.12 112.828 1603.4C116.387 1609.7 114.165 1617.67 107.878 1621.23C101.585 1624.77 93.6127 1622.55 90.0567 1616.26C86.5106 1609.98 88.7296 1602 95.0196 1598.45Z" fill="#F47820" fill-opacity="0.05"/>
<path d="M54.0113 1625.43C58.6911 1622.79 64.6273 1624.45 67.2768 1629.13C69.9163 1633.81 68.2643 1639.75 63.5805 1642.4C58.9007 1645.04 52.9645 1643.38 50.3151 1638.7C47.6756 1634.02 49.3246 1628.08 54.0113 1625.43Z" fill="#F47820" fill-opacity="0.05"/>
<path d="M21.9326 1646.38C25.4235 1644.41 29.8566 1645.64 31.8352 1649.14C33.804 1652.63 32.5712 1657.07 29.0773 1659.03C25.5863 1661.01 21.1533 1659.78 19.1776 1656.29C17.2059 1652.78 18.4416 1648.36 21.9326 1646.38Z" fill="#F47820" fill-opacity="0.05"/>
<path d="M-6.89898 1664.6C-4.22213 1663.09 -0.822622 1664.04 0.69034 1666.72C2.20627 1669.4 1.25305 1672.79 -1.4238 1674.31C-4.10066 1675.82 -7.49719 1674.88 -9.01313 1672.19C-10.5261 1669.52 -9.58279 1666.12 -6.89898 1664.6Z" fill="#F47820" fill-opacity="0.05"/>
<path d="M276.722 1390.47C289.698 1383.14 306.154 1387.72 313.479 1400.7C320.811 1413.67 316.227 1430.14 303.25 1437.46C290.274 1444.79 273.808 1440.2 266.49 1427.22C259.158 1414.25 263.745 1397.79 276.722 1390.47Z" fill="#F47820" fill-opacity="0.05"/>
<path d="M212.243 1431.34C223.343 1425.07 237.436 1428.99 243.698 1440.09C249.97 1451.2 246.048 1465.28 234.945 1471.54C223.845 1477.81 209.762 1473.9 203.49 1462.79C197.221 1451.69 201.146 1437.61 212.243 1431.34Z" fill="#F47820" fill-opacity="0.05"/>
<path d="M155.134 1468.54C164.161 1463.45 175.61 1466.63 180.706 1475.66C185.802 1484.68 182.612 1496.13 173.588 1501.23C164.561 1506.33 153.109 1503.14 148.02 1494.11C142.925 1485.08 146.105 1473.63 155.134 1468.54Z" fill="#F47820" fill-opacity="0.05"/>
<path d="M103.408 1500.9C111.109 1496.55 120.881 1499.27 125.23 1506.97C129.582 1514.68 126.862 1524.45 119.161 1528.8C111.454 1533.15 101.681 1530.43 97.3294 1522.73C92.9877 1515.02 95.7008 1505.25 103.408 1500.9Z" fill="#F47820" fill-opacity="0.05"/>
<path d="M56.7336 1530.63C63.0237 1527.09 70.9932 1529.3 74.5423 1535.59C78.0983 1541.88 75.8764 1549.85 69.5893 1553.41C63.2992 1556.96 55.3237 1554.73 51.7707 1548.45C48.2216 1542.16 50.4406 1534.18 56.7336 1530.63Z" fill="#F47820" fill-opacity="0.05"/>
<path d="M15.7262 1557.62C20.403 1554.97 26.3422 1556.63 28.9887 1561.31C31.6311 1566 29.9762 1571.93 25.2994 1574.57C20.6127 1577.21 14.6764 1575.56 12.03 1570.89C9.3875 1566.2 11.0395 1560.26 15.7262 1557.62Z" fill="#F47820" fill-opacity="0.05"/>
<path d="M238.433 1322.65C251.41 1315.32 267.865 1319.9 275.19 1332.88C282.515 1345.85 277.939 1362.32 264.962 1369.64C251.988 1376.97 235.52 1372.38 228.202 1359.4C220.87 1346.43 225.459 1329.98 238.433 1322.65Z" fill="#F47820" fill-opacity="0.05"/>
<path d="M173.958 1363.52C185.065 1357.25 199.148 1361.16 205.413 1372.27C211.681 1383.37 207.766 1397.46 196.659 1403.73C185.559 1410 171.474 1406.08 165.205 1394.98C158.933 1383.87 162.858 1369.79 173.958 1363.52Z" fill="#F47820" fill-opacity="0.05"/>
<path d="M116.85 1400.72C125.877 1395.63 137.322 1398.82 142.415 1407.84C147.514 1416.87 144.331 1428.31 135.304 1433.41C126.278 1438.5 114.828 1435.32 109.729 1426.29C104.637 1417.27 107.824 1405.82 116.85 1400.72Z" fill="#F47820" fill-opacity="0.05"/>
<path d="M65.1196 1433.08C72.8271 1428.73 82.5928 1431.45 86.9444 1439.16C91.293 1446.86 88.573 1456.63 80.8724 1460.98C73.1649 1465.33 63.3923 1462.61 59.0437 1454.91C54.699 1447.2 57.4121 1437.43 65.1196 1433.08Z" fill="#F47820" fill-opacity="0.05"/>
<path d="M18.4463 1462.81C24.7364 1459.27 32.706 1461.48 36.255 1467.77C39.814 1474.06 37.5921 1482.04 31.302 1485.59C25.012 1489.14 17.0394 1486.91 13.4834 1480.63C9.9373 1474.34 12.1563 1466.36 18.4463 1462.81Z" fill="#F47820" fill-opacity="0.05"/>
<path d="M200.147 1254.83C213.121 1247.5 229.579 1252.09 236.904 1265.06C244.236 1278.04 239.65 1294.5 226.676 1301.83C213.699 1309.15 197.234 1304.57 189.916 1291.59C182.584 1278.62 187.17 1262.16 200.147 1254.83Z" fill="#F47820" fill-opacity="0.05"/>
<path d="M135.67 1295.7C146.777 1289.43 160.862 1293.35 167.124 1304.45C173.396 1315.56 169.474 1329.65 158.371 1335.91C147.271 1342.18 133.188 1338.26 126.917 1327.16C120.648 1316.06 124.573 1301.98 135.67 1295.7Z" fill="#F47820" fill-opacity="0.05"/>
<path d="M78.5581 1332.9C87.5876 1327.82 99.0372 1331 104.133 1340.02C109.229 1349.05 106.038 1360.49 97.0148 1365.6C87.9853 1370.69 76.5358 1367.51 71.447 1358.48C66.3513 1349.45 69.5316 1338 78.5581 1332.9Z" fill="#F47820" fill-opacity="0.05"/>
<path d="M26.835 1365.27C34.5355 1360.92 44.3081 1363.64 48.6567 1371.34C53.0054 1379.04 50.2883 1388.82 42.5848 1393.16C34.8773 1397.51 25.1077 1394.8 20.756 1387.09C16.4144 1379.39 19.1274 1369.62 26.835 1365.27Z" fill="#F47820" fill-opacity="0.05"/>
<path d="M-19.8421 1394.99C-13.5491 1391.45 -5.57951 1393.67 -2.03046 1399.96C1.52556 1406.24 -0.696383 1414.22 -6.98347 1417.77C-13.2735 1421.32 -21.2491 1419.09 -24.8021 1412.81C-28.3512 1406.52 -26.1322 1398.54 -19.8421 1394.99Z" fill="#F47820" fill-opacity="0.05"/>
<path d="M161.86 1187.01C174.836 1179.69 191.292 1184.27 198.617 1197.24C205.942 1210.22 201.365 1226.68 188.388 1234.01C175.415 1241.34 158.946 1236.75 151.628 1223.77C144.296 1210.8 148.886 1194.34 161.86 1187.01Z" fill="#F47820" fill-opacity="0.05"/>
<path d="M97.3849 1227.89C108.485 1221.62 122.574 1225.53 128.839 1236.64C135.108 1247.74 131.193 1261.82 120.086 1268.1C108.986 1274.36 94.9006 1270.44 88.6318 1259.34C82.36 1248.24 86.2849 1234.16 97.3849 1227.89Z" fill="#F47820" fill-opacity="0.05"/>
<path d="M40.2733 1265.09C49.2998 1259.99 60.7494 1263.17 65.8451 1272.2C70.9437 1281.23 67.7536 1292.68 58.727 1297.78C49.7074 1302.87 38.2509 1299.69 33.1592 1290.66C28.0665 1281.64 31.2467 1270.19 40.2733 1265.09Z" fill="#F47820" fill-opacity="0.05"/>
<path d="M-11.4534 1297.45C-3.75282 1293.1 6.01977 1295.82 10.3714 1303.53C14.72 1311.23 12 1321 4.29942 1325.35C-3.40808 1329.7 -13.1807 1326.98 -17.5293 1319.28C-21.874 1311.57 -19.1609 1301.8 -11.4534 1297.45Z" fill="#F47820" fill-opacity="0.05"/>
<path d="M123.574 1119.2C136.548 1111.87 153.003 1116.45 160.328 1129.42C167.663 1142.4 163.077 1158.86 150.103 1166.19C137.126 1173.52 120.661 1168.94 113.343 1155.96C106.011 1142.98 110.597 1126.52 123.574 1119.2Z" fill="#F47820" fill-opacity="0.05"/>
<path d="M59.1002 1160.07C70.2002 1153.8 84.2857 1157.72 90.5546 1168.82C96.8263 1179.93 92.9045 1194.01 81.7945 1200.28C70.6945 1206.55 56.6119 1202.63 50.3471 1191.52C44.0783 1180.42 47.9961 1166.35 59.1002 1160.07Z" fill="#F47820" fill-opacity="0.05"/>
<path d="M1.98843 1197.27C11.018 1192.18 22.4605 1195.36 27.5562 1204.39C32.6519 1213.42 29.4687 1224.86 20.4382 1229.96C11.4156 1235.05 -0.0339102 1231.87 -5.12962 1222.84C-10.2253 1213.82 -7.03812 1202.36 1.98843 1197.27Z" fill="#F47820" fill-opacity="0.05"/>
<path d="M85.2856 1051.38C98.2623 1044.05 114.718 1048.63 122.043 1061.61C129.375 1074.58 124.791 1091.05 111.814 1098.37C98.8406 1105.71 82.3792 1101.11 75.0542 1088.14C67.7223 1075.16 72.3089 1058.7 85.2856 1051.38Z" fill="#F47820" fill-opacity="0.05"/>
<path d="M20.8105 1092.25C31.9146 1085.97 46.0001 1089.9 52.2649 1101.01C58.5337 1112.11 54.6188 1126.19 43.5089 1132.45C32.4118 1138.73 18.3263 1134.81 12.0574 1123.71C5.78564 1112.6 9.71047 1098.52 20.8105 1092.25Z" fill="#F47820" fill-opacity="0.05"/>
<path d="M47.0006 983.565C59.9744 976.233 76.4298 980.812 83.7548 993.789C91.0898 1006.77 86.5031 1023.23 73.5294 1030.56C60.5527 1037.89 44.0942 1033.3 36.7692 1020.32C29.4373 1007.35 34.0239 990.89 47.0006 983.565Z" fill="#F47820" fill-opacity="0.05"/>
<path d="M-17.4738 1024.43C-6.37377 1018.16 7.71175 1022.08 13.9806 1033.18C20.2524 1044.29 16.3305 1058.38 5.22054 1064.64C-5.8795 1070.91 -19.9621 1067 -26.2269 1055.89C-32.4987 1044.78 -28.5808 1030.7 -17.4738 1024.43Z" fill="#F47820" fill-opacity="0.05"/>
<path d="M8.7124 915.745C21.6891 908.42 38.1446 912.999 45.4696 925.976C52.8016 938.95 48.2179 955.415 35.2412 962.74C22.2645 970.065 5.79908 965.481 -1.51898 952.502C-8.85095 939.528 -4.26432 923.07 8.7124 915.745Z" fill="#F47820" fill-opacity="0.05"/>
<path d="M-29.5762 847.924C-16.5995 840.599 -0.144046 845.179 7.18097 858.156C14.5129 871.129 9.92928 887.595 -3.04447 894.927C-16.0212 902.252 -32.4866 897.668 -39.8046 884.688C-47.1366 871.715 -42.55 855.256 -29.5762 847.924Z" fill="#F47820" fill-opacity="0.05"/>
</svg>
