<svg width="836" height="1920" viewBox="0 0 836 1920" fill="none" xmlns="http://www.w3.org/2000/svg">
<path d="M793.577 5.71667C780.6 13.0417 764.144 8.46202 756.819 -4.5147C749.487 -17.4885 754.071 -33.9538 767.048 -41.2788C780.025 -48.6039 796.49 -44.0202 803.808 -31.0405C811.14 -18.0668 806.553 -1.60834 793.577 5.71667Z" fill="#28AFB0" fill-opacity="0.05"/>
<path d="M831.864 73.5335C818.887 80.8585 802.432 76.2789 795.107 63.3022C787.775 50.3284 792.358 33.863 805.335 26.538C818.312 19.213 834.777 23.7967 842.095 36.7764C849.427 49.7501 844.84 66.2085 831.864 73.5335Z" fill="#28AFB0" fill-opacity="0.05"/>
<path d="M870.149 141.351C857.173 148.676 840.717 144.096 833.392 131.119C826.06 118.146 830.644 101.68 843.621 94.3553C856.597 87.0303 873.063 91.6139 880.381 104.594C887.713 117.567 883.126 134.026 870.149 141.351Z" fill="#28AFB0" fill-opacity="0.05"/>
<path d="M834.343 1201.73C835.198 1201.25 836.282 1201.55 836.762 1202.4C837.243 1203.26 836.947 1204.34 836.091 1204.82C835.236 1205.3 834.155 1205.01 833.668 1204.15C833.187 1203.3 833.49 1202.21 834.343 1201.73Z" fill="#28AFB0" fill-opacity="0.05"/>
<path d="M813.602 1214.15C814.156 1213.83 814.866 1214.03 815.181 1214.59C815.5 1215.15 815.302 1215.86 814.744 1216.17C814.18 1216.48 813.48 1216.29 813.158 1215.73C812.846 1215.17 813.044 1214.46 813.602 1214.15Z" fill="#28AFB0" fill-opacity="0.05"/>
<path d="M817.985 1120.47C819.286 1119.74 820.936 1120.2 821.661 1121.49C822.399 1122.8 821.931 1124.44 820.643 1125.18C819.342 1125.9 817.699 1125.45 816.967 1124.15C816.228 1122.85 816.687 1121.21 817.985 1120.47Z" fill="#28AFB0" fill-opacity="0.05"/>
<path d="M796.054 1133.91C796.907 1133.43 797.99 1133.73 798.478 1134.58C798.958 1135.44 798.656 1136.52 797.803 1137.01C796.947 1137.49 795.864 1137.19 795.376 1136.33C794.896 1135.48 795.205 1134.39 796.054 1133.91Z" fill="#28AFB0" fill-opacity="0.05"/>
<path d="M775.314 1146.33C775.872 1146.01 776.582 1146.21 776.894 1146.77C777.213 1147.33 777.014 1148.04 776.46 1148.35C775.892 1148.66 775.192 1148.47 774.873 1147.91C774.561 1147.36 774.76 1146.65 775.314 1146.33Z" fill="#28AFB0" fill-opacity="0.05"/>
<path d="M829.401 1021.29C832.081 1019.79 835.477 1020.73 836.99 1023.41C838.506 1026.09 837.556 1029.49 834.879 1031C832.202 1032.52 828.803 1031.57 827.287 1028.88C825.774 1026.21 826.724 1022.81 829.401 1021.29Z" fill="#28AFB0" fill-opacity="0.05"/>
<path d="M803.373 1037.81C805.291 1036.74 807.718 1037.41 808.806 1039.32C809.88 1041.24 809.205 1043.67 807.29 1044.75C805.374 1045.83 802.948 1045.16 801.867 1043.24C800.779 1041.33 801.458 1038.89 803.373 1037.81Z" fill="#28AFB0" fill-opacity="0.05"/>
<path d="M779.7 1052.66C781.001 1051.93 782.648 1052.38 783.377 1053.68C784.112 1054.98 783.647 1056.62 782.355 1057.35C781.054 1058.08 779.414 1057.63 778.679 1056.33C777.941 1055.03 778.399 1053.39 779.7 1052.66Z" fill="#28AFB0" fill-opacity="0.05"/>
<path d="M757.77 1066.09C758.625 1065.61 759.709 1065.91 760.189 1066.77C760.67 1067.63 760.374 1068.71 759.518 1069.19C758.663 1069.67 757.582 1069.37 757.095 1068.52C756.614 1067.66 756.917 1066.58 757.77 1066.09Z" fill="#28AFB0" fill-opacity="0.05"/>
<path d="M737.029 1078.51C737.584 1078.19 738.294 1078.39 738.609 1078.96C738.928 1079.51 738.729 1080.22 738.171 1080.53C737.607 1080.85 736.907 1080.65 736.585 1080.09C736.273 1079.54 736.471 1078.83 737.029 1078.51Z" fill="#28AFB0" fill-opacity="0.05"/>
<path d="M819.95 935.258C823.441 933.282 827.874 934.515 829.852 938.013C831.821 941.507 830.588 945.94 827.087 947.911C823.596 949.887 819.163 948.654 817.195 945.16C815.216 941.662 816.456 937.226 819.95 935.258Z" fill="#28AFB0" fill-opacity="0.05"/>
<path d="M791.116 953.48C793.792 951.967 797.189 952.91 798.702 955.587C800.218 958.271 799.268 961.671 796.591 963.184C793.914 964.697 790.517 963.753 789.001 961.069C787.488 958.393 788.439 954.993 791.116 953.48Z" fill="#28AFB0" fill-opacity="0.05"/>
<path d="M765.087 969.998C767.002 968.917 769.429 969.591 770.517 971.504C771.591 973.422 770.919 975.856 769.004 976.937C767.088 978.018 764.659 977.336 763.578 975.421C762.49 973.508 763.172 971.079 765.087 969.998Z" fill="#28AFB0" fill-opacity="0.05"/>
<path d="M741.412 984.836C742.713 984.108 744.36 984.556 745.088 985.858C745.826 987.163 745.365 988.799 744.067 989.534C742.769 990.269 741.126 989.811 740.394 988.52C739.655 987.215 740.114 985.572 741.412 984.836Z" fill="#28AFB0" fill-opacity="0.05"/>
<path d="M719.484 998.279C720.337 997.791 721.42 998.094 721.901 998.95C722.381 999.806 722.086 1000.89 721.233 1001.37C720.37 1001.86 719.294 1001.55 718.806 1000.7C718.326 999.843 718.628 998.759 719.484 998.279Z" fill="#28AFB0" fill-opacity="0.05"/>
<path d="M698.74 1010.69C699.298 1010.38 700.008 1010.58 700.32 1011.14C700.639 1011.69 700.441 1012.4 699.886 1012.72C699.318 1013.03 698.618 1012.83 698.299 1012.28C697.984 1011.72 698.186 1011.01 698.74 1010.69Z" fill="#28AFB0" fill-opacity="0.05"/>
<path d="M813.74 846.497C818.424 843.848 824.356 845.51 827.003 850.187C829.642 854.866 827.99 860.803 823.313 863.449C818.627 866.092 812.69 864.44 810.051 859.76C807.401 855.076 809.053 849.14 813.74 846.497Z" fill="#28AFB0" fill-opacity="0.05"/>
<path d="M781.661 867.438C785.152 865.462 789.585 866.695 791.564 870.193C793.533 873.687 792.303 878.127 788.799 880.091C785.308 882.067 780.875 880.834 778.906 877.34C776.928 873.843 778.17 869.413 781.661 867.438Z" fill="#28AFB0" fill-opacity="0.05"/>
<path d="M752.827 885.66C755.507 884.154 758.903 885.098 760.416 887.774C761.932 890.458 760.982 893.858 758.305 895.371C755.628 896.884 752.229 895.933 750.713 893.25C749.2 890.573 750.15 887.173 752.827 885.66Z" fill="#28AFB0" fill-opacity="0.05"/>
<path d="M726.8 902.177C728.718 901.103 731.144 901.778 732.232 903.69C733.306 905.609 732.632 908.035 730.716 909.116C728.801 910.197 726.374 909.522 725.293 907.607C724.205 905.695 724.884 903.258 726.8 902.177Z" fill="#28AFB0" fill-opacity="0.05"/>
<path d="M703.126 917.023C704.424 916.288 706.074 916.743 706.799 918.037C707.537 919.343 707.079 920.986 705.781 921.721C704.48 922.449 702.84 921.998 702.104 920.7C701.366 919.395 701.824 917.752 703.126 917.023Z" fill="#28AFB0" fill-opacity="0.05"/>
<path d="M681.196 930.458C682.052 929.978 683.135 930.28 683.616 931.136C684.096 931.992 683.801 933.072 682.945 933.553C682.089 934.033 681.009 933.738 680.522 932.885C680.041 932.029 680.343 930.946 681.196 930.458Z" fill="#28AFB0" fill-opacity="0.05"/>
<path d="M660.455 942.879C661.01 942.56 661.72 942.759 662.035 943.323C662.354 943.878 662.152 944.581 661.598 944.9C661.033 945.215 660.33 945.013 660.011 944.459C659.699 943.901 659.898 943.191 660.455 942.879Z" fill="#28AFB0" fill-opacity="0.05"/>
<path d="M816.46 751.691C822.751 748.142 830.72 750.357 834.276 756.644C837.828 762.941 835.606 770.914 829.316 774.463C823.026 778.012 815.054 775.79 811.504 769.5C807.948 763.213 810.167 755.233 816.46 751.691Z" fill="#28AFB0" fill-opacity="0.05"/>
<path d="M775.452 778.677C780.139 776.035 786.068 777.69 788.714 782.366C791.357 787.053 789.702 792.982 785.028 795.636C780.341 798.278 774.402 796.619 771.763 791.939C769.116 787.263 770.765 781.319 775.452 778.677Z" fill="#28AFB0" fill-opacity="0.05"/>
<path d="M743.376 799.624C746.867 797.648 751.3 798.881 753.278 802.379C755.247 805.873 754.014 810.306 750.513 812.278C747.022 814.254 742.589 813.021 740.621 809.527C738.642 806.029 739.882 801.593 743.376 799.624Z" fill="#28AFB0" fill-opacity="0.05"/>
<path d="M714.542 817.845C717.219 816.333 720.615 817.276 722.128 819.953C723.644 822.636 722.694 826.036 720.017 827.549C717.34 829.062 713.944 828.119 712.428 825.435C710.915 822.758 711.865 819.358 714.542 817.845Z" fill="#28AFB0" fill-opacity="0.05"/>
<path d="M688.514 834.364C690.43 833.283 692.856 833.958 693.944 835.87C695.018 837.789 694.347 840.222 692.431 841.303C690.516 842.384 688.086 841.702 687.005 839.787C685.917 837.874 686.599 835.445 688.514 834.364Z" fill="#28AFB0" fill-opacity="0.05"/>
<path d="M664.838 849.203C666.139 848.475 667.787 848.923 668.515 850.224C669.253 851.529 668.792 853.165 667.494 853.901C666.195 854.636 664.552 854.178 663.817 852.879C663.082 851.581 663.537 849.931 664.838 849.203Z" fill="#28AFB0" fill-opacity="0.05"/>
<path d="M642.911 862.645C643.764 862.157 644.847 862.46 645.327 863.316C645.808 864.172 645.512 865.252 644.66 865.739C643.801 866.213 642.721 865.917 642.233 865.065C641.752 864.209 642.055 863.126 642.911 862.645Z" fill="#28AFB0" fill-opacity="0.05"/>
<path d="M622.167 875.059C622.725 874.747 623.435 874.946 623.747 875.503C624.066 876.058 623.867 876.768 623.313 877.087C622.745 877.395 622.045 877.2 621.726 876.646C621.411 876.081 621.613 875.378 622.167 875.059Z" fill="#28AFB0" fill-opacity="0.05"/>
<path d="M824.849 654.143C832.554 649.785 842.322 652.515 846.671 660.215C851.019 667.916 848.299 677.689 840.599 682.037C832.891 686.389 823.119 683.669 818.77 675.968C814.425 668.258 817.142 658.495 824.849 654.143Z" fill="#28AFB0" fill-opacity="0.05"/>
<path d="M778.172 683.871C784.462 680.322 792.434 682.544 795.987 688.824C799.539 695.121 797.317 703.093 791.03 706.649C784.737 710.191 776.765 707.969 773.219 701.686C769.663 695.399 771.882 687.42 778.172 683.871Z" fill="#28AFB0" fill-opacity="0.05"/>
<path d="M737.164 710.857C741.851 708.214 747.79 709.873 750.43 714.553C753.069 719.233 751.417 725.169 746.741 727.815C742.054 730.458 736.118 728.806 733.475 724.119C730.829 719.442 732.481 713.506 737.164 710.857Z" fill="#28AFB0" fill-opacity="0.05"/>
<path d="M705.088 731.803C708.579 729.828 713.012 731.06 714.99 734.558C716.959 738.052 715.726 742.485 712.225 744.457C708.735 746.433 704.301 745.2 702.333 741.706C700.354 738.208 701.597 733.779 705.088 731.803Z" fill="#28AFB0" fill-opacity="0.05"/>
<path d="M676.254 750.026C678.93 748.513 682.33 749.463 683.843 752.14C685.359 754.824 684.409 758.223 681.732 759.736C679.052 761.242 675.655 760.299 674.139 757.615C672.626 754.938 673.577 751.539 676.254 750.026Z" fill="#28AFB0" fill-opacity="0.05"/>
<path d="M650.226 766.544C652.144 765.47 654.571 766.144 655.659 768.057C656.733 769.975 656.058 772.402 654.142 773.483C652.227 774.564 649.801 773.889 648.72 771.973C647.632 770.061 648.31 767.625 650.226 766.544Z" fill="#28AFB0" fill-opacity="0.05"/>
<path d="M626.553 781.389C627.851 780.654 629.501 781.109 630.226 782.403C630.964 783.708 630.506 785.351 629.208 786.086C627.907 786.815 626.264 786.356 625.532 785.065C624.793 783.76 625.252 782.117 626.553 781.389Z" fill="#28AFB0" fill-opacity="0.05"/>
<path d="M604.623 794.825C605.478 794.344 606.562 794.647 607.042 795.502C607.523 796.358 607.227 797.438 606.371 797.919C605.516 798.4 604.435 798.104 603.948 797.251C603.467 796.395 603.77 795.312 604.623 794.825Z" fill="#28AFB0" fill-opacity="0.05"/>
<path d="M583.882 807.246C584.437 806.927 585.146 807.125 585.461 807.69C585.781 808.245 585.579 808.948 585.024 809.267C584.467 809.579 583.757 809.38 583.438 808.825C583.126 808.268 583.324 807.558 583.882 807.246Z" fill="#28AFB0" fill-opacity="0.05"/>
<path d="M838.291 553.965C847.317 548.87 858.76 552.053 863.855 561.079C868.954 570.113 865.768 581.548 856.744 586.651C847.718 591.747 836.268 588.567 831.17 579.533C826.074 570.506 829.261 559.054 838.291 553.965Z" fill="#28AFB0" fill-opacity="0.05"/>
<path d="M786.56 586.323C794.268 581.971 804.034 584.694 808.382 592.395C812.734 600.103 810.014 609.875 802.313 614.224C794.606 618.575 784.833 615.855 780.482 608.148C776.14 600.444 778.853 590.675 786.56 586.323Z" fill="#28AFB0" fill-opacity="0.05"/>
<path d="M739.886 616.057C746.176 612.508 754.146 614.723 757.702 621.01C761.251 627.3 759.029 635.273 752.742 638.829C746.452 642.378 738.479 640.156 734.93 633.866C731.374 627.579 733.593 619.599 739.886 616.057Z" fill="#28AFB0" fill-opacity="0.05"/>
<path d="M698.878 643.042C703.565 640.4 709.501 642.052 712.141 646.732C714.783 651.418 713.128 657.348 708.451 659.994C703.768 662.644 697.828 660.985 695.189 656.305C692.543 651.628 694.192 645.685 698.878 643.042Z" fill="#28AFB0" fill-opacity="0.05"/>
<path d="M666.799 663.983C670.293 662.015 674.726 663.248 676.705 666.745C678.674 670.239 677.441 674.672 673.94 676.644C670.449 678.62 666.013 677.38 664.047 673.893C662.069 670.395 663.308 665.959 666.799 663.983Z" fill="#28AFB0" fill-opacity="0.05"/>
<path d="M637.968 682.212C640.645 680.699 644.041 681.642 645.554 684.319C647.07 687.003 646.12 690.402 643.443 691.915C640.766 693.428 637.37 692.485 635.854 689.801C634.341 687.124 635.291 683.725 637.968 682.212Z" fill="#28AFB0" fill-opacity="0.05"/>
<path d="M611.941 698.73C613.856 697.649 616.283 698.323 617.371 700.236C618.445 702.154 617.773 704.588 615.858 705.669C613.939 706.743 611.513 706.068 610.432 704.153C609.351 702.237 610.026 699.811 611.941 698.73Z" fill="#28AFB0" fill-opacity="0.05"/>
<path d="M588.268 713.568C589.569 712.839 591.209 713.291 591.944 714.589C592.68 715.887 592.215 717.533 590.923 718.265C589.618 719.004 587.975 718.545 587.247 717.244C586.512 715.946 586.967 714.296 588.268 713.568Z" fill="#28AFB0" fill-opacity="0.05"/>
<path d="M566.337 727.01C567.19 726.523 568.273 726.825 568.754 727.681C569.234 728.537 568.939 729.617 568.086 730.105C567.227 730.578 566.147 730.283 565.66 729.43C565.179 728.574 565.481 727.491 566.337 727.01Z" fill="#28AFB0" fill-opacity="0.05"/>
<path d="M545.594 739.425C546.151 739.113 546.861 739.312 547.173 739.869C547.492 740.424 547.294 741.134 546.736 741.446C546.172 741.761 545.472 741.566 545.153 741.012C544.837 740.447 545.039 739.744 545.594 739.425Z" fill="#28AFB0" fill-opacity="0.05"/>
<path d="M800.002 486.145C809.032 481.056 820.475 484.239 825.567 493.259C830.673 502.289 827.483 513.735 818.459 518.837C809.43 523.926 797.98 520.746 792.881 511.712C787.789 502.693 790.976 491.24 800.002 486.145Z" fill="#28AFB0" fill-opacity="0.05"/>
<path d="M748.275 518.51C755.979 514.151 765.748 516.881 770.097 524.582C774.445 532.282 771.725 542.055 764.025 546.404C756.317 550.755 746.545 548.035 742.196 540.335C737.851 532.624 740.564 522.855 748.275 518.51Z" fill="#28AFB0" fill-opacity="0.05"/>
<path d="M701.598 548.237C707.889 544.688 715.861 546.91 719.407 553.193C722.966 559.487 720.744 567.459 714.457 571.015C708.164 574.558 700.192 572.336 696.645 566.053C693.089 559.765 695.308 551.786 701.598 548.237Z" fill="#28AFB0" fill-opacity="0.05"/>
<path d="M660.59 575.222C665.277 572.58 671.216 574.239 673.856 578.918C676.495 583.598 674.843 589.534 670.166 592.181C665.48 594.823 659.543 593.171 656.901 588.485C654.254 583.808 655.906 577.871 660.59 575.222Z" fill="#28AFB0" fill-opacity="0.05"/>
<path d="M628.514 596.17C632.005 594.194 636.438 595.427 638.416 598.925C640.385 602.419 639.152 606.852 635.652 608.824C632.161 610.799 627.727 609.567 625.759 606.073C623.78 602.575 625.023 598.146 628.514 596.17Z" fill="#28AFB0" fill-opacity="0.05"/>
<path d="M599.68 614.391C602.357 612.878 605.756 613.828 607.269 616.505C608.785 619.189 607.835 622.589 605.158 624.101C602.478 625.607 599.082 624.664 597.566 621.98C596.053 619.304 597.003 615.904 599.68 614.391Z" fill="#28AFB0" fill-opacity="0.05"/>
<path d="M573.653 630.91C575.568 629.829 577.998 630.51 579.085 632.423C580.159 634.341 579.485 636.768 577.569 637.849C575.654 638.93 573.227 638.255 572.146 636.34C571.058 634.427 571.737 631.991 573.653 630.91Z" fill="#28AFB0" fill-opacity="0.05"/>
<path d="M549.979 645.755C551.277 645.02 552.927 645.475 553.653 646.769C554.391 648.074 553.933 649.717 552.635 650.453C551.333 651.181 549.69 650.723 548.958 649.431C548.22 648.126 548.678 646.483 549.979 645.755Z" fill="#28AFB0" fill-opacity="0.05"/>
<path d="M528.049 659.19C528.902 658.702 529.988 659.012 530.468 659.867C530.949 660.723 530.653 661.804 529.798 662.284C528.942 662.765 527.862 662.469 527.374 661.616C526.894 660.76 527.196 659.677 528.049 659.19Z" fill="#28AFB0" fill-opacity="0.05"/>
<path d="M507.308 671.611C507.863 671.292 508.573 671.491 508.888 672.055C509.207 672.61 509.005 673.313 508.451 673.632C507.89 673.937 507.183 673.745 506.864 673.191C506.552 672.633 506.751 671.923 507.308 671.611Z" fill="#28AFB0" fill-opacity="0.05"/>
<path d="M818.827 381.125C829.927 374.856 844.012 378.778 850.281 389.878C856.553 400.985 852.628 415.064 841.521 421.336C830.421 427.604 816.336 423.683 810.074 412.58C803.802 401.473 807.72 387.397 818.827 381.125Z" fill="#28AFB0" fill-opacity="0.05"/>
<path d="M761.716 418.328C770.742 413.232 782.188 416.422 787.283 425.449C792.386 434.473 789.196 445.918 780.169 451.014C771.143 456.109 759.693 452.929 754.598 443.903C749.502 434.876 752.689 423.424 761.716 418.328Z" fill="#28AFB0" fill-opacity="0.05"/>
<path d="M709.987 450.689C717.695 446.338 727.461 449.061 731.812 456.768C736.161 464.469 733.441 474.241 725.737 478.583C718.03 482.935 708.257 480.215 703.909 472.514C699.567 464.811 702.28 455.041 709.987 450.689Z" fill="#28AFB0" fill-opacity="0.05"/>
<path d="M663.312 480.42C669.602 476.871 677.575 479.093 681.124 485.383C684.68 491.67 682.458 499.642 676.168 503.191C669.881 506.747 661.905 504.518 658.359 498.235C654.803 491.948 657.022 483.969 663.312 480.42Z" fill="#28AFB0" fill-opacity="0.05"/>
<path d="M622.305 507.408C626.989 504.759 632.921 506.421 635.568 511.098C638.217 515.781 636.555 521.714 631.878 524.36C627.192 527.003 621.256 525.351 618.616 520.671C615.967 515.987 617.619 510.051 622.305 507.408Z" fill="#28AFB0" fill-opacity="0.05"/>
<path d="M590.228 528.353C593.719 526.377 598.152 527.61 600.131 531.108C602.099 534.602 600.867 539.035 597.366 541.007C593.875 542.982 589.442 541.749 587.473 538.256C585.501 534.755 586.737 530.329 590.228 528.353Z" fill="#28AFB0" fill-opacity="0.05"/>
<path d="M561.395 546.578C564.072 545.065 567.468 546.008 568.981 548.685C570.497 551.369 569.547 554.769 566.87 556.282C564.193 557.795 560.794 556.844 559.281 554.167C557.768 551.491 558.715 548.084 561.395 546.578Z" fill="#28AFB0" fill-opacity="0.05"/>
<path d="M535.367 563.096C537.282 562.015 539.709 562.689 540.797 564.602C541.871 566.52 541.199 568.954 539.281 570.028C537.368 571.116 534.939 570.434 533.858 568.518C532.777 566.603 533.451 564.176 535.367 563.096Z" fill="#28AFB0" fill-opacity="0.05"/>
<path d="M511.694 577.933C512.995 577.205 514.639 577.663 515.371 578.954C516.106 580.252 515.641 581.898 514.35 582.63C513.044 583.369 511.401 582.91 510.673 581.609C509.938 580.311 510.393 578.661 511.694 577.933Z" fill="#28AFB0" fill-opacity="0.05"/>
<path d="M489.762 591.373C490.618 590.892 491.701 591.195 492.182 592.051C492.659 592.899 492.367 593.987 491.511 594.467C490.655 594.948 489.572 594.645 489.085 593.792C488.604 592.937 488.906 591.853 489.762 591.373Z" fill="#28AFB0" fill-opacity="0.05"/>
<path d="M469.02 603.791C469.577 603.479 470.284 603.67 470.599 604.235C470.918 604.79 470.72 605.499 470.162 605.812C469.597 606.127 468.897 605.932 468.575 605.37C468.263 604.813 468.462 604.103 469.02 603.791Z" fill="#28AFB0" fill-opacity="0.05"/>
<path d="M845.013 272.437C857.99 265.112 874.445 269.692 881.77 282.669C889.102 295.642 884.519 312.108 871.542 319.433C858.565 326.758 842.107 322.171 834.782 309.195C827.45 296.221 832.036 279.762 845.013 272.437Z" fill="#28AFB0" fill-opacity="0.05"/>
<path d="M780.54 313.309C791.64 307.04 805.726 310.962 811.995 322.062C818.266 333.169 814.342 347.247 803.234 353.519C792.134 359.788 778.049 355.866 771.787 344.763C765.518 333.663 769.433 319.581 780.54 313.309Z" fill="#28AFB0" fill-opacity="0.05"/>
<path d="M723.429 350.511C732.455 345.415 743.901 348.605 748.997 357.632C754.092 366.658 750.909 378.101 741.882 383.196C732.856 388.292 721.406 385.112 716.311 376.085C711.212 367.052 714.402 355.606 723.429 350.511Z" fill="#28AFB0" fill-opacity="0.05"/>
<path d="M671.7 382.872C679.408 378.521 689.173 381.244 693.525 388.951C697.874 396.652 695.154 406.424 687.45 410.766C679.743 415.118 669.97 412.398 665.621 404.697C661.28 396.994 663.993 387.224 671.7 382.872Z" fill="#28AFB0" fill-opacity="0.05"/>
<path d="M625.024 412.603C631.314 409.054 639.287 411.276 642.84 417.556C646.392 423.853 644.17 431.825 637.88 435.374C631.593 438.93 623.617 436.702 620.071 430.418C616.515 424.131 618.734 416.152 625.024 412.603Z" fill="#28AFB0" fill-opacity="0.05"/>
<path d="M584.018 439.592C588.702 436.942 594.641 438.601 597.28 443.281C599.92 447.961 598.268 453.897 593.591 456.543C588.904 459.186 582.968 457.534 580.329 452.854C577.679 448.17 579.331 442.234 584.018 439.592Z" fill="#28AFB0" fill-opacity="0.05"/>
<path d="M551.941 460.536C555.432 458.56 559.865 459.793 561.844 463.291C563.812 466.785 562.58 471.218 559.079 473.189C555.588 475.165 551.155 473.932 549.186 470.438C547.207 466.94 548.447 462.504 551.941 460.536Z" fill="#28AFB0" fill-opacity="0.05"/>
<path d="M523.107 478.757C525.787 477.251 529.183 478.195 530.696 480.871C532.209 483.548 531.259 486.948 528.582 488.461C525.905 489.974 522.509 489.03 520.993 486.347C519.48 483.67 520.43 480.27 523.107 478.757Z" fill="#28AFB0" fill-opacity="0.05"/>
<path d="M497.079 495.275C498.995 494.194 501.424 494.876 502.509 496.781C503.59 498.697 502.911 501.133 500.996 502.214C499.081 503.295 496.654 502.62 495.573 500.705C494.489 498.782 495.164 496.356 497.079 495.275Z" fill="#28AFB0" fill-opacity="0.05"/>
<path d="M473.408 510.116C474.706 509.381 476.352 509.846 477.084 511.137C477.819 512.435 477.354 514.082 476.063 514.814C474.765 515.549 473.115 515.094 472.386 513.793C471.651 512.494 472.106 510.844 473.408 510.116Z" fill="#28AFB0" fill-opacity="0.05"/>
<path d="M451.475 523.556C452.331 523.075 453.414 523.378 453.895 524.234C454.373 525.083 454.08 526.17 453.224 526.65C452.368 527.131 451.285 526.828 450.798 525.976C450.317 525.12 450.62 524.037 451.475 523.556Z" fill="#28AFB0" fill-opacity="0.05"/>
<path d="M430.733 535.973C431.291 535.661 431.998 535.853 432.313 536.418C432.632 536.972 432.433 537.682 431.876 537.994C431.318 538.306 430.608 538.108 430.289 537.553C429.977 536.995 430.176 536.285 430.733 535.973Z" fill="#28AFB0" fill-opacity="0.05"/>
<path d="M806.726 204.621C819.703 197.296 836.158 201.875 843.483 214.852C850.815 227.826 846.232 244.291 833.255 251.616C820.278 258.941 803.82 254.355 796.495 241.378C789.163 228.404 793.75 211.946 806.726 204.621Z" fill="#28AFB0" fill-opacity="0.05"/>
<path d="M742.254 245.492C753.354 239.223 767.439 243.145 773.708 254.245C779.98 265.352 776.055 279.43 764.955 285.699C753.848 291.971 739.762 288.049 733.501 276.946C727.229 265.839 731.154 251.761 742.254 245.492Z" fill="#28AFB0" fill-opacity="0.05"/>
<path d="M685.142 282.694C694.169 277.598 705.614 280.788 710.71 289.815C715.806 298.841 712.622 310.284 703.596 315.379C694.569 320.475 683.12 317.295 678.024 308.268C672.925 299.235 676.116 287.789 685.142 282.694Z" fill="#28AFB0" fill-opacity="0.05"/>
<path d="M633.413 315.055C641.121 310.704 650.886 313.427 655.238 321.134C659.586 328.835 656.866 338.608 649.163 342.949C641.455 347.301 631.683 344.581 627.334 336.88C622.992 329.177 625.705 319.407 633.413 315.055Z" fill="#28AFB0" fill-opacity="0.05"/>
<path d="M586.738 344.786C593.028 341.237 601.001 343.459 604.554 349.739C608.106 356.036 605.884 364.009 599.594 367.558C593.304 371.107 585.331 368.885 581.785 362.602C578.229 356.315 580.448 348.335 586.738 344.786Z" fill="#28AFB0" fill-opacity="0.05"/>
<path d="M545.732 371.775C550.416 369.125 556.348 370.787 558.995 375.464C561.644 380.148 559.982 386.08 555.305 388.726C550.619 391.369 544.682 389.717 542.043 385.037C539.393 380.353 541.045 374.417 545.732 371.775Z" fill="#28AFB0" fill-opacity="0.05"/>
<path d="M513.653 392.719C517.144 390.743 521.577 391.976 523.556 395.474C525.525 398.968 524.292 403.401 520.791 405.372C517.3 407.348 512.867 406.115 510.898 402.621C508.927 399.12 510.162 394.694 513.653 392.719Z" fill="#28AFB0" fill-opacity="0.05"/>
<path d="M484.82 410.941C487.5 409.435 490.903 410.375 492.409 413.055C493.922 415.732 492.972 419.131 490.295 420.644C487.618 422.157 484.221 421.214 482.706 418.53C481.193 415.853 482.143 412.454 484.82 410.941Z" fill="#28AFB0" fill-opacity="0.05"/>
<path d="M458.792 427.458C460.708 426.377 463.134 427.052 464.222 428.964C465.303 430.88 464.624 433.316 462.709 434.397C460.793 435.478 458.367 434.803 457.286 432.888C456.202 430.966 456.877 428.539 458.792 427.458Z" fill="#28AFB0" fill-opacity="0.05"/>
<path d="M435.121 442.299C436.419 441.564 438.062 442.022 438.797 443.32C439.533 444.619 439.068 446.265 437.776 446.997C436.478 447.732 434.828 447.277 434.1 445.976C433.365 444.678 433.82 443.027 435.121 442.299Z" fill="#28AFB0" fill-opacity="0.05"/>
<path d="M413.189 455.739C414.044 455.259 415.128 455.561 415.608 456.417C416.086 457.266 415.793 458.353 414.937 458.833C414.082 459.314 412.998 459.012 412.511 458.159C412.03 457.303 412.333 456.22 413.189 455.739Z" fill="#28AFB0" fill-opacity="0.05"/>
<path d="M392.447 468.157C393.004 467.845 393.711 468.037 394.026 468.601C394.345 469.156 394.144 469.859 393.589 470.178C393.031 470.49 392.324 470.298 392.002 469.737C391.69 469.179 391.889 468.469 392.447 468.157Z" fill="#28AFB0" fill-opacity="0.05"/>
<path d="M768.44 136.804C781.416 129.479 797.872 134.058 805.197 147.035C812.529 160.009 807.952 176.471 794.968 183.799C781.992 191.124 765.533 186.537 758.208 173.561C750.876 160.587 755.463 144.129 768.44 136.804Z" fill="#28AFB0" fill-opacity="0.05"/>
<path d="M703.967 177.675C715.067 171.406 729.15 175.321 735.422 186.428C741.694 197.535 737.769 211.613 726.662 217.885C715.562 224.154 701.476 220.232 695.214 209.129C688.943 198.022 692.86 183.947 703.967 177.675Z" fill="#28AFB0" fill-opacity="0.05"/>
<path d="M646.855 214.877C655.882 209.782 667.327 212.972 672.423 221.998C677.526 231.022 674.335 242.467 665.309 247.563C656.282 252.659 644.833 249.479 639.737 240.452C634.638 231.418 637.829 219.973 646.855 214.877Z" fill="#28AFB0" fill-opacity="0.05"/>
<path d="M595.127 247.239C602.835 242.887 612.6 245.61 616.949 253.311C621.301 261.018 618.58 270.791 610.877 275.132C603.169 279.484 593.397 276.764 589.048 269.063C584.707 261.36 587.42 251.59 595.127 247.239Z" fill="#28AFB0" fill-opacity="0.05"/>
<path d="M548.451 276.969C554.741 273.42 562.714 275.642 566.267 281.922C569.816 288.212 567.597 296.191 561.307 299.741C555.017 303.29 547.045 301.068 543.498 294.785C539.942 288.497 542.161 280.518 548.451 276.969Z" fill="#28AFB0" fill-opacity="0.05"/>
<path d="M507.443 303.954C512.13 301.312 518.066 302.964 520.709 307.65C523.348 312.33 521.696 318.266 517.019 320.913C512.333 323.555 506.393 321.896 503.754 317.217C501.108 312.54 502.76 306.604 507.443 303.954Z" fill="#28AFB0" fill-opacity="0.05"/>
<path d="M475.367 324.901C478.858 322.926 483.291 324.158 485.27 327.656C487.238 331.15 486.006 335.583 482.505 337.555C479.021 339.528 474.581 338.298 472.612 334.804C470.633 331.306 471.873 326.87 475.367 324.901Z" fill="#28AFB0" fill-opacity="0.05"/>
<path d="M446.533 343.124C449.213 341.618 452.616 342.558 454.122 345.238C455.635 347.915 454.685 351.314 452.008 352.827C449.331 354.34 445.935 353.397 444.419 350.713C442.906 348.036 443.856 344.637 446.533 343.124Z" fill="#28AFB0" fill-opacity="0.05"/>
<path d="M420.505 359.641C422.421 358.56 424.847 359.235 425.935 361.148C427.016 363.063 426.337 365.5 424.422 366.581C422.506 367.662 420.08 366.987 418.999 365.071C417.915 363.149 418.59 360.722 420.505 359.641Z" fill="#28AFB0" fill-opacity="0.05"/>
<path d="M396.834 374.482C398.132 373.747 399.775 374.205 400.511 375.503C401.246 376.802 400.781 378.448 399.489 379.18C398.191 379.915 396.541 379.46 395.813 378.159C395.078 376.861 395.533 375.211 396.834 374.482Z" fill="#28AFB0" fill-opacity="0.05"/>
<path d="M374.902 387.922C375.758 387.441 376.841 387.744 377.322 388.6C377.799 389.449 377.507 390.536 376.651 391.016C375.795 391.497 374.712 391.194 374.224 390.342C373.744 389.486 374.046 388.403 374.902 387.922Z" fill="#28AFB0" fill-opacity="0.05"/>
<path d="M354.16 400.34C354.717 400.028 355.424 400.22 355.739 400.785C356.058 401.339 355.86 402.049 355.302 402.361C354.744 402.673 354.035 402.475 353.716 401.92C353.403 401.362 353.602 400.652 354.16 400.34Z" fill="#28AFB0" fill-opacity="0.05"/>
<path d="M730.153 68.9862C743.13 61.6612 759.585 66.2409 766.91 79.2176C774.242 92.1914 769.659 108.657 756.682 115.982C743.705 123.307 727.247 118.72 719.922 105.743C712.59 92.7697 717.176 76.3112 730.153 68.9862Z" fill="#28AFB0" fill-opacity="0.05"/>
<path d="M665.68 109.857C676.78 103.588 690.862 107.503 697.134 118.61C703.406 129.717 699.481 143.796 688.381 150.065C677.274 156.336 663.188 152.415 656.927 141.312C650.655 130.205 654.58 116.126 665.68 109.857Z" fill="#28AFB0" fill-opacity="0.05"/>
<path d="M608.568 147.06C617.594 141.964 629.04 145.154 634.133 154.174C639.231 163.207 636.048 174.65 627.022 179.745C617.995 184.841 606.546 181.661 601.457 172.631C596.351 163.601 599.541 152.155 608.568 147.06Z" fill="#28AFB0" fill-opacity="0.05"/>
<path d="M556.84 179.422C564.548 175.07 574.313 177.793 578.662 185.494C583.013 193.201 580.293 202.974 572.59 207.316C564.882 211.667 555.11 208.947 550.761 201.247C546.419 193.543 549.132 183.773 556.84 179.422Z" fill="#28AFB0" fill-opacity="0.05"/>
<path d="M510.164 209.151C516.454 205.602 524.427 207.824 527.98 214.104C531.532 220.401 529.31 228.374 523.02 231.923C516.73 235.472 508.757 233.25 505.211 226.967C501.652 220.673 503.874 212.7 510.164 209.151Z" fill="#28AFB0" fill-opacity="0.05"/>
<path d="M469.156 236.137C473.843 233.495 479.779 235.147 482.422 239.834C485.061 244.513 483.409 250.45 478.733 253.096C474.046 255.739 468.107 254.08 465.467 249.4C462.821 244.723 464.473 238.787 469.156 236.137Z" fill="#28AFB0" fill-opacity="0.05"/>
<path d="M437.08 257.084C440.571 255.109 445.004 256.342 446.983 259.839C448.952 263.333 447.719 267.766 444.218 269.738C440.727 271.714 436.294 270.481 434.325 266.987C432.347 263.489 433.586 259.053 437.08 257.084Z" fill="#28AFB0" fill-opacity="0.05"/>
<path d="M408.247 275.306C410.924 273.793 414.33 274.741 415.836 277.421C417.349 280.097 416.399 283.497 413.722 285.01C411.045 286.523 407.649 285.58 406.133 282.896C404.62 280.219 405.57 276.819 408.247 275.306Z" fill="#28AFB0" fill-opacity="0.05"/>
<path d="M382.219 291.824C384.134 290.743 386.561 291.418 387.649 293.33C388.73 295.246 388.051 297.682 386.136 298.763C384.22 299.844 381.794 299.169 380.713 297.254C379.629 295.332 380.304 292.905 382.219 291.824Z" fill="#28AFB0" fill-opacity="0.05"/>
<path d="M358.547 306.665C359.845 305.93 361.488 306.388 362.223 307.687C362.958 308.985 362.493 310.631 361.202 311.363C359.904 312.098 358.254 311.643 357.526 310.342C356.79 309.044 357.246 307.394 358.547 306.665Z" fill="#28AFB0" fill-opacity="0.05"/>
<path d="M336.615 320.105C337.471 319.625 338.554 319.927 339.035 320.783C339.512 321.632 339.22 322.719 338.364 323.199C337.508 323.68 336.425 323.378 335.937 322.525C335.457 321.669 335.759 320.586 336.615 320.105Z" fill="#28AFB0" fill-opacity="0.05"/>
<path d="M315.873 332.523C316.431 332.211 317.138 332.402 317.453 332.967C317.772 333.522 317.57 334.225 317.016 334.544C316.458 334.856 315.748 334.657 315.429 334.102C315.117 333.545 315.316 332.835 315.873 332.523Z" fill="#28AFB0" fill-opacity="0.05"/>
<path d="M691.866 1.16976C704.843 -6.15525 721.305 -1.57855 728.623 11.4011C735.955 24.3749 731.372 40.8403 718.395 48.1653C705.418 55.4903 688.96 50.9037 681.635 37.9269C674.303 24.9532 678.889 8.49477 691.866 1.16976Z" fill="#28AFB0" fill-opacity="0.05"/>
<path d="M627.393 42.0405C638.493 35.7717 652.576 39.6866 658.848 50.7936C665.119 61.9006 661.195 75.9791 650.094 82.248C638.987 88.5198 624.902 84.5979 618.64 73.4949C612.368 62.3879 616.286 48.3123 627.393 42.0405Z" fill="#28AFB0" fill-opacity="0.05"/>
<path d="M570.282 79.2421C579.308 74.1464 590.754 77.3366 595.847 86.3562C600.952 95.3867 597.762 106.832 588.735 111.928C579.709 117.024 568.259 113.843 563.161 104.81C558.065 95.7834 561.255 84.3378 570.282 79.2421Z" fill="#28AFB0" fill-opacity="0.05"/>
<path d="M518.553 111.604C526.261 107.253 536.026 109.976 540.375 117.676C544.727 125.384 542.006 135.156 534.303 139.498C526.595 143.85 516.823 141.129 512.481 133.426C508.133 125.725 510.846 115.956 518.553 111.604Z" fill="#28AFB0" fill-opacity="0.05"/>
<path d="M471.878 141.334C478.168 137.785 486.14 140.007 489.693 146.287C493.242 152.578 491.023 160.557 484.733 164.106C478.443 167.655 470.471 165.433 466.925 159.15C463.366 152.856 465.588 144.884 471.878 141.334Z" fill="#28AFB0" fill-opacity="0.05"/>
<path d="M430.87 168.32C435.557 165.678 441.493 167.33 444.133 172.01C446.782 176.694 445.123 182.633 440.444 185.272C435.76 187.922 429.821 186.263 427.181 181.583C424.535 176.906 426.187 170.97 430.87 168.32Z" fill="#28AFB0" fill-opacity="0.05"/>
<path d="M398.792 189.264C402.286 187.295 406.719 188.528 408.695 192.019C410.663 195.513 409.431 199.946 405.933 201.925C402.446 203.89 398.006 202.661 396.037 199.167C394.068 195.673 395.301 191.24 398.792 189.264Z" fill="#28AFB0" fill-opacity="0.05"/>
<path d="M369.96 207.49C372.637 205.977 376.036 206.927 377.549 209.604C379.062 212.281 378.112 215.68 375.435 217.193C372.758 218.706 369.362 217.763 367.846 215.079C366.333 212.402 367.283 209.003 369.96 207.49Z" fill="#28AFB0" fill-opacity="0.05"/>
<path d="M343.932 224.007C345.848 222.926 348.274 223.601 349.362 225.514C350.443 227.429 349.764 229.866 347.849 230.947C345.934 232.028 343.507 231.353 342.426 229.437C341.342 227.515 342.017 225.088 343.932 224.007Z" fill="#28AFB0" fill-opacity="0.05"/>
<path d="M320.261 238.848C321.559 238.113 323.202 238.571 323.937 239.869C324.673 241.168 324.207 242.814 322.916 243.546C321.611 244.284 319.965 243.819 319.24 242.525C318.505 241.227 318.96 239.576 320.261 238.848Z" fill="#28AFB0" fill-opacity="0.05"/>
<path d="M298.328 252.288C299.184 251.808 300.267 252.11 300.748 252.966C301.226 253.815 300.933 254.902 300.077 255.383C299.221 255.863 298.138 255.561 297.651 254.708C297.17 253.852 297.473 252.769 298.328 252.288Z" fill="#28AFB0" fill-opacity="0.05"/>
<path d="M277.586 264.706C278.144 264.394 278.851 264.586 279.166 265.15C279.485 265.705 279.284 266.408 278.729 266.727C278.171 267.039 277.461 266.84 277.142 266.286C276.83 265.728 277.029 265.018 277.586 264.706Z" fill="#28AFB0" fill-opacity="0.05"/>
<path d="M589.107 -25.7766C600.207 -32.0455 614.289 -28.1306 620.561 -17.0236C626.833 -5.91655 622.908 8.16202 611.808 14.4308C600.708 20.6997 586.615 16.7808 580.354 5.67776C574.082 -5.42925 578.007 -19.5078 589.107 -25.7766Z" fill="#28AFB0" fill-opacity="0.05"/>
<path d="M531.995 11.4251C541.021 6.32944 552.467 9.51961 557.559 18.5392C562.665 27.5697 559.475 39.0153 550.448 44.111C541.422 49.2067 529.972 46.0264 524.881 36.99C519.778 27.9664 522.968 16.5208 531.995 11.4251Z" fill="#28AFB0" fill-opacity="0.05"/>
<path d="M480.267 43.7867C487.974 39.4351 497.74 42.1581 502.089 49.8586C506.44 57.5661 503.72 67.3387 496.017 71.6804C488.309 76.032 478.536 73.312 474.188 65.6114C469.846 57.9079 472.556 48.1313 480.267 43.7867Z" fill="#28AFB0" fill-opacity="0.05"/>
<path d="M433.591 73.5176C439.881 69.9685 447.853 72.1905 451.407 78.4706C454.956 84.7606 452.737 92.7402 446.447 96.2892C440.156 99.8383 432.184 97.6163 428.638 91.3332C425.079 85.0392 427.301 77.0666 433.591 73.5176Z" fill="#28AFB0" fill-opacity="0.05"/>
<path d="M392.583 100.503C397.27 97.8607 403.206 99.5127 405.846 104.192C408.495 108.876 406.836 114.815 402.16 117.462C397.473 120.104 391.534 118.445 388.894 113.766C386.248 109.089 387.9 103.153 392.583 100.503Z" fill="#28AFB0" fill-opacity="0.05"/>
<path d="M360.505 121.447C363.999 119.478 368.432 120.711 370.408 124.202C372.377 127.696 371.144 132.129 367.646 134.108C364.159 136.073 359.719 134.844 357.75 131.35C355.782 127.856 357.015 123.423 360.505 121.447Z" fill="#28AFB0" fill-opacity="0.05"/>
<path d="M331.673 139.673C334.35 138.16 337.756 139.107 339.262 141.787C340.775 144.464 339.825 147.863 337.155 149.373C334.471 150.889 331.075 149.946 329.559 147.262C328.046 144.585 328.996 141.186 331.673 139.673Z" fill="#28AFB0" fill-opacity="0.05"/>
<path d="M305.646 156.19C307.561 155.109 309.988 155.784 311.076 157.697C312.157 159.612 311.478 162.048 309.562 163.129C307.647 164.21 305.22 163.536 304.139 161.62C303.055 159.698 303.73 157.271 305.646 156.19Z" fill="#28AFB0" fill-opacity="0.05"/>
<path d="M281.974 171.032C283.272 170.297 284.915 170.755 285.65 172.053C286.385 173.351 285.92 174.997 284.629 175.729C283.331 176.465 281.681 176.009 280.953 174.708C280.217 173.41 280.673 171.76 281.974 171.032Z" fill="#28AFB0" fill-opacity="0.05"/>
<path d="M260.042 184.471C260.898 183.991 261.981 184.293 262.462 185.149C262.939 185.998 262.647 187.085 261.791 187.566C260.935 188.046 259.852 187.744 259.365 186.891C258.884 186.035 259.187 184.952 260.042 184.471Z" fill="#28AFB0" fill-opacity="0.05"/>
<path d="M239.3 196.889C239.858 196.577 240.565 196.768 240.877 197.326C241.199 197.888 240.997 198.591 240.442 198.91C239.885 199.222 239.175 199.023 238.856 198.468C238.544 197.911 238.742 197.201 239.3 196.889Z" fill="#28AFB0" fill-opacity="0.05"/>
<path d="M441.98 -24.0302C449.687 -28.3818 459.45 -25.6657 463.801 -17.9582C468.153 -10.2507 465.433 -0.478116 457.729 3.86357C450.022 8.21518 440.249 5.49513 435.901 -2.20542C431.556 -9.9159 434.276 -19.6885 441.98 -24.0302Z" fill="#28AFB0" fill-opacity="0.05"/>
<path d="M395.304 5.70068C401.594 2.15162 409.567 4.37357 413.12 10.6537C416.669 16.9438 414.45 24.9233 408.16 28.4723C401.87 32.0214 393.897 29.7994 390.351 23.5163C386.792 17.2223 389.014 9.24974 395.304 5.70068Z" fill="#28AFB0" fill-opacity="0.05"/>
<path d="M354.296 32.6865C358.983 30.044 364.919 31.696 367.559 36.3758C370.208 41.0595 368.549 46.9987 363.87 49.6382C359.186 52.2877 353.247 50.6287 350.607 45.9489C347.968 41.2692 349.613 35.3359 354.296 32.6865Z" fill="#28AFB0" fill-opacity="0.05"/>
<path d="M322.219 53.6298C325.713 51.6611 330.146 52.8939 332.121 56.3848C334.09 59.8787 332.857 64.3118 329.366 66.2875C325.872 68.2562 321.432 67.0264 319.464 63.5325C317.495 60.0386 318.728 55.6055 322.219 53.6298Z" fill="#28AFB0" fill-opacity="0.05"/>
<path d="M293.386 71.855C296.063 70.342 299.47 71.2893 300.976 73.9691C302.489 76.646 301.538 80.0455 298.868 81.5555C296.185 83.0714 292.788 82.1281 291.272 79.4443C289.759 76.7675 290.709 73.368 293.386 71.855Z" fill="#28AFB0" fill-opacity="0.05"/>
<path d="M267.359 88.3734C269.274 87.2924 271.701 87.9672 272.789 89.8797C273.87 91.7951 273.191 94.2315 271.275 95.3125C269.36 96.3935 266.934 95.7187 265.853 93.8033C264.769 91.8809 265.443 89.4543 267.359 88.3734Z" fill="#28AFB0" fill-opacity="0.05"/>
<path d="M243.687 103.215C244.985 102.48 246.629 102.938 247.364 104.236C248.099 105.534 247.634 107.18 246.343 107.912C245.041 108.641 243.391 108.185 242.666 106.891C241.931 105.593 242.386 103.943 243.687 103.215Z" fill="#28AFB0" fill-opacity="0.05"/>
<path d="M221.755 116.654C222.608 116.166 223.694 116.476 224.175 117.332C224.652 118.18 224.36 119.268 223.504 119.748C222.648 120.229 221.565 119.926 221.077 119.073C220.597 118.218 220.899 117.134 221.755 116.654Z" fill="#28AFB0" fill-opacity="0.05"/>
<path d="M201.013 129.072C201.571 128.76 202.278 128.952 202.59 129.509C202.912 130.071 202.71 130.774 202.156 131.093C201.598 131.405 200.888 131.206 200.569 130.652C200.257 130.094 200.456 129.384 201.013 129.072Z" fill="#28AFB0" fill-opacity="0.05"/>
<path d="M283.932 -14.1873C287.423 -16.1629 291.859 -14.9232 293.835 -11.4323C295.804 -7.93835 294.571 -3.50529 291.073 -1.52664C287.586 0.439108 283.146 -0.790684 281.177 -4.2846C279.209 -7.77852 280.441 -12.2116 283.932 -14.1873Z" fill="#28AFB0" fill-opacity="0.05"/>
<path d="M255.099 4.03816C257.776 2.5252 261.182 3.47248 262.688 6.1523C264.201 8.82916 263.258 12.2257 260.581 13.7387C257.897 15.2546 254.498 14.3043 252.985 11.6275C251.472 8.95063 252.422 5.55112 255.099 4.03816Z" fill="#28AFB0" fill-opacity="0.05"/>
<path d="M229.075 20.555C230.99 19.474 233.417 20.1488 234.498 22.0643C235.579 23.9797 234.907 26.4132 232.992 27.4941C231.076 28.5751 228.643 27.9033 227.562 25.9879C226.478 24.0655 227.153 21.6389 229.075 20.555Z" fill="#28AFB0" fill-opacity="0.05"/>
<path d="M205.401 35.3964C206.699 34.6612 208.342 35.1194 209.077 36.4176C209.812 37.7157 209.347 39.3619 208.056 40.0941C206.755 40.8223 205.105 40.3671 204.379 39.0729C203.644 37.7748 204.099 36.1246 205.401 35.3964Z" fill="#28AFB0" fill-opacity="0.05"/>
<path d="M183.468 48.8376C184.324 48.3571 185.407 48.6595 185.888 49.5153C186.365 50.3642 186.073 51.4514 185.217 51.9319C184.361 52.4125 183.278 52.11 182.79 51.2572C182.31 50.4013 182.612 49.3181 183.468 48.8376Z" fill="#28AFB0" fill-opacity="0.05"/>
<path d="M162.726 61.2551C163.284 60.943 163.991 61.1346 164.303 61.6923C164.625 62.2539 164.423 62.9568 163.869 63.2759C163.311 63.588 162.601 63.3893 162.282 62.8347C161.97 62.277 162.169 61.5671 162.726 61.2551Z" fill="#28AFB0" fill-opacity="0.05"/>
</svg>
