<svg width="555" height="2685" viewBox="0 0 555 2685" fill="none" xmlns="http://www.w3.org/2000/svg">
<path d="M563.125 363.813C550.148 371.138 533.686 366.561 526.361 353.584C519.036 340.608 523.613 324.145 536.589 316.82C549.566 309.495 566.028 314.072 573.356 327.056C580.681 340.032 576.102 356.488 563.125 363.813Z" fill="#28AFB0" fill-opacity="0.05"/>
<path d="M601.409 431.631C588.432 438.956 571.976 434.377 564.651 421.4C557.326 408.423 561.903 391.961 574.88 384.636C587.857 377.311 604.319 381.887 611.64 394.874C618.972 407.848 614.385 424.306 601.409 431.631Z" fill="#28AFB0" fill-opacity="0.05"/>
<path d="M544.859 1504.43C545.417 1504.11 546.127 1504.31 546.439 1504.87C546.758 1505.42 546.559 1506.13 546.002 1506.45C545.437 1506.76 544.737 1506.57 544.418 1506.01C544.103 1505.45 544.305 1504.74 544.859 1504.43Z" fill="#28AFB0" fill-opacity="0.05"/>
<path d="M549.245 1410.75C550.543 1410.02 552.193 1410.47 552.918 1411.77C553.657 1413.07 553.198 1414.72 551.9 1415.45C550.599 1416.18 548.956 1415.72 548.224 1414.43C547.486 1413.13 547.944 1411.48 549.245 1410.75Z" fill="#28AFB0" fill-opacity="0.05"/>
<path d="M527.315 1424.19C528.167 1423.7 529.254 1424.01 529.734 1424.87C530.215 1425.72 529.919 1426.8 529.063 1427.28C528.207 1427.76 527.127 1427.47 526.64 1426.62C526.159 1425.76 526.462 1424.68 527.315 1424.19Z" fill="#28AFB0" fill-opacity="0.05"/>
<path d="M506.574 1436.61C507.129 1436.29 507.839 1436.49 508.154 1437.06C508.473 1437.61 508.271 1438.31 507.716 1438.63C507.156 1438.94 506.449 1438.75 506.13 1438.19C505.818 1437.63 506.016 1436.92 506.574 1436.61Z" fill="#28AFB0" fill-opacity="0.05"/>
<path d="M534.633 1328.1C536.548 1327.01 538.974 1327.69 540.062 1329.6C541.136 1331.52 540.465 1333.95 538.546 1335.03C536.634 1336.12 534.204 1335.43 533.123 1333.52C532.042 1331.6 532.717 1329.18 534.633 1328.1Z" fill="#28AFB0" fill-opacity="0.05"/>
<path d="M510.96 1342.93C512.261 1342.2 513.904 1342.66 514.636 1343.95C515.372 1345.25 514.906 1346.9 513.615 1347.63C512.31 1348.37 510.667 1347.91 509.939 1346.61C509.203 1345.31 509.659 1343.66 510.96 1342.93Z" fill="#28AFB0" fill-opacity="0.05"/>
<path d="M489.028 1356.37C489.884 1355.89 490.967 1356.19 491.447 1357.05C491.925 1357.9 491.633 1358.99 490.777 1359.47C489.921 1359.95 488.838 1359.65 488.35 1358.79C487.87 1357.94 488.172 1356.85 489.028 1356.37Z" fill="#28AFB0" fill-opacity="0.05"/>
<path d="M468.285 1368.79C468.843 1368.48 469.55 1368.67 469.865 1369.23C470.184 1369.79 469.985 1370.5 469.428 1370.81C468.863 1371.13 468.163 1370.93 467.841 1370.37C467.529 1369.81 467.728 1369.1 468.285 1368.79Z" fill="#28AFB0" fill-opacity="0.05"/>
<path d="M551.207 1225.54C554.698 1223.56 559.131 1224.79 561.109 1228.29C563.078 1231.78 561.845 1236.22 558.344 1238.19C554.853 1240.17 550.42 1238.93 548.452 1235.44C546.473 1231.94 547.713 1227.5 551.207 1225.54Z" fill="#28AFB0" fill-opacity="0.05"/>
<path d="M522.373 1243.76C525.052 1242.25 528.449 1243.19 529.962 1245.87C531.475 1248.55 530.525 1251.95 527.848 1253.46C525.171 1254.97 521.774 1254.03 520.259 1251.35C518.746 1248.67 519.696 1245.27 522.373 1243.76Z" fill="#28AFB0" fill-opacity="0.05"/>
<path d="M496.345 1260.27C498.26 1259.19 500.69 1259.88 501.775 1261.78C502.856 1263.7 502.177 1266.13 500.262 1267.21C498.346 1268.3 495.92 1267.62 494.839 1265.7C493.755 1263.78 494.429 1261.36 496.345 1260.27Z" fill="#28AFB0" fill-opacity="0.05"/>
<path d="M472.673 1275.12C473.971 1274.38 475.618 1274.85 476.35 1276.14C477.085 1277.44 476.62 1279.08 475.329 1279.81C474.03 1280.55 472.38 1280.09 471.652 1278.79C470.917 1277.49 471.372 1275.84 472.673 1275.12Z" fill="#28AFB0" fill-opacity="0.05"/>
<path d="M450.741 1288.56C451.597 1288.08 452.68 1288.38 453.161 1289.23C453.638 1290.08 453.346 1291.17 452.49 1291.65C451.634 1292.13 450.551 1291.83 450.063 1290.98C449.583 1290.12 449.885 1289.04 450.741 1288.56Z" fill="#28AFB0" fill-opacity="0.05"/>
<path d="M429.999 1300.97C430.557 1300.66 431.264 1300.85 431.579 1301.42C431.898 1301.97 431.699 1302.68 431.141 1302.99C430.584 1303.31 429.874 1303.11 429.555 1302.55C429.243 1302 429.441 1301.29 429.999 1300.97Z" fill="#28AFB0" fill-opacity="0.05"/>
<path d="M544.998 1136.77C549.681 1134.13 555.614 1135.79 558.26 1140.46C560.91 1145.15 559.248 1151.08 554.571 1153.73C549.884 1156.37 543.948 1154.72 541.308 1150.04C538.659 1145.35 540.311 1139.42 544.998 1136.77Z" fill="#28AFB0" fill-opacity="0.05"/>
<path d="M512.919 1157.72C516.41 1155.74 520.843 1156.98 522.822 1160.47C524.79 1163.97 523.558 1168.4 520.057 1170.37C516.566 1172.35 512.133 1171.12 510.164 1167.62C508.192 1164.12 509.428 1159.69 512.919 1157.72Z" fill="#28AFB0" fill-opacity="0.05"/>
<path d="M484.085 1175.94C486.765 1174.43 490.169 1175.38 491.675 1178.05C493.188 1180.73 492.237 1184.13 489.56 1185.64C486.884 1187.16 483.487 1186.21 481.971 1183.53C480.458 1180.85 481.408 1177.45 484.085 1175.94Z" fill="#28AFB0" fill-opacity="0.05"/>
<path d="M458.058 1192.46C459.973 1191.38 462.4 1192.05 463.488 1193.96C464.569 1195.88 463.89 1198.32 461.974 1199.4C460.059 1200.48 457.633 1199.8 456.552 1197.89C455.468 1195.97 456.142 1193.54 458.058 1192.46Z" fill="#28AFB0" fill-opacity="0.05"/>
<path d="M434.387 1207.3C435.685 1206.56 437.328 1207.02 438.063 1208.32C438.798 1209.62 438.333 1211.26 437.042 1212C435.744 1212.73 434.094 1212.28 433.365 1210.98C432.63 1209.68 433.085 1208.03 434.387 1207.3Z" fill="#28AFB0" fill-opacity="0.05"/>
<path d="M412.454 1220.74C413.31 1220.26 414.393 1220.56 414.874 1221.42C415.351 1222.27 415.059 1223.35 414.203 1223.83C413.347 1224.31 412.264 1224.01 411.776 1223.16C411.296 1222.3 411.598 1221.22 412.454 1220.74Z" fill="#28AFB0" fill-opacity="0.05"/>
<path d="M391.712 1233.16C392.27 1232.84 392.977 1233.04 393.292 1233.6C393.611 1234.16 393.409 1234.86 392.855 1235.18C392.297 1235.49 391.59 1235.3 391.268 1234.74C390.956 1234.18 391.155 1233.47 391.712 1233.16Z" fill="#28AFB0" fill-opacity="0.05"/>
<path d="M547.717 1041.97C554.007 1038.42 561.98 1040.64 565.533 1046.92C569.082 1053.21 566.863 1061.19 560.573 1064.74C554.283 1068.29 546.31 1066.07 542.764 1059.78C539.208 1053.5 541.427 1045.52 547.717 1041.97Z" fill="#28AFB0" fill-opacity="0.05"/>
<path d="M506.709 1068.95C511.396 1066.31 517.332 1067.96 519.974 1072.65C522.614 1077.33 520.962 1083.27 516.285 1085.91C511.598 1088.56 505.659 1086.9 503.02 1082.22C500.373 1077.54 502.025 1071.6 506.709 1068.95Z" fill="#28AFB0" fill-opacity="0.05"/>
<path d="M474.633 1089.9C478.124 1087.93 482.557 1089.16 484.535 1092.66C486.504 1096.15 485.271 1100.58 481.77 1102.55C478.286 1104.53 473.846 1103.3 471.878 1099.8C469.899 1096.31 471.139 1091.87 474.633 1089.9Z" fill="#28AFB0" fill-opacity="0.05"/>
<path d="M445.798 1108.12C448.478 1106.62 451.882 1107.56 453.388 1110.24C454.901 1112.91 453.95 1116.31 451.274 1117.83C448.597 1119.34 445.2 1118.4 443.684 1115.71C442.171 1113.04 443.122 1109.64 445.798 1108.12Z" fill="#28AFB0" fill-opacity="0.05"/>
<path d="M419.771 1124.64C421.686 1123.56 424.113 1124.24 425.201 1126.15C426.282 1128.06 425.603 1130.5 423.687 1131.58C421.772 1132.66 419.345 1131.99 418.264 1130.07C417.18 1128.15 417.855 1125.72 419.771 1124.64Z" fill="#28AFB0" fill-opacity="0.05"/>
<path d="M396.1 1139.48C397.398 1138.75 399.041 1139.21 399.776 1140.5C400.511 1141.8 400.046 1143.45 398.755 1144.18C397.457 1144.92 395.807 1144.46 395.079 1143.16C394.343 1141.86 394.799 1140.21 396.1 1139.48Z" fill="#28AFB0" fill-opacity="0.05"/>
<path d="M374.168 1152.92C375.024 1152.44 376.107 1152.74 376.587 1153.6C377.065 1154.45 376.772 1155.54 375.917 1156.02C375.061 1156.5 373.978 1156.19 373.49 1155.34C373.01 1154.49 373.312 1153.4 374.168 1152.92Z" fill="#28AFB0" fill-opacity="0.05"/>
<path d="M353.425 1165.34C353.983 1165.03 354.69 1165.22 355.005 1165.78C355.324 1166.34 355.125 1167.05 354.568 1167.36C354.01 1167.67 353.3 1167.47 352.981 1166.92C352.669 1166.36 352.868 1165.65 353.425 1165.34Z" fill="#28AFB0" fill-opacity="0.05"/>
<path d="M556.106 944.422C563.813 940.07 573.579 942.793 577.927 950.494C582.279 958.201 579.559 967.974 571.855 972.316C564.148 976.667 554.375 973.947 550.027 966.247C545.685 958.543 548.398 948.773 556.106 944.422Z" fill="#28AFB0" fill-opacity="0.05"/>
<path d="M509.43 974.151C515.72 970.602 523.692 972.824 527.245 979.104C530.797 985.401 528.575 993.374 522.285 996.923C515.995 1000.47 508.023 998.25 504.477 991.967C500.918 985.673 503.14 977.7 509.43 974.151Z" fill="#28AFB0" fill-opacity="0.05"/>
<path d="M468.422 1001.14C473.109 998.495 479.045 1000.15 481.687 1004.83C484.327 1009.51 482.675 1015.45 477.998 1018.1C473.311 1020.74 467.372 1019.08 464.733 1014.4C462.086 1009.72 463.738 1003.79 468.422 1001.14Z" fill="#28AFB0" fill-opacity="0.05"/>
<path d="M436.346 1022.08C439.837 1020.11 444.27 1021.34 446.249 1024.84C448.217 1028.33 446.985 1032.77 443.484 1034.74C439.993 1036.71 435.56 1035.48 433.591 1031.99C431.612 1028.49 432.852 1024.05 436.346 1022.08Z" fill="#28AFB0" fill-opacity="0.05"/>
<path d="M407.513 1040.31C410.189 1038.79 413.596 1039.74 415.102 1042.42C416.615 1045.1 415.665 1048.5 412.988 1050.01C410.311 1051.52 406.914 1050.58 405.398 1047.9C403.885 1045.22 404.836 1041.82 407.513 1040.31Z" fill="#28AFB0" fill-opacity="0.05"/>
<path d="M381.485 1056.82C383.4 1055.74 385.827 1056.42 386.914 1058.33C387.995 1060.25 387.317 1062.68 385.401 1063.76C383.486 1064.84 381.059 1064.17 379.978 1062.25C378.894 1060.33 379.569 1057.9 381.485 1056.82Z" fill="#28AFB0" fill-opacity="0.05"/>
<path d="M357.812 1071.67C359.111 1070.93 360.754 1071.39 361.489 1072.69C362.224 1073.98 361.759 1075.63 360.468 1076.36C359.17 1077.1 357.519 1076.64 356.791 1075.34C356.056 1074.04 356.511 1072.39 357.812 1071.67Z" fill="#28AFB0" fill-opacity="0.05"/>
<path d="M335.881 1085.11C336.737 1084.62 337.82 1084.93 338.3 1085.78C338.778 1086.63 338.485 1087.72 337.629 1088.2C336.774 1088.68 335.69 1088.38 335.203 1087.52C334.722 1086.67 335.025 1085.59 335.881 1085.11Z" fill="#28AFB0" fill-opacity="0.05"/>
<path d="M315.139 1097.52C315.697 1097.21 316.404 1097.4 316.719 1097.97C317.038 1098.52 316.836 1099.22 316.281 1099.54C315.724 1099.86 315.014 1099.66 314.695 1099.1C314.383 1098.54 314.581 1097.83 315.139 1097.52Z" fill="#28AFB0" fill-opacity="0.05"/>
<path d="M569.547 844.242C578.574 839.146 590.019 842.337 595.112 851.356C600.218 860.387 597.028 871.832 588.001 876.928C578.975 882.024 567.525 878.843 562.426 869.81C557.331 860.783 560.521 849.338 569.547 844.242Z" fill="#28AFB0" fill-opacity="0.05"/>
<path d="M517.819 876.604C525.526 872.253 535.292 874.976 539.641 882.676C543.992 890.384 541.272 900.156 533.569 904.498C525.861 908.85 516.088 906.129 511.747 898.426C507.398 890.725 510.111 880.956 517.819 876.604Z" fill="#28AFB0" fill-opacity="0.05"/>
<path d="M471.143 906.334C477.433 902.785 485.406 905.007 488.959 911.287C492.508 917.578 490.289 925.557 483.999 929.106C477.709 932.655 469.736 930.433 466.19 924.15C462.631 917.856 464.853 909.884 471.143 906.334Z" fill="#28AFB0" fill-opacity="0.05"/>
<path d="M430.136 933.32C434.823 930.678 440.759 932.33 443.399 937.01C446.048 941.694 444.389 947.633 439.709 950.272C435.025 952.922 429.086 951.263 426.447 946.583C423.8 941.906 425.452 935.97 430.136 933.32Z" fill="#28AFB0" fill-opacity="0.05"/>
<path d="M398.058 954.264C401.552 952.295 405.985 953.528 407.96 957.019C409.929 960.513 408.696 964.946 405.198 966.925C401.711 968.891 397.271 967.661 395.303 964.167C393.334 960.673 394.567 956.24 398.058 954.264Z" fill="#28AFB0" fill-opacity="0.05"/>
<path d="M369.225 972.49C371.902 970.977 375.302 971.927 376.815 974.604C378.328 977.281 377.377 980.68 374.701 982.193C372.024 983.706 368.627 982.763 367.111 980.079C365.598 977.402 366.549 974.003 369.225 972.49Z" fill="#28AFB0" fill-opacity="0.05"/>
<path d="M343.198 989.007C345.113 987.926 347.54 988.601 348.628 990.514C349.709 992.429 349.03 994.866 347.115 995.947C345.199 997.028 342.773 996.353 341.692 994.437C340.608 992.515 341.283 990.088 343.198 989.007Z" fill="#28AFB0" fill-opacity="0.05"/>
<path d="M319.527 1003.85C320.825 1003.11 322.468 1003.57 323.203 1004.87C323.938 1006.17 323.473 1007.81 322.182 1008.55C320.877 1009.28 319.231 1008.82 318.505 1007.52C317.77 1006.23 318.225 1004.58 319.527 1003.85Z" fill="#28AFB0" fill-opacity="0.05"/>
<path d="M297.594 1017.29C298.45 1016.81 299.533 1017.11 300.014 1017.97C300.491 1018.81 300.199 1019.9 299.343 1020.38C298.487 1020.86 297.404 1020.56 296.916 1019.71C296.436 1018.85 296.738 1017.77 297.594 1017.29Z" fill="#28AFB0" fill-opacity="0.05"/>
<path d="M276.852 1029.71C277.41 1029.39 278.117 1029.59 278.432 1030.15C278.751 1030.7 278.549 1031.41 277.995 1031.73C277.437 1032.04 276.727 1031.84 276.408 1031.29C276.096 1030.73 276.294 1030.02 276.852 1029.71Z" fill="#28AFB0" fill-opacity="0.05"/>
<path d="M531.26 776.425C540.287 771.329 551.732 774.52 556.825 783.539C561.931 792.57 558.741 804.015 549.714 809.111C540.687 814.207 529.238 811.026 524.146 801.99C519.044 792.966 522.234 781.521 531.26 776.425Z" fill="#28AFB0" fill-opacity="0.05"/>
<path d="M479.532 808.787C487.24 804.435 497.006 807.158 501.354 814.859C505.706 822.566 502.986 832.339 495.282 836.68C487.575 841.032 477.802 838.312 473.453 830.611C469.112 822.908 471.822 813.131 479.532 808.787Z" fill="#28AFB0" fill-opacity="0.05"/>
<path d="M432.856 838.518C439.147 834.969 447.119 837.19 450.672 843.471C454.221 849.761 452.002 857.74 445.712 861.289C439.422 864.838 431.45 862.616 427.903 856.333C424.344 850.039 426.566 842.067 432.856 838.518Z" fill="#28AFB0" fill-opacity="0.05"/>
<path d="M391.849 865.503C396.536 862.861 402.472 864.513 405.111 869.192C407.761 873.876 406.102 879.815 401.425 882.462C396.738 885.104 390.799 883.445 388.16 878.766C385.513 874.089 387.165 868.153 391.849 865.503Z" fill="#28AFB0" fill-opacity="0.05"/>
<path d="M359.771 886.447C363.265 884.478 367.698 885.711 369.674 889.202C371.642 892.696 370.41 897.129 366.912 899.108C363.425 901.073 358.985 899.844 357.016 896.35C355.047 892.856 356.28 888.423 359.771 886.447Z" fill="#28AFB0" fill-opacity="0.05"/>
<path d="M330.939 904.673C333.615 903.16 337.022 904.107 338.528 906.787C340.041 909.464 339.091 912.863 336.421 914.373C333.737 915.889 330.34 914.946 328.824 912.262C327.311 909.585 328.262 906.186 330.939 904.673Z" fill="#28AFB0" fill-opacity="0.05"/>
<path d="M304.911 921.19C306.827 920.109 309.253 920.784 310.341 922.697C311.422 924.612 310.743 927.048 308.828 928.129C306.913 929.21 304.486 928.536 303.405 926.62C302.321 924.698 302.996 922.271 304.911 921.19Z" fill="#28AFB0" fill-opacity="0.05"/>
<path d="M281.239 936.032C282.538 935.297 284.181 935.755 284.916 937.053C285.651 938.351 285.186 939.997 283.895 940.729C282.597 941.465 280.946 941.009 280.218 939.708C279.483 938.41 279.938 936.76 281.239 936.032Z" fill="#28AFB0" fill-opacity="0.05"/>
<path d="M259.308 949.471C260.164 948.991 261.247 949.293 261.728 950.149C262.205 950.998 261.913 952.085 261.057 952.566C260.201 953.046 259.118 952.744 258.63 951.891C258.15 951.035 258.452 949.952 259.308 949.471Z" fill="#28AFB0" fill-opacity="0.05"/>
<path d="M238.566 961.889C239.123 961.577 239.83 961.768 240.142 962.326C240.464 962.888 240.263 963.591 239.708 963.91C239.15 964.222 238.441 964.023 238.122 963.468C237.809 962.911 238.008 962.201 238.566 961.889Z" fill="#28AFB0" fill-opacity="0.05"/>
<path d="M550.085 671.406C561.185 665.138 575.268 669.053 581.54 680.16C587.811 691.267 583.887 705.345 572.787 711.614C561.68 717.886 547.594 713.964 541.332 702.861C535.06 691.754 538.985 677.675 550.085 671.406Z" fill="#28AFB0" fill-opacity="0.05"/>
<path d="M492.973 708.609C502 703.513 513.445 706.703 518.538 715.723C523.641 724.746 520.453 736.199 511.427 741.295C502.4 746.39 490.948 743.203 485.859 734.174C480.756 725.15 483.947 713.705 492.973 708.609Z" fill="#28AFB0" fill-opacity="0.05"/>
<path d="M441.245 740.97C448.953 736.618 458.715 739.334 463.067 747.042C467.419 754.749 464.699 764.522 456.995 768.864C449.288 773.215 439.515 770.495 435.166 762.795C430.822 755.084 433.542 745.312 441.245 740.97Z" fill="#28AFB0" fill-opacity="0.05"/>
<path d="M394.57 770.701C400.86 767.152 408.832 769.374 412.385 775.654C415.934 781.944 413.715 789.923 407.425 793.472C401.135 797.021 393.163 794.799 389.617 788.516C386.058 782.222 388.28 774.25 394.57 770.701Z" fill="#28AFB0" fill-opacity="0.05"/>
<path d="M353.562 797.687C358.249 795.044 364.185 796.696 366.825 801.376C369.474 806.06 367.815 811.999 363.135 814.638C358.451 817.288 352.512 815.629 349.873 810.949C347.233 806.269 348.878 800.336 353.562 797.687Z" fill="#28AFB0" fill-opacity="0.05"/>
<path d="M321.484 818.63C324.978 816.661 329.411 817.894 331.387 821.385C333.356 824.879 332.123 829.312 328.632 831.287C325.138 833.256 320.698 832.026 318.729 828.532C316.761 825.039 317.993 820.605 321.484 818.63Z" fill="#28AFB0" fill-opacity="0.05"/>
<path d="M292.652 836.855C295.329 835.342 298.735 836.289 300.241 838.969C301.754 841.646 300.804 845.046 298.134 846.556C295.45 848.071 292.054 847.128 290.538 844.444C289.025 841.767 289.975 838.368 292.652 836.855Z" fill="#28AFB0" fill-opacity="0.05"/>
<path d="M266.624 853.373C268.54 852.292 270.966 852.967 272.054 854.88C273.135 856.795 272.457 859.232 270.541 860.313C268.626 861.393 266.199 860.719 265.118 858.803C264.034 856.881 264.709 854.454 266.624 853.373Z" fill="#28AFB0" fill-opacity="0.05"/>
<path d="M242.953 868.215C244.251 867.48 245.894 867.938 246.629 869.236C247.365 870.534 246.899 872.18 245.608 872.912C244.307 873.641 242.657 873.185 241.932 871.891C241.196 870.593 241.652 868.943 242.953 868.215Z" fill="#28AFB0" fill-opacity="0.05"/>
<path d="M221.021 881.654C221.873 881.166 222.96 881.476 223.44 882.332C223.918 883.18 223.625 884.268 222.769 884.748C221.914 885.229 220.83 884.926 220.343 884.073C219.862 883.218 220.165 882.134 221.021 881.654Z" fill="#28AFB0" fill-opacity="0.05"/>
<path d="M200.279 894.072C200.836 893.76 201.543 893.952 201.856 894.509C202.178 895.071 201.976 895.774 201.421 896.093C200.864 896.405 200.154 896.206 199.835 895.652C199.523 895.094 199.721 894.384 200.279 894.072Z" fill="#28AFB0" fill-opacity="0.05"/>
<path d="M576.27 562.716C589.247 555.391 605.702 559.97 613.027 572.947C620.359 585.921 615.782 602.383 602.799 609.711C589.822 617.036 573.367 612.456 566.039 599.473C558.707 586.499 563.293 570.041 576.27 562.716Z" fill="#28AFB0" fill-opacity="0.05"/>
<path d="M511.799 603.589C522.899 597.32 536.981 601.235 543.253 612.342C549.525 623.449 545.6 637.528 534.5 643.797C523.393 650.068 509.315 646.144 503.046 635.044C496.774 623.937 500.699 609.858 511.799 603.589Z" fill="#28AFB0" fill-opacity="0.05"/>
<path d="M454.687 640.791C463.714 635.696 475.159 638.886 480.252 647.905C485.355 656.929 482.168 668.382 473.141 673.477C464.114 678.573 452.665 675.393 447.573 666.356C442.471 657.333 445.661 645.887 454.687 640.791Z" fill="#28AFB0" fill-opacity="0.05"/>
<path d="M402.957 673.149C410.664 668.798 420.43 671.521 424.781 679.228C429.13 686.929 426.41 696.702 418.709 701.05C411.002 705.402 401.236 702.679 396.878 694.974C392.536 687.271 395.249 677.501 402.957 673.149Z" fill="#28AFB0" fill-opacity="0.05"/>
<path d="M356.283 702.884C362.574 699.334 370.546 701.556 374.099 707.837C377.648 714.127 375.429 722.106 369.139 725.655C362.849 729.204 354.877 726.982 351.327 720.692C347.771 714.405 349.993 706.433 356.283 702.884Z" fill="#28AFB0" fill-opacity="0.05"/>
<path d="M315.275 729.869C319.962 727.227 325.898 728.879 328.538 733.559C331.187 738.242 329.528 744.182 324.849 746.821C320.165 749.471 314.226 747.812 311.586 743.132C308.937 738.448 310.589 732.512 315.275 729.869Z" fill="#28AFB0" fill-opacity="0.05"/>
<path d="M283.198 750.813C286.689 748.837 291.125 750.077 293.101 753.568C295.069 757.062 293.836 761.495 290.339 763.473C286.852 765.439 282.412 764.209 280.443 760.715C278.474 757.221 279.707 752.788 283.198 750.813Z" fill="#28AFB0" fill-opacity="0.05"/>
<path d="M254.365 769.038C257.041 767.525 260.448 768.472 261.954 771.152C263.467 773.829 262.524 777.226 259.847 778.739C257.163 780.255 253.763 779.304 252.25 776.627C250.738 773.951 251.688 770.551 254.365 769.038Z" fill="#28AFB0" fill-opacity="0.05"/>
<path d="M228.341 785.555C230.256 784.474 232.683 785.149 233.764 787.064C234.845 788.98 234.173 791.413 232.257 792.494C230.342 793.575 227.908 792.903 226.827 790.988C225.743 789.065 226.418 786.639 228.341 785.555Z" fill="#28AFB0" fill-opacity="0.05"/>
<path d="M204.666 800.396C205.964 799.661 207.608 800.119 208.343 801.418C209.078 802.716 208.613 804.362 207.322 805.094C206.02 805.822 204.37 805.367 203.645 804.073C202.91 802.775 203.365 801.125 204.666 800.396Z" fill="#28AFB0" fill-opacity="0.05"/>
<path d="M182.734 813.838C183.59 813.357 184.673 813.66 185.153 814.515C185.631 815.364 185.338 816.451 184.483 816.932C183.627 817.412 182.543 817.11 182.056 816.257C181.575 815.401 181.878 814.318 182.734 813.838Z" fill="#28AFB0" fill-opacity="0.05"/>
<path d="M161.992 826.255C162.55 825.943 163.257 826.135 163.569 826.692C163.891 827.254 163.689 827.957 163.134 828.276C162.577 828.588 161.867 828.389 161.548 827.835C161.236 827.277 161.434 826.567 161.992 826.255Z" fill="#28AFB0" fill-opacity="0.05"/>
<path d="M537.984 494.899C550.96 487.574 567.423 492.15 574.741 505.13C582.073 518.104 577.496 534.566 564.512 541.894C551.536 549.219 535.08 544.64 527.755 531.663C520.42 518.682 525.007 502.224 537.984 494.899Z" fill="#28AFB0" fill-opacity="0.05"/>
<path d="M473.512 535.772C484.612 529.503 498.695 533.418 504.966 544.525C511.235 555.625 507.313 569.711 496.213 575.98C485.113 582.249 471.028 578.327 464.759 567.227C458.487 556.12 462.412 542.041 473.512 535.772Z" fill="#28AFB0" fill-opacity="0.05"/>
<path d="M416.4 572.975C425.427 567.879 436.872 571.069 441.965 580.089C447.068 589.112 443.88 600.565 434.854 605.66C425.827 610.756 414.375 607.569 409.286 598.539C404.183 589.516 407.374 578.07 416.4 572.975Z" fill="#28AFB0" fill-opacity="0.05"/>
<path d="M364.671 605.333C372.378 600.981 382.144 603.704 386.495 611.412C390.844 619.112 388.124 628.885 380.423 633.233C372.716 637.585 362.95 634.862 358.592 627.158C354.25 619.454 356.97 609.681 364.671 605.333Z" fill="#28AFB0" fill-opacity="0.05"/>
<path d="M317.996 635.067C324.286 631.518 332.259 633.74 335.812 640.02C339.361 646.31 337.142 654.289 330.852 657.838C324.562 661.387 316.589 659.165 313.04 652.875C309.491 646.585 311.706 638.616 317.996 635.067Z" fill="#28AFB0" fill-opacity="0.05"/>
<path d="M276.988 662.052C281.675 659.409 287.611 661.061 290.251 665.741C292.9 670.425 291.241 676.364 286.562 679.004C281.878 681.653 275.939 679.994 273.299 675.314C270.657 670.628 272.305 664.701 276.988 662.052Z" fill="#28AFB0" fill-opacity="0.05"/>
<path d="M244.911 682.996C248.405 681.027 252.838 682.26 254.814 685.751C256.783 689.245 255.55 693.678 252.059 695.654C248.565 697.623 244.125 696.393 242.156 692.899C240.188 689.405 241.42 684.972 244.911 682.996Z" fill="#28AFB0" fill-opacity="0.05"/>
<path d="M216.078 701.221C218.755 699.708 222.161 700.655 223.667 703.335C225.18 706.012 224.23 709.412 221.56 710.922C218.876 712.438 215.477 711.487 213.964 708.81C212.451 706.134 213.401 702.734 216.078 701.221Z" fill="#28AFB0" fill-opacity="0.05"/>
<path d="M190.051 717.739C191.967 716.658 194.4 717.33 195.481 719.246C196.562 721.161 195.883 723.598 193.965 724.672C192.052 725.759 189.626 725.085 188.545 723.169C187.461 721.247 188.136 718.82 190.051 717.739Z" fill="#28AFB0" fill-opacity="0.05"/>
<path d="M166.378 732.577C167.679 731.849 169.322 732.307 170.055 733.598C170.79 734.897 170.328 736.55 169.033 737.275C167.735 738.01 166.092 737.552 165.357 736.254C164.622 734.956 165.08 733.312 166.378 732.577Z" fill="#28AFB0" fill-opacity="0.05"/>
<path d="M144.447 746.02C145.3 745.532 146.386 745.841 146.867 746.697C147.344 747.546 147.052 748.633 146.196 749.114C145.34 749.594 144.257 749.292 143.77 748.439C143.289 747.583 143.592 746.5 144.447 746.02Z" fill="#28AFB0" fill-opacity="0.05"/>
<path d="M123.705 758.437C124.263 758.125 124.97 758.317 125.282 758.874C125.604 759.436 125.402 760.139 124.848 760.458C124.29 760.77 123.58 760.571 123.261 760.017C122.949 759.459 123.147 758.749 123.705 758.437Z" fill="#28AFB0" fill-opacity="0.05"/>
<path d="M499.696 427.081C512.673 419.756 529.136 424.333 536.454 437.312C543.786 450.286 539.202 466.751 526.225 474.077C513.249 481.402 496.793 476.822 489.465 463.838C482.133 450.864 486.72 434.406 499.696 427.081Z" fill="#28AFB0" fill-opacity="0.05"/>
<path d="M435.225 467.956C446.325 461.687 460.407 465.602 466.679 476.709C472.951 487.816 469.026 501.894 457.926 508.163C446.816 514.428 432.741 510.51 426.472 499.41C420.2 488.303 424.125 474.224 435.225 467.956Z" fill="#28AFB0" fill-opacity="0.05"/>
<path d="M378.113 505.158C387.139 500.062 398.585 503.252 403.678 512.272C408.78 521.295 405.593 532.748 396.567 537.844C387.54 542.939 376.09 539.759 370.999 530.723C365.896 521.699 369.086 510.253 378.113 505.158Z" fill="#28AFB0" fill-opacity="0.05"/>
<path d="M326.384 537.516C334.091 533.164 343.857 535.887 348.209 543.594C352.557 551.295 349.837 561.068 342.137 565.416C334.436 569.765 324.663 567.045 320.305 559.34C315.963 551.637 318.683 541.864 326.384 537.516Z" fill="#28AFB0" fill-opacity="0.05"/>
<path d="M279.709 567.25C285.999 563.701 293.972 565.923 297.525 572.203C301.074 578.493 298.855 586.472 292.565 590.021C286.275 593.571 278.302 591.349 274.753 585.059C271.197 578.771 273.419 570.799 279.709 567.25Z" fill="#28AFB0" fill-opacity="0.05"/>
<path d="M238.701 594.235C243.388 591.592 249.324 593.244 251.964 597.924C254.613 602.608 252.954 608.547 248.275 611.186C243.591 613.836 237.652 612.177 235.012 607.497C232.37 602.81 234.015 596.877 238.701 594.235Z" fill="#28AFB0" fill-opacity="0.05"/>
<path d="M206.624 615.179C210.115 613.203 214.551 614.443 216.527 617.934C218.496 621.428 217.263 625.861 213.772 627.837C210.278 629.805 205.838 628.576 203.869 625.082C201.897 621.581 203.133 617.155 206.624 615.179Z" fill="#28AFB0" fill-opacity="0.05"/>
<path d="M177.791 633.404C180.468 631.891 183.875 632.838 185.381 635.518C186.894 638.195 185.943 641.594 183.274 643.104C180.59 644.62 177.19 643.67 175.677 640.993C174.164 638.316 175.115 634.917 177.791 633.404Z" fill="#28AFB0" fill-opacity="0.05"/>
<path d="M151.767 649.92C153.683 648.839 156.109 649.514 157.19 651.43C158.271 653.345 157.6 655.778 155.684 656.859C153.769 657.94 151.332 657.262 150.261 655.35C149.17 653.431 149.845 651.004 151.767 649.92Z" fill="#28AFB0" fill-opacity="0.05"/>
<path d="M128.091 664.76C129.393 664.031 131.036 664.49 131.768 665.781C132.503 667.079 132.038 668.725 130.747 669.457C129.449 670.192 127.805 669.734 127.07 668.436C126.335 667.138 126.793 665.495 128.091 664.76Z" fill="#28AFB0" fill-opacity="0.05"/>
<path d="M106.16 678.203C107.013 677.715 108.099 678.025 108.58 678.881C109.057 679.729 108.762 680.81 107.909 681.297C107.053 681.778 105.97 681.475 105.483 680.622C105.002 679.767 105.304 678.683 106.16 678.203Z" fill="#28AFB0" fill-opacity="0.05"/>
<path d="M85.418 690.62C85.9727 690.301 86.6826 690.5 86.9947 691.058C87.3167 691.619 87.1151 692.322 86.5604 692.641C86.0028 692.953 85.2929 692.755 84.9738 692.2C84.6618 691.642 84.8604 690.933 85.418 690.62Z" fill="#28AFB0" fill-opacity="0.05"/>
<path d="M461.41 359.264C474.386 351.939 490.849 356.516 498.167 369.496C505.499 382.469 500.922 398.932 487.938 406.26C474.962 413.585 458.503 408.998 451.178 396.021C443.853 383.045 448.433 366.589 461.41 359.264Z" fill="#28AFB0" fill-opacity="0.05"/>
<path d="M396.937 400.135C408.037 393.866 422.122 397.788 428.391 408.888C434.663 419.995 430.738 434.073 419.638 440.342C408.538 446.611 394.452 442.689 388.183 431.589C381.915 420.489 385.836 406.404 396.937 400.135Z" fill="#28AFB0" fill-opacity="0.05"/>
<path d="M339.827 437.341C348.853 432.245 360.299 435.435 365.392 444.455C370.494 453.478 367.307 464.931 358.281 470.026C349.254 475.122 337.802 471.935 332.713 462.905C327.61 453.882 330.8 442.436 339.827 437.341Z" fill="#28AFB0" fill-opacity="0.05"/>
<path d="M288.096 469.699C295.804 465.347 305.569 468.07 309.921 475.778C314.27 483.478 311.55 493.251 303.849 497.6C296.149 501.948 286.376 499.228 282.017 491.524C277.676 483.82 280.389 474.051 288.096 469.699Z" fill="#28AFB0" fill-opacity="0.05"/>
<path d="M241.422 499.429C247.712 495.88 255.685 498.102 259.241 504.389C262.79 510.679 260.568 518.652 254.278 522.201C247.991 525.757 240.015 523.528 236.469 517.245C232.913 510.958 235.132 502.978 241.422 499.429Z" fill="#28AFB0" fill-opacity="0.05"/>
<path d="M200.415 526.418C205.099 523.768 211.038 525.427 213.678 530.107C216.327 534.791 214.668 540.73 209.988 543.369C205.305 546.019 199.365 544.36 196.726 539.68C194.083 534.993 195.728 529.06 200.415 526.418Z" fill="#28AFB0" fill-opacity="0.05"/>
<path d="M168.338 547.362C171.829 545.387 176.265 546.626 178.24 550.117C180.209 553.611 178.976 558.044 175.485 560.02C171.992 561.989 167.551 560.759 165.583 557.265C163.611 553.764 164.847 549.338 168.338 547.362Z" fill="#28AFB0" fill-opacity="0.05"/>
<path d="M139.505 565.587C142.182 564.074 145.588 565.022 147.094 567.701C148.607 570.378 147.664 573.775 144.987 575.288C142.303 576.804 138.904 575.854 137.391 573.177C135.878 570.5 136.828 567.1 139.505 565.587Z" fill="#28AFB0" fill-opacity="0.05"/>
<path d="M113.477 582.105C115.399 581.021 117.819 581.699 118.907 583.612C119.988 585.527 119.309 587.963 117.391 589.037C115.478 590.125 113.049 589.444 111.968 587.528C110.887 585.613 111.562 583.186 113.477 582.105Z" fill="#28AFB0" fill-opacity="0.05"/>
<path d="M89.8046 596.943C91.1057 596.214 92.7489 596.672 93.4811 597.964C94.2163 599.262 93.7511 600.908 92.4599 601.64C91.1617 602.375 89.5186 601.917 88.7834 600.619C88.0482 599.321 88.5064 597.678 89.8046 596.943Z" fill="#28AFB0" fill-opacity="0.05"/>
<path d="M67.8736 610.386C68.7265 609.898 69.8097 610.201 70.2932 611.064C70.7708 611.912 70.4753 612.993 69.6224 613.48C68.7666 613.961 67.6834 613.658 67.1959 612.805C66.7154 611.95 67.0178 610.866 67.8736 610.386Z" fill="#28AFB0" fill-opacity="0.05"/>
<path d="M47.1299 622.8C47.6875 622.488 48.3974 622.687 48.7095 623.245C49.0286 623.799 48.8299 624.509 48.2723 624.821C47.7147 625.133 47.0077 624.942 46.6857 624.38C46.3736 623.822 46.5752 623.119 47.1299 622.8Z" fill="#28AFB0" fill-opacity="0.05"/>
</svg>
